<svg xmlns="http://www.w3.org/2000/svg" xmlns:xlink="http://www.w3.org/1999/xlink" width="28" height="24" viewBox="0 0 28 24"><defs><path id="a" d="M1.993 17.396c0 .587.027.898.132 1.657.067.334.153.487.315.578.198.111.43.112.631-.01l.705-.427.704-.428.59-.358.591-.36a1.376 1.376 0 0 1 1.427 0l.59.36.593.358.704.428.705.427c.2.122.433.121.63.01.162-.09.248-.243.312-.556.109-.785.136-1.093.136-1.679 0-.586-.027-.894-.132-1.655-.068-.337-.154-.49-.316-.58a.617.617 0 0 0-.63.01l-.705.428-.704.428-.592.358-.59.358a1.37 1.37 0 0 1-1.428 0l-.591-.358-.59-.358-.704-.428-.704-.428a.616.616 0 0 0-.631-.011c-.162.091-.249.245-.312.558-.109.78-.136 1.091-.136 1.678zm-.75 0c0-.627.03-.97.147-1.803.106-.529.297-.869.684-1.087.429-.24.95-.24 1.386.024l.705.428.704.428.59.358.591.358a.627.627 0 0 0 .649 0l.592-.359.59-.357.705-.428.704-.428a1.367 1.367 0 0 1 1.387-.024c.386.217.577.556.688 1.109.113.816.143 1.155.143 1.781 0 .626-.03.966-.147 1.805-.107.53-.298.868-.683 1.084a1.361 1.361 0 0 1-1.388-.023l-.704-.427-.703-.428-.593-.358-.592-.36a.62.62 0 0 0-.648 0l-.59.36-.59.358-.705.428-.705.427a1.362 1.362 0 0 1-1.387.023c-.386-.216-.577-.556-.687-1.107-.113-.812-.143-1.154-.143-1.782zm10.84-6.664a2.01 2.01 0 0 1-.81.603c-.105.312-.227.62-.365.918a4.36 4.36 0 0 1-.31.573.375.375 0 0 1-.633-.4 3.65 3.65 0 0 0 .26-.482 8.38 8.38 0 0 0 .39-1.012l.06-.19.192-.058a1.3 1.3 0 0 0 .65-.444c.235-.25.405-.843.47-1.782a1.83 1.83 0 0 0-.035-.63.737.737 0 0 0-.196-.357c-.016-.016-.214-.144-.19-.14l-.377-.061.068-.376a6.357 6.357 0 0 0-.04-2.443 4.738 4.738 0 0 0-.948-1.977 4.646 4.646 0 0 0-1.687-1.27A5.261 5.261 0 0 0 6.334.753c-.024 0-.024 0-.044.002a5.353 5.353 0 0 0-2.122.45 4.646 4.646 0 0 0-1.685 1.267 4.75 4.75 0 0 0-.95 1.979 6.32 6.32 0 0 0-.04 2.444l.069.376-.377.06c.023-.003-.175.125-.192.142a.744.744 0 0 0-.196.355 1.922 1.922 0 0 0-.033.65c.065.923.234 1.515.49 1.786.159.2.379.347.629.421l.191.057.06.19c.107.343.238.681.394 1.02.068.154.153.31.257.473a.375.375 0 1 1-.633.403 4.232 4.232 0 0 1-.308-.568 9.177 9.177 0 0 1-.368-.924 1.955 1.955 0 0 1-.788-.58c-.386-.408-.596-1.143-.67-2.21a2.628 2.628 0 0 1 .048-.885 1.5 1.5 0 0 1 .397-.719 1.62 1.62 0 0 1 .249-.188A7.078 7.078 0 0 1 .8 4.293a5.506 5.506 0 0 1 1.103-2.296A5.4 5.4 0 0 1 3.862.52 6.048 6.048 0 0 1 6.265.004l.046-.002a5.98 5.98 0 0 1 2.578.519A5.399 5.399 0 0 1 10.85 2c.543.67.92 1.455 1.102 2.294.172.81.201 1.643.087 2.46.104.065.199.137.252.19.195.197.331.446.393.715.068.29.084.591.05.87-.074 1.078-.285 1.817-.65 2.203z"/></defs><g fill="none" fill-rule="evenodd"><use fill="#282B33" fill-rule="nonzero" transform="translate(6.154 3)" xlink:href="#a"/><path d="M.154 0h24v24h-24z"/></g></svg>