<svg xmlns="http://www.w3.org/2000/svg" xmlns:xlink="http://www.w3.org/1999/xlink" width="28" height="24" viewBox="0 0 28 24"><defs><path id="a" d="M4.346 8.393a.647.647 0 0 0-.646.646v2c0 .361.293.655.655.655h6.644v-3.3H4.346zm7.003 4H4.355A1.356 1.356 0 0 1 3 11.04v-2c0-.742.604-1.345 1.346-1.345h7.003a.35.35 0 0 1 .35.35v4a.35.35 0 0 1-.35.35zm-.001 8.929H5.354c-.746 0-1.354-.556-1.354-1.239v-6.355a.35.35 0 0 1 .7 0v6.355c0 .298.294.54.654.54h5.644v-6.886a.35.35 0 0 1 .7 0v7.235a.35.35 0 0 1-.35.35zm7.692 0h-5.994a.35.35 0 0 1-.35-.35v-7.254a.35.35 0 0 1 .7 0v6.905h5.644c.361 0 .655-.242.655-.54v-6.355a.35.35 0 0 1 .7 0v6.355c0 .683-.608 1.239-1.355 1.239zm1.01-8.929h-7.002a.349.349 0 0 1-.35-.349v-4a.35.35 0 0 1 .35-.35h6.995c.747 0 1.354.607 1.354 1.354v2c0 .742-.603 1.345-1.346 1.345zm-6.652-.699h6.653c.357 0 .647-.29.647-.646v-2a.656.656 0 0 0-.655-.655h-6.645v3.301zm2.85-4.995H8.86c-.938 0-1.788-.423-2.273-1.133-.418-.609-.498-1.332-.226-2.034C6.717 2.615 7.741 2 8.911 2h.006c.418 0 1.29.002 2.333.801l.437.333a.35.35 0 1 1-.423.556l-.439-.333c-.856-.655-1.515-.657-1.91-.658H8.91c-.869 0-1.648.446-1.896 1.087-.187.479-.133.972.15 1.385.35.511 1 .829 1.696.829h7.387c.696 0 1.347-.318 1.696-.828.283-.414.337-.907.152-1.387-.248-.639-1.03-1.086-1.903-1.086-.979 0-1.454.321-3.385 2.289a.35.35 0 1 1-.5-.49C14.263 2.505 14.9 2 16.192 2c1.173 0 2.2.615 2.555 1.532a2.139 2.139 0 0 1-.227 2.035c-.485.709-1.335 1.132-2.273 1.132z"/></defs><g fill="none" fill-rule="evenodd"><g transform="translate(.154)"><mask id="b" fill="#fff"><use xlink:href="#a"/></mask><use fill="#000" xlink:href="#a"/><g fill="#272B33" mask="url(#b)"><path d="M0 0h24v24H0z"/></g></g><path d="M.154 0h24v24h-24z"/></g></svg>