<svg width="40" height="52" viewBox="0 0 40 52" xmlns="http://www.w3.org/2000/svg" xmlns:xlink="http://www.w3.org/1999/xlink"><title>icon_identity</title><defs><path d="M17.755 18.931c.136.264.225.55.262.844a3 3 0 0 1 0 .825 1.12 1.12 0 0 1-.45.787 1.4 1.4 0 0 1-.937.3H1.743v-.037c-.35.01-.693-.095-.976-.3-.24-.2-.4-.48-.45-.788a3.041 3.041 0 0 1 0-.825c.12-.603.406-1.161.826-1.612.185-.166.402-.294.637-.375l.713-.225a9.225 9.225 0 0 1 1.687-.412c.482-.063.95-.202 1.388-.413.298-.118.54-.346.675-.637a1.013 1.013 0 0 0-.15-.863 4.988 4.988 0 0 0-.526-.712 5.501 5.501 0 0 1-.9-1.388 6.221 6.221 0 0 1-.45-1.162 1.729 1.729 0 0 1-.862-.6c-.337-.338-.525-1.088-.6-2.175a2.044 2.044 0 0 1 .038-.825 1.17 1.17 0 0 1 .3-.563c.075-.075.112-.15.187-.188a.322.322 0 0 1 .225-.112 7.103 7.103 0 0 1 .038-2.813A5.775 5.775 0 0 1 4.63 2.337a5.453 5.453 0 0 1 1.95-1.5A6.788 6.788 0 0 1 9.168.313h.037a5.918 5.918 0 0 1 2.625.562 5.449 5.449 0 0 1 1.95 1.5c.523.662.896 1.43 1.095 2.25.106.581.156 1.172.15 1.763a.409.409 0 0 1-.412.375.416.416 0 0 1-.413-.413A5.445 5.445 0 0 0 14.125 5a5.198 5.198 0 0 0-.982-2.138 4.586 4.586 0 0 0-1.688-1.237 5.85 5.85 0 0 0-4.5 0 4.046 4.046 0 0 0-1.68 1.237A5.197 5.197 0 0 0 4.3 5.037a6.75 6.75 0 0 0 .075 2.738.24.24 0 0 1 0 .225.255.255 0 0 1-.263.281h-.187l-.037-.037c-.075 0-.113 0-.15.037a.037.037 0 0 0-.038.038.319.319 0 0 0-.113.187c-.05.196-.062.4-.037.6.038 1.013.188 1.613.45 1.763.123.109.262.197.412.262h.075c.038 0 .075.038.113.038l.038.037.112.113.075.15s.112.3.3.9c.23.578.56 1.111.975 1.575.292.31.532.664.713 1.05.222.401.263.879.112 1.312a1.77 1.77 0 0 1-.862 1.013 5.565 5.565 0 0 1-1.838.6 12 12 0 0 0-1.575.375 7.44 7.44 0 0 0-.563.187 1.774 1.774 0 0 0-.75.825 1.969 1.969 0 0 0-.224 1.125.75.75 0 0 0 .15.3c.13.122.31.177.487.15h14.805a.75.75 0 0 0 .488-.15c.064-.092.115-.193.15-.3.038-.389-.04-.78-.226-1.125 0-.075-.037-.112-.075-.187v-.038a.431.431 0 0 1 .188-.525.405.405 0 0 1 .525.113c.037.075.113.187.15.262zm-5.587-7.087l2.062 2.437 4.688-5.437a.375.375 0 0 1 .562.487l-4.838 5.588-.037.037a.521.521 0 0 1-.375.188h-.037a.461.461 0 0 1-.375-.188l-2.213-2.625a.375.375 0 0 1 .563-.487zm7.35-.3v.018a5.374 5.374 0 0 1-5.213 6.825 5.276 5.276 0 0 1-3.037-.937 5.424 5.424 0 0 1 6.112-8.962.38.38 0 1 1-.412.637 4.654 4.654 0 0 0-6.488 1.181 4.68 4.68 0 0 0 1.2 6.488 4.646 4.646 0 0 0 7.125-5.063.375.375 0 1 1 .712-.187z" id="a"/></defs><g transform="translate(10 15)" fill="none" fill-rule="evenodd"><mask id="b" fill="#fff"><use xlink:href="#a"/></mask><use fill="#272B33" xlink:href="#a"/><g mask="url(#b)" fill="#F9F9F9"><path d="M-2-1h24v24H-2z"/></g></g></svg>