<svg width="24" height="24" viewBox="0 0 24 24" xmlns="http://www.w3.org/2000/svg" xmlns:xlink="http://www.w3.org/1999/xlink"><defs><path d="M.5 0h4a.5.5 0 0 1 0 1H1v3.5a.5.5 0 0 1-1 0v-4A.5.5 0 0 1 .5 0zm15 16h-4a.5.5 0 1 1 0-1H15v-3.5a.5.5 0 1 1 1 0v4a.5.5 0 0 1-.5.5zM0 15.5v-4a.5.5 0 1 1 1 0V15h3.5a.5.5 0 1 1 0 1h-4a.5.5 0 0 1-.5-.5zm16-15v4a.5.5 0 1 1-1 0V1h-3.5a.5.5 0 1 1 0-1h4a.5.5 0 0 1 .5.5z" id="a"/></defs><g fill="none" fill-rule="evenodd"><path d="M0 0h24v24H0z"/><g transform="translate(4 4)"><mask id="b" fill="#fff"><use xlink:href="#a"/></mask><use fill="#FFF" fill-rule="nonzero" xlink:href="#a"/><g mask="url(#b)" fill="#FFF"><path d="M-4-4h24v24H-4z"/></g></g></g></svg>