<svg xmlns="http://www.w3.org/2000/svg" xmlns:xlink="http://www.w3.org/1999/xlink" width="28" height="24" viewBox="0 0 28 24"><defs><path id="a" d="M5.17 15.63c.7.633 1.698.85 2.973.648a.546.546 0 0 1 .612.475.561.561 0 0 1-.45.644 6.519 6.519 0 0 1-1.042.087c-1.128 0-2.068-.335-2.8-1.003-1.335-1.218-1.517-3.136-1.54-3.692-.63-.097-1.13-.2-1.557-.224C.6 12.521 0 11.724 0 10.748V7.253c0-.973.6-1.77 1.366-1.815.478-.028 1.105-.154 1.763-.258.456-.072.864.295.864.78v6.674c0 .042.01 1.936 1.178 2.996zM13.973.11c.587.26.966.934.966 1.717v14.35c0 .781-.379 1.455-.966 1.715a1.197 1.197 0 0 1-.494.108c-.313 0-.615-.13-.88-.366-2.922-2.615-6.095-3.956-7.225-4.344A.558.558 0 0 1 5 12.756V5.244a.56.56 0 0 1 .369-.532c1.208-.424 4.784-1.92 7.23-4.344A1.21 1.21 0 0 1 13.972.11zm2.409 6.182A3.277 3.277 0 0 1 18 9.142a3.28 3.28 0 0 1-1.623 2.852.254.254 0 0 1-.087.02.278.278 0 0 1-.27-.284V6.554c0-.155.12-.283.27-.283.032 0 .062.01.09.02z"/></defs><g fill="none" fill-rule="evenodd"><g transform="translate(3.154 3)"><mask id="b" fill="#fff"><use xlink:href="#a"/></mask><use fill="#000" xlink:href="#a"/><g fill="#272B33" mask="url(#b)"><path d="M-3-3h24v24H-3z"/></g></g><path d="M.154 0h24v24h-24z"/></g></svg>