<svg width="24" height="24" viewBox="0 0 24 24" xmlns="http://www.w3.org/2000/svg" xmlns:xlink="http://www.w3.org/1999/xlink"><title>offers</title><defs><path d="M17.149 15.109a2.033 2.033 0 0 1-2.044 2.044H2.044A2.033 2.033 0 0 1 0 15.109v-3.255c0-.106.045-.207.124-.278a.405.405 0 0 1 .577 0 .375.375 0 0 1 .124.293v3.255a1.226 1.226 0 0 0 1.234 1.234h13.05a1.226 1.226 0 0 0 1.234-1.234V2.044A1.226 1.226 0 0 0 15.109.81H2.044A1.226 1.226 0 0 0 .81 2.044v3.255a.375.375 0 0 1-.109.277.405.405 0 0 1-.562 0 .375.375 0 0 1-.124-.292v-3.24A2.033 2.033 0 0 1 2.059 0h13.05a2.033 2.033 0 0 1 2.044 2.044l-.004 13.065zM.45 8.89a.375.375 0 0 1-.292-.123.405.405 0 0 1 0-.563.375.375 0 0 1 .292-.124h3.975a.319.319 0 0 0 .191-.078c.07-.055.12-.13.147-.214L5.86 3.7a.896.896 0 0 1 .375-.45.773.773 0 0 1 1.001.146.96.96 0 0 1 .214.488l1.392 9.27v.023a.064.064 0 0 1 .022.045V13.2l1.459-4.309a1.19 1.19 0 0 1 .439-.596 1.12 1.12 0 0 1 .663-.214h2.828a.405.405 0 0 1 0 .807h-2.828a.33.33 0 0 0-.202.067.401.401 0 0 0-.135.203L9.63 13.45v.023a.818.818 0 0 1-.75.54h-.135a.773.773 0 0 1-.461-.259.833.833 0 0 1-.214-.506l-1.425-9.25a.045.045 0 0 0 0-.034.045.045 0 0 1 0-.034v.023l-1.099 4.06a.064.064 0 0 0-.022.046 1.254 1.254 0 0 1-.439.607c-.19.146-.424.226-.664.225H.45z" id="a"/></defs><g fill="none" fill-rule="evenodd"><g transform="translate(4 3)"><mask id="b" fill="#fff"><use xlink:href="#a"/></mask><use fill="#272B33" xlink:href="#a"/><g mask="url(#b)" fill="#272B33"><path d="M-4-3h24v24H-4z"/></g></g><path d="M0 0h24v24H0z"/></g></svg>