<svg xmlns="http://www.w3.org/2000/svg" xmlns:xlink="http://www.w3.org/1999/xlink" width="28" height="24" viewBox="0 0 28 24"><defs><path id="a" d="M15.934 10.625a.527.527 0 0 1-.527-.526 5.387 5.387 0 0 0-1.583-3.823 5.395 5.395 0 0 0-1.72-1.16 5.443 5.443 0 0 0-4.208 0 5.317 5.317 0 0 0-.865.47l1.745.307a.526.526 0 0 1-.183 1.036l-2.88-.508c-.017-.003-.03-.014-.049-.019a.505.505 0 0 1-.187-.097c-.014-.011-.032-.017-.044-.03-.01-.01-.015-.024-.025-.037a.601.601 0 0 1-.1-.178.496.496 0 0 1-.017-.096.534.534 0 0 1-.004-.108c.002-.015-.003-.03 0-.044l.508-2.88a.521.521 0 0 1 .61-.426c.286.05.476.323.426.61L6.56 4.648c.297-.187.6-.364.926-.5a6.499 6.499 0 0 1 5.029 0 6.418 6.418 0 0 1 2.053 1.384 6.424 6.424 0 0 1 1.892 4.567c0 .29-.236.526-.526.526m-1.22 3.761l-.508 2.88a.526.526 0 1 1-1.035-.184l.269-1.533c-.296.188-.6.365-.925.502a6.406 6.406 0 0 1-2.515.508c-.872 0-1.718-.17-2.514-.508a6.422 6.422 0 0 1-2.053-1.385A6.429 6.429 0 0 1 3.54 10.1a.526.526 0 1 1 1.053 0 5.38 5.38 0 0 0 1.583 3.823 5.38 5.38 0 0 0 1.719 1.16 5.443 5.443 0 0 0 4.208 0c.304-.13.592-.288.865-.47l-1.744-.307a.525.525 0 0 1-.426-.61.523.523 0 0 1 .61-.427l2.878.509c.018.003.032.014.049.019a.505.505 0 0 1 .188.097c.014.011.03.016.044.03.01.01.015.024.025.037a.531.531 0 0 1 .12.382c-.001.015.004.03 0 .044M10 0C4.478 0 0 4.478 0 10c0 5.523 4.478 10 10 10 5.523 0 10-4.477 10-10 0-5.522-4.477-10-10-10"/></defs><g fill="none" fill-rule="evenodd"><path d="M.154 0h24v24h-24z"/><use fill="#272B33" transform="translate(2.154 2)" xlink:href="#a"/></g></svg>