<svg width="24" height="24" viewBox="0 0 24 24" xmlns="http://www.w3.org/2000/svg" xmlns:xlink="http://www.w3.org/1999/xlink"><title>withdrawals</title><defs><path d="M9.167 19.25H1.833A1.839 1.839 0 0 1 0 17.409V10.09a1.84 1.84 0 0 1 1.833-1.84h.459c.253 0 .458.213.458.458a.463.463 0 0 1-.458.459h-.458a.924.924 0 0 0-.917.924v7.318c0 .51.412.924.916.924h7.792c.253 0 .458.213.458.459a.463.463 0 0 1-.458.458h-.458zm-.174-10.2l-1.796 1.808a.496.496 0 0 1-.662 0L1.981 6.233a.408.408 0 0 1 0-.61.496.496 0 0 1 .661 0l3.775 3.86V.505c0-.278.205-.504.458-.504s.458.226.458.504V9.47l3.795-3.847a.496.496 0 0 1 .662 0 .408.408 0 0 1 0 .61l-1.77 1.783c-.376.309-.72.655-1.026 1.033zm5.536 10.2a5.73 5.73 0 1 1 0-11.458 5.73 5.73 0 0 1 0 11.458zm0-.917a4.812 4.812 0 1 0 0-9.625 4.812 4.812 0 0 0 0 9.625zm-2.841-4.125a.687.687 0 1 1 0-1.375.687.687 0 0 1 0 1.375zm2.75 0a.687.687 0 1 1 0-1.375.687.687 0 0 1 0 1.375zm2.75 0a.687.687 0 1 1 0-1.375.687.687 0 0 1 0 1.375z" id="a"/></defs><g fill="none" fill-rule="evenodd"><g transform="translate(1.949 1.949)"><mask id="b" fill="#fff"><use xlink:href="#a"/></mask><use fill="#282B33" xlink:href="#a"/><g mask="url(#b)" fill="#272B33"><path d="M-.917-.917h22v22h-22z"/></g></g><path d="M1.032 1.032h22v22h-22z"/></g></svg>