<?xml version="1.0" encoding="UTF-8"?>
<svg width="112px" height="64px" viewBox="0 0 112 64" version="1.1" xmlns="http://www.w3.org/2000/svg" xmlns:xlink="http://www.w3.org/1999/xlink">
    <!-- Generator: Sketch 48.2 (47327) - http://www.bohemiancoding.com/sketch -->
    <title>balance</title>
    <desc>Created with Sketch.</desc>
    <defs>
        <rect id="path-1" x="0" y="0" width="112" height="36" rx="18"></rect>
        <path d="M6.41429827,7.33333333 L5.5,7.33333333 L5.5,12.3832452 C5.5,12.6244429 5.70520282,12.8333333 5.95833333,12.8333333 C6.20406087,12.8333333 6.41666667,12.631822 6.41666667,12.3832452 L6.41666667,7.33333333 L13.5779872,7.33333333 C14.6313624,7.33333333 15.4950426,8.14764161 15.5769757,9.16666667 L12.8422828,9.16666667 C10.805483,9.16666667 9.16666667,10.8082893 9.16666667,12.8333333 C9.16666667,14.8542569 10.812296,16.5 12.8422828,16.5 L15.5770141,16.5 C15.4949825,17.5259722 14.6247389,18.3333333 13.5779872,18.3333333 L2.00534609,18.3333333 C0.897824026,18.3333333 0,17.4331572 0,16.3413163 L0,9.32535035 C0,8.22518973 0.905182678,7.33333333 2.00534609,7.33333333 L5.49763161,7.33333333 L5.49763161,1.50946747 L1.71950531,5.3725764 C1.53682112,5.54094067 1.24063154,5.54094067 1.05794735,5.3725764 C0.875263169,5.20421212 0.875263169,4.93123969 1.05794735,4.76287541 L5.62518596,0.126273209 C5.80787015,-0.0420910698 6.10405973,-0.0420910698 6.28674392,0.126273209 L10.8639505,4.76287541 C11.0466347,4.93123969 11.0466347,5.20421212 10.8639505,5.3725764 C10.6812663,5.54094067 10.3850768,5.54094067 10.2023926,5.3725764 L6.41429827,1.50836738 L6.41429827,7.33333333 Z M10.0833333,12.8333333 C10.0833333,11.3145503 11.3107685,10.0833333 12.83486,10.0833333 L15.4128011,10.0833333 C16.5195055,10.0833333 17.4166667,10.9792442 17.4166667,12.0845181 L17.4166667,13.5821486 C17.4166667,14.6873724 16.5174561,15.5833333 15.4128011,15.5833333 L12.83486,15.5833333 C11.3152338,15.5833333 10.0833333,14.349026 10.0833333,12.8333333 Z M12.8333333,13.75 C13.3395944,13.75 13.75,13.3395944 13.75,12.8333333 C13.75,12.3270723 13.3395944,11.9166667 12.8333333,11.9166667 C12.3270723,11.9166667 11.9166667,12.3270723 11.9166667,12.8333333 C11.9166667,13.3395944 12.3270723,13.75 12.8333333,13.75 Z" id="path-3"></path>
    </defs>
    <g id="Symbols" stroke="none" stroke-width="1" fill="none" fill-rule="evenodd">
        <g id="balance">
            <g id="Group-2" transform="translate(0.000000, 14.000000)">
                <g id="Border-Radius/Pillbox">
                    <mask id="mask-2" fill="white">
                        <use xlink:href="#path-1"></use>
                    </mask>
                    <g id="Mask"></g>
                    <g id="Backgrounds/Sketch-Only/Tab-BG" mask="url(#mask-2)" fill="#7C848C" fill-rule="evenodd">
                        <rect id="Container" x="0" y="0" width="112" height="36"></rect>
                    </g>
                </g>
                <g id="Group" transform="translate(78.000000, 2.000000)">
                    <circle id="Oval-4" fill="#60666E" cx="16" cy="16" r="16"></circle>
                    <g id="Icons/UI/Deposit-Fill" transform="translate(5.000000, 3.000000)">
                        <rect id="Bounding-Box" x="0" y="0" width="22" height="22"></rect>
                        <g id="↳Colour" stroke-width="1" fill-rule="evenodd" transform="translate(2.750000, 1.833333)">
                            <mask id="mask-4" fill="white">
                                <use xlink:href="#path-3"></use>
                            </mask>
                            <use id="↳🎨Colour" fill="#272B33" xlink:href="#path-3"></use>
                            <g id="Backgrounds/Sketch-Only/Header-Icons" mask="url(#mask-4)" fill="#FFFFFF">
                                <g transform="translate(-2.750000, -1.833333)" id="grey-900-opacity-3">
                                    <rect x="0" y="0" width="22" height="22"></rect>
                                </g>
                            </g>
                        </g>
                    </g>
                </g>
            </g>
        </g>
    </g>
</svg>