<?xml version="1.0" encoding="UTF-8"?>
<svg width="40px" height="52px" viewBox="0 0 40 52" version="1.1" xmlns="http://www.w3.org/2000/svg" xmlns:xlink="http://www.w3.org/1999/xlink">
    <!-- Generator: Sketch 48.2 (47327) - http://www.bohemiancoding.com/sketch -->
    <title>icon_hands-heart</title>
    <desc>Created with Sketch.</desc>
    <defs>
        <path d="M14.9883468,1.96971802 C16.2605175,5.16923349 11.5095793,8.54732657 10.0235039,9.50718121 C9.70777929,9.7119339 9.29972615,9.7119339 8.98400158,9.50718121 C7.49792613,8.54732657 2.75074067,5.16179276 4.03041675,1.94739582 C4.44962606,0.903153556 5.40862666,0.167653282 6.53347817,0.0276865332 C7.94518322,-0.159319109 9.30801251,0.615341623 9.85838436,1.91763288 C9.9466049,2.15766619 10.0045854,2.40758223 10.0310093,2.66170625 C10.0527712,2.86717643 9.90239799,3.05123241 9.69514122,3.07280678 C9.48788445,3.09438115 9.30222809,2.94530413 9.28046613,2.73983395 C9.25977552,2.5556173 9.2169407,2.37451409 9.15287379,2.20038076 C8.76922283,1.3204318 7.89138076,0.753764186 6.92444998,0.761881 C5.9575192,0.769997813 5.08948215,1.35132105 4.72091645,2.23758443 C3.62512344,4.97205405 8.42109421,8.25341759 9.41556389,8.87843922 C9.48284449,8.92194286 9.56969353,8.92194286 9.63697413,8.87843922 C10.6089275,8.24969722 15.4011456,4.97949478 14.312858,2.23758443 C13.9929742,1.45630115 13.2784479,0.90235815 12.4365001,0.782920999 C11.7687769,0.680577832 11.0883277,0.860017072 10.5601422,1.27772979 C10.4560584,1.36584057 10.3118425,1.3907868 10.1838103,1.34282708 C10.0557781,1.29486736 9.96423677,1.18160861 9.94493285,1.04727787 C9.92562892,0.912947132 9.98162419,0.778850667 10.0910527,0.697352562 C10.7803595,0.153654875 11.6669176,-0.0809024245 12.5378234,0.0500087342 C13.6426431,0.208339859 14.5775182,0.940709279 14.9883468,1.96971802 Z M8.12087695,10.5265617 C8.58995683,10.9296583 8.85965252,11.5146169 8.86016196,12.1300398 L8.86016196,16.6279633 C8.86016196,16.8334335 8.69214715,17 8.48489038,17 L5.15623148,17 C4.94897471,17 4.78095991,16.8334335 4.78095991,16.6279633 C4.7827658,16.2201997 4.63922403,15.8249096 4.3756666,15.5118533 L0.72052143,11.5571033 C0.264763623,10.9996093 0.011029656,10.3065456 0,9.58902928 L0,5.95051052 C1.63348605e-08,5.18205204 0.628375395,4.55909336 1.4035157,4.55909336 C2.17865601,4.55909336 2.80703139,5.18205204 2.8070314,5.95051052 L2.8070314,8.99749095 C2.81152499,9.29858334 2.94863097,9.58266474 3.18230298,9.77504762 L5.32510369,11.635231 C5.45374476,11.723704 5.62427222,11.723704 5.75291329,11.635231 C5.91187308,11.5712377 6.0943679,11.6222667 6.19617086,11.7591742 C6.29797383,11.8960817 6.29315875,12.0840015 6.18447561,12.2156083 C5.79607694,12.4862227 5.27818733,12.4862227 4.88978866,12.2156083 L4.85601422,12.1895657 L2.69444993,10.3293823 C2.30343241,9.99229282 2.07894419,9.50376163 2.07900454,8.99005022 L2.07900454,5.94679016 C2.07799784,5.60876958 1.81482565,5.32841974 1.4748173,5.30316669 C1.29306662,5.29086025 1.1141308,5.35267915 0.979458819,5.47430357 C0.847539171,5.59505231 0.772680112,5.7650693 0.773059451,5.94306979 L0.773059451,9.58902928 C0.776216353,10.1286054 0.95965383,10.6519327 1.29468694,11.077176 L4.94232668,15.0244852 C5.2398583,15.3748811 5.43457889,15.7995737 5.50523405,16.2522063 L8.1096188,16.2522063 L8.1096188,12.1337602 C8.10924618,11.7339437 7.93401596,11.3539318 7.62927118,11.0920575 L5.1374679,9.00493169 C4.88087937,8.78412279 4.49676615,8.7938042 4.25182698,9.02725389 C4.20333256,9.07997558 4.16401836,9.14032443 4.13549279,9.2058315 C4.04967929,9.38668529 3.83506274,9.46800728 3.64944973,9.39000177 C3.46383672,9.31199626 3.37355711,9.10253896 3.44499309,8.91564288 C3.51362578,8.75644904 3.61162302,8.61135116 3.7339522,8.4878007 C4.25811042,7.98406295 5.08329785,7.95985957 5.6365791,8.4319952 L8.12087695,10.5265617 Z M18.5421687,4.92740964 C18.8296456,5.18724342 18.995446,5.55371032 19,5.93934942 L19,9.58530891 C18.9985344,10.293067 18.7595691,10.9802235 18.3207584,11.5385015 L14.6355915,15.5267347 C14.3783108,15.8355904 14.2376484,16.2236822 14.2378037,16.624243 C14.2378037,16.8297131 14.0697889,16.9962796 13.8625321,16.9962796 L10.5338732,16.9962796 C10.3266164,16.9962796 10.1586016,16.8297131 10.1586016,16.624243 L10.1586016,12.1449213 C10.1614362,11.5276044 10.4354685,10.9421554 10.9091448,10.5414432 L13.4009481,8.4431563 C13.9539592,7.97253462 14.7779073,7.99836373 15.2998222,8.50268217 C15.4224709,8.62739307 15.5204796,8.77376967 15.5887814,8.93424472 C15.6602173,9.12114079 15.5699377,9.3305981 15.3843247,9.40860361 C15.1987117,9.48660912 14.9840952,9.40528713 14.8982817,9.22443333 C14.8656519,9.14803591 14.8185131,9.07856885 14.7594312,9.01981316 C14.5147462,8.7869972 14.131964,8.77574137 13.8737902,8.99377059 L11.381987,11.0920575 C11.0764283,11.3520874 10.8997921,11.7308214 10.8978866,12.1300398 L10.8978866,16.2336044 L13.5060241,16.2336044 C13.575367,15.7853362 13.7674783,15.364533 14.061426,15.0170445 L17.7165712,11.0697353 C18.0456482,10.6425021 18.2225021,10.1191308 18.2194351,9.58158855 L18.2194351,5.94306979 C18.2198145,5.7650693 18.1449554,5.59505231 18.0130357,5.47430357 C17.8231238,5.29781192 17.5456149,5.2500051 17.3067784,5.3526357 C17.0679419,5.45526631 16.9134075,5.68872677 16.91349,5.94679016 L16.91349,9.01609279 C16.9135504,9.5298042 16.6890622,10.0183354 16.2980446,10.3554248 L14.1364803,12.2156083 L14.1027059,12.2416508 C13.7143072,12.5122652 13.1964176,12.5122652 12.808019,12.2416508 C12.6370321,12.1245328 12.5941884,11.8921726 12.7123247,11.7226597 C12.8304611,11.5531468 13.0648417,11.5106723 13.2358286,11.6277903 C13.3644696,11.7162633 13.5349971,11.7162633 13.6636382,11.6277903 L15.8064389,9.76760689 C16.0401109,9.57522401 16.1772169,9.29114261 16.1817104,8.99005022 L16.1817104,5.94679016 C16.181096,5.39262733 16.5122397,4.89093456 17.0247095,4.66962088 C17.5371792,4.44830719 18.1332618,4.54957079 18.5421687,4.92740964 Z" id="path-1"></path>
    </defs>
    <g id="Symbols" stroke="none" stroke-width="1" fill="none" fill-rule="evenodd">
        <g id="icon_hands-heart">
            <g id="↳Colour" transform="translate(11.000000, 18.000000)">
                <mask id="mask-2" fill="white">
                    <use xlink:href="#path-1"></use>
                </mask>
                <use id="↳🎨Colour" fill="#272B33" xlink:href="#path-1"></use>
                <g id="Backgrounds/Style-Guide/grey-050" mask="url(#mask-2)" fill="#F9F9F9">
                    <g transform="translate(-3.000000, -4.000000)" id="grey-50">
                        <rect x="0" y="0" width="24" height="24"></rect>
                    </g>
                </g>
            </g>
        </g>
    </g>
</svg>