<?xml version="1.0" encoding="UTF-8"?>
<svg width="40px" height="52px" viewBox="0 0 40 52" version="1.1" xmlns="http://www.w3.org/2000/svg" xmlns:xlink="http://www.w3.org/1999/xlink">
    <!-- Generator: Sketch 48.2 (47327) - http://www.bohemiancoding.com/sketch -->
    <title>icon_cogs</title>
    <desc>Created with Sketch.</desc>
    <defs>
        <path d="M19.590004,8.46000398 C19.8862488,8.49906301 20.155445,8.65250487 20.340004,8.88750398 C20.5296323,9.11329312 20.6332477,9.39889963 20.632504,9.69375398 L20.632504,10.995004 C20.6332477,11.2898583 20.5296323,11.5754648 20.340004,11.801254 C20.155445,12.0362531 19.8862488,12.1896949 19.590004,12.228754 L18.840004,12.341254 C18.5648837,12.3865374 18.3063561,12.5028748 18.090004,12.678754 C17.6297309,13.0323258 17.3902313,13.6025629 17.460004,14.178754 C17.491121,14.4639533 17.600097,14.7350959 17.775004,14.962504 L18.198754,15.585004 C18.3766581,15.818526 18.4609149,16.1100813 18.435004,16.402504 C18.4128927,16.7048319 18.2792462,16.9881624 18.060004,17.197504 L17.141254,18.093754 C17.0384361,18.2139172 16.9103997,18.3099445 16.766254,18.375004 C16.6136438,18.4415402 16.4489878,18.4760031 16.282504,18.476254 C16.1544843,18.4762361 16.0274946,18.453378 15.907504,18.408754 C15.7875912,18.3638273 15.6741159,18.3033072 15.570004,18.228754 L14.940004,17.778754 C14.795446,17.6764148 14.6361101,17.5967468 14.467504,17.542504 C14.3030117,17.4878994 14.1308226,17.4600453 13.957504,17.460004 C13.5820015,17.4748414 13.2203627,17.6058699 12.922504,17.835004 C12.5787619,18.0799682 12.3541385,18.4584246 12.303754,18.877504 L12.191254,19.627504 C12.1521949,19.9237488 11.9987531,20.192945 11.763754,20.377504 C11.5379648,20.5671323 11.2523583,20.6707477 10.957504,20.670004 L9.64875398,20.670004 C9.35706741,20.6720469 9.07456169,20.5681061 8.85375398,20.377504 C8.62345411,20.1872207 8.46800992,19.9215042 8.41500398,19.627504 L8.30250398,18.877504 C8.24939946,18.4565413 8.02049634,18.0777611 7.67250398,17.835004 C7.37464521,17.6058699 7.01300643,17.4748414 6.63750398,17.460004 C6.46941771,17.4604151 6.30241935,17.486983 6.14250398,17.538754 C5.97389785,17.5929968 5.81456193,17.6726648 5.67000398,17.775004 L5.04750398,18.236254 C4.94339203,18.3108072 4.82991677,18.3713273 4.71000398,18.416254 C4.59001339,18.460878 4.46302368,18.4837361 4.33500398,18.483754 C4.16852014,18.4835031 4.00386414,18.4490402 3.85125398,18.382504 C3.70710828,18.3174445 3.57907186,18.2214172 3.47625398,18.101254 L2.55750398,17.205004 C2.3382617,16.9956624 2.20461525,16.7123319 2.18250398,16.410004 C2.1482453,16.1179615 2.22449384,15.8236689 2.39625398,15.585004 L2.84625398,14.955004 C3.02456217,14.7298932 3.13743823,14.4600286 3.17250398,14.175004 C3.24227668,13.5988129 3.00277708,13.0285758 2.54250398,12.675004 C2.32615185,12.4991248 2.06762422,12.3827874 1.79250398,12.337504 L1.04250398,12.225004 C0.746259183,12.1859449 0.477062927,12.0325031 0.292503976,11.797504 C0.102875655,11.5717148 -0.000739731703,11.2861083 3.97581362e-06,10.991254 L3.97581362e-06,9.68250398 C-0.000739731703,9.38764963 0.102875655,9.10204312 0.292503976,8.87625398 C0.477062927,8.64125487 0.746259183,8.48781301 1.04250398,8.44875398 L1.79250398,8.33625398 C2.06762422,8.2909706 2.32615185,8.17463316 2.54250398,7.99875398 C3.00277708,7.64518217 3.24227668,7.07494503 3.17250398,6.49875398 C3.14138691,6.2135547 3.03241093,5.9424121 2.85750398,5.71500398 L2.39625398,5.08500398 C2.21834988,4.85148196 2.13409307,4.55992666 2.16000398,4.26750398 C2.18211525,3.96517606 2.3157617,3.68184557 2.53500398,3.47250398 L3.45375398,2.57625398 C3.55657186,2.45609076 3.68460828,2.36006344 3.82875398,2.29500398 C3.98136414,2.22846777 4.14602014,2.19400488 4.31250398,2.19375398 C4.44052368,2.19377182 4.56751339,2.21662997 4.68750398,2.26125398 C4.80741677,2.30618062 4.92089203,2.36670076 5.02500398,2.44125398 L5.65500398,2.89125398 C5.79956193,2.99359316 5.95889785,3.07326112 6.12750398,3.12750398 C6.28741935,3.17927494 6.45441771,3.20584286 6.62250398,3.20625398 C7.00276082,3.19559662 7.37005748,3.06573101 7.67250398,2.83500398 C8.0162461,2.59003973 8.24086948,2.21158336 8.29125398,1.79250398 L8.40375398,1.04250398 C8.44281301,0.746259183 8.59625487,0.477062927 8.83125398,0.292503976 C9.05704312,0.102875655 9.34264963,-0.000739731703 9.63750398,3.97581362e-06 L10.938754,3.97581362e-06 C11.2336083,-0.000739731703 11.5192148,0.102875655 11.745004,0.292503976 C11.9800031,0.477062927 12.1334449,0.746259183 12.172504,1.04250398 L12.285004,1.79250398 C12.3399126,2.21473344 12.5716749,2.59373304 12.922504,2.83500398 C13.2255982,3.05622395 13.589808,3.17806391 13.965004,3.18375398 C14.131832,3.18295539 14.2975357,3.15639221 14.456254,3.10500398 C14.6248601,3.05076112 14.784196,2.97109316 14.928754,2.86875398 L15.547504,2.43375398 C15.6516159,2.35920076 15.7650912,2.29868062 15.885004,2.25375398 C16.0049946,2.20912997 16.1319843,2.18627182 16.260004,2.18625398 C16.4264878,2.18650488 16.5911438,2.22096777 16.743754,2.28750398 C16.8878997,2.35256344 17.0159361,2.44859076 17.118754,2.56875398 L18.037504,3.46500398 C18.2567462,3.67434557 18.3903927,3.95767606 18.412504,4.26000398 C18.4467626,4.55204647 18.3705141,4.84633908 18.198754,5.08500398 L17.748754,5.71500398 C17.5704458,5.94011471 17.4575697,6.20997933 17.422504,6.49500398 C17.3527313,7.07119503 17.5922309,7.64143217 18.052504,7.99500398 C18.2688561,8.17088316 18.5273837,8.2872206 18.802504,8.33250398 L19.590004,8.46000398 Z M19.815004,10.995004 L19.815004,9.68250398 C19.8158636,9.57968114 19.779955,9.47993495 19.713754,9.40125398 C19.6499219,9.32057311 19.557048,9.26807913 19.455004,9.25500398 L18.705004,9.12000398 C17.8431706,9.00466668 17.1120799,8.43013566 16.796254,7.62000398 C16.6330231,7.226651 16.5748707,6.79761565 16.627504,6.37500398 C16.6774399,5.95625061 16.8364974,5.55796047 17.088754,5.22000398 L17.538754,4.59000398 C17.5977345,4.50440318 17.6255344,4.40114617 17.617504,4.29750398 C17.6112098,4.1952604 17.5670979,4.09901641 17.493754,4.02750398 L16.575004,3.10875398 C16.5332236,3.06590729 16.4835652,3.0315284 16.428754,3.00750398 C16.3309178,2.97032078 16.2228402,2.97032078 16.125004,3.00750398 C16.0827071,3.02082063 16.0441584,3.04394986 16.012504,3.07500398 L15.382504,3.52500398 C15.1796066,3.6923947 14.9467163,3.81965713 14.696254,3.90000398 C14.4531727,3.97429734 14.2004349,4.01220801 13.946254,4.01250398 C13.3543999,4.01988826 12.7800202,3.81199213 12.330004,3.42750398 C11.8725416,3.05151329 11.5760673,2.51490823 11.501254,1.92750398 L11.366254,1.17750398 C11.3531788,1.07545999 11.3006848,0.982586036 11.220004,0.918753976 C11.141323,0.852552932 11.0415768,0.816644305 10.938754,0.817503976 L9.64875398,0.817503976 C9.54593114,0.816644305 9.44618495,0.852552932 9.36750398,0.918753976 C9.28682311,0.982586036 9.23432913,1.07545999 9.22125398,1.17750398 L9.08625398,1.92750398 C9.00998071,2.51443033 8.71378468,3.05053174 8.25750398,3.42750398 C7.80748773,3.81199213 7.23310804,4.01988826 6.64125398,4.01250398 C6.38707721,4.01215304 6.13434744,3.97424358 5.89125398,3.90000398 C5.64079161,3.81965713 5.40790138,3.6923947 5.20500398,3.52500398 L4.57500398,3.07500398 C4.54334958,3.04394986 4.50480085,3.02082063 4.46250398,3.00750398 C4.36466778,2.97032078 4.25659017,2.97032078 4.15875398,3.00750398 C4.10394278,3.0315284 4.05428438,3.06590729 4.01250398,3.10875398 L3.09375398,4.02750398 C3.02041001,4.09901641 2.97629818,4.1952604 2.97000398,4.29750398 C2.96197353,4.40114617 2.9897735,4.50440318 3.04875398,4.59000398 L3.49875398,5.22000398 C3.75101058,5.55796047 3.910068,5.95625061 3.96000398,6.37500398 C4.01263726,6.79761565 3.95448487,7.226651 3.79125398,7.62000398 C3.47927781,8.41919041 2.76443063,8.99106816 1.91625398,9.12000398 L1.16625398,9.25500398 C1.06420999,9.26807913 0.971336036,9.32057311 0.907503976,9.40125398 C0.841302932,9.47993495 0.805394305,9.57968114 0.806253976,9.68250398 L0.806253976,10.983754 C0.805394305,11.0865768 0.841302932,11.186323 0.907503976,11.265004 C0.971336036,11.3456848 1.06420999,11.3981788 1.16625398,11.411254 L1.91625398,11.546254 C2.77808731,11.6615913 3.50917802,12.2361223 3.82500398,13.046254 C3.98823487,13.439607 4.04638726,13.8686423 3.99375398,14.291254 C3.943818,14.7100073 3.78476058,15.1082975 3.53250398,15.446254 L3.08250398,16.076254 C3.0235235,16.1618548 2.99572353,16.2651118 3.00375398,16.368754 C3.01004818,16.4709976 3.05416001,16.5672415 3.12750398,16.638754 L4.04625398,17.557504 C4.08803438,17.6003507 4.13769278,17.6347296 4.19250398,17.658754 C4.29034017,17.6959372 4.39841778,17.6959372 4.49625398,17.658754 C4.53855085,17.6454373 4.57709958,17.6223081 4.60875398,17.591254 L5.23875398,17.141254 C5.44165138,16.9738632 5.67454161,16.8466008 5.92500398,16.766254 C6.16809744,16.6920144 6.42082721,16.6541049 6.67500398,16.653754 C7.26685804,16.6463697 7.84123773,16.8542658 8.29125398,17.238754 C8.74871632,17.6147447 9.04519061,18.1513497 9.12000398,18.738754 L9.25500398,19.488754 C9.26807913,19.590798 9.32057311,19.6836719 9.40125398,19.747504 C9.47993495,19.813705 9.57968114,19.8496136 9.68250398,19.848754 L10.983754,19.848754 C11.0865768,19.8496136 11.186323,19.813705 11.265004,19.747504 C11.3456848,19.6836719 11.3981788,19.590798 11.411254,19.488754 L11.546254,18.738754 C11.6225272,18.1518276 11.9187233,17.6157262 12.375004,17.238754 C12.8250202,16.8542658 13.3993999,16.6463697 13.991254,16.653754 C14.2454349,16.6540499 14.4981727,16.6919606 14.741254,16.766254 C14.9917163,16.8466008 15.2246066,16.9738632 15.427504,17.141254 L16.057504,17.591254 C16.0891584,17.6223081 16.1277071,17.6454373 16.170004,17.658754 C16.2678402,17.6959372 16.3759178,17.6959372 16.473754,17.658754 C16.5285652,17.6347296 16.5782236,17.6003507 16.620004,17.557504 L17.538754,16.638754 C17.6120979,16.5672415 17.6562098,16.4709976 17.662504,16.368754 C17.6705344,16.2651118 17.6427345,16.1618548 17.583754,16.076254 L17.133754,15.446254 C16.8814974,15.1082975 16.7224399,14.7100073 16.672504,14.291254 C16.6198707,13.8686423 16.6780231,13.439607 16.841254,13.046254 C17.1532301,12.2470675 17.8680773,11.6751898 18.716254,11.546254 L19.466254,11.411254 C19.568298,11.3981788 19.6611719,11.3456848 19.725004,11.265004 C19.78633,11.1857679 19.8181519,11.0876505 19.815004,10.987504 L19.815004,10.995004 Z M10.297504,6.47625398 C12.4260682,6.48243272 14.1500752,8.20643977 14.156254,10.335004 C14.1500752,12.4635682 12.4260682,14.1875752 10.297504,14.193754 C8.16893977,14.1875752 6.44493272,12.4635682 6.43875398,10.335004 C6.44493272,8.20643977 8.16893977,6.48243272 10.297504,6.47625398 L10.297504,6.47625398 Z M10.297504,13.391254 C11.9822489,13.3850726 13.3458911,12.0197553 13.350004,10.335004 C13.3438343,8.65171698 11.980791,7.28867369 10.297504,7.28250398 C8.61421698,7.28867369 7.25117369,8.65171698 7.24500398,10.335004 C7.25117369,12.018291 8.61421698,13.3813343 10.297504,13.387504 L10.297504,13.391254 Z" id="path-1"></path>
    </defs>
    <g id="Symbols" stroke="none" stroke-width="1" fill="none" fill-rule="evenodd">
        <g id="icon_cogs">
            <g id="↳Colour" transform="translate(10.000000, 16.000000)">
                <mask id="mask-2" fill="white">
                    <use xlink:href="#path-1"></use>
                </mask>
                <use id="↳🎨Colour" fill="#272B33" xlink:href="#path-1"></use>
                <g id="Backgrounds/Style-Guide/grey-050" mask="url(#mask-2)" fill="#F9F9F9">
                    <g transform="translate(-2.000000, -2.000000)" id="grey-50">
                        <rect x="0" y="0" width="24" height="24"></rect>
                    </g>
                </g>
            </g>
        </g>
    </g>
</svg>