<?xml version="1.0" encoding="UTF-8"?>
<svg width="24px" height="18px" viewBox="0 0 24 18" version="1.1" xmlns="http://www.w3.org/2000/svg" xmlns:xlink="http://www.w3.org/1999/xlink">
    <!-- Generator: Sketch 48.2 (47327) - http://www.bohemiancoding.com/sketch -->
    <title>icon_more</title>
    <desc>Created with Sketch.</desc>
    <defs>
        <path d="M2,4 C0.8954305,4 0,3.1045695 0,2 C0,0.8954305 0.8954305,0 2,0 C3.1045695,0 4,0.8954305 4,2 C4,3.1045695 3.1045695,4 2,4 Z M10,4 C8.8954305,4 8,3.1045695 8,2 C8,0.8954305 8.8954305,0 10,0 C11.1045695,0 12,0.8954305 12,2 C12,3.1045695 11.1045695,4 10,4 Z M18,4 C16.8954305,4 16,3.1045695 16,2 C16,0.8954305 16.8954305,0 18,0 C19.1045695,0 20,0.8954305 20,2 C20,3.1045695 19.1045695,4 18,4 Z" id="path-1"></path>
    </defs>
    <g id="Symbols" stroke="none" stroke-width="1" fill="none" fill-rule="evenodd">
        <g id="icon_more">
            <g id="↳Colour" transform="translate(2.000000, 7.000000)">
                <mask id="mask-2" fill="white">
                    <use xlink:href="#path-1"></use>
                </mask>
                <use id="↳🎨Colour" fill="#272B33" xlink:href="#path-1"></use>
                <g id="Backgrounds/Style-Guide/grey-800" mask="url(#mask-2)" fill="#272B33">
                    <g transform="translate(-2.000000, -10.000000)" id="grey-800">
                        <rect x="0" y="0" width="24" height="24"></rect>
                    </g>
                </g>
            </g>
            <rect id="Bounding-Box" x="0" y="0" width="24" height="24"></rect>
        </g>
    </g>
</svg>