<?xml version="1.0" encoding="UTF-8"?>
<svg width="40px" height="52px" viewBox="0 0 40 52" version="1.1" xmlns="http://www.w3.org/2000/svg" xmlns:xlink="http://www.w3.org/1999/xlink">
    <!-- Generator: Sketch 48.2 (47327) - http://www.bohemiancoding.com/sketch -->
    <title>icon_identity</title>
    <desc>Created with Sketch.</desc>
    <defs>
        <path d="M17.755,18.93125 C17.8912218,19.1949633 17.9800713,19.4805511 18.0175,19.775 C18.0550663,20.0487171 18.0550663,20.3262829 18.0175,20.6 C17.984651,20.914016 17.8213596,21.1997758 17.5675,21.3875 C17.3013459,21.597176 16.9684367,21.703707 16.63,21.6875 L1.7425,21.6875 L1.7425,21.65 C1.39321836,21.660933 1.05021922,21.5553948 0.7675,21.35 C0.527384939,21.1504033 0.367555668,20.8707021 0.3175,20.5625 C0.280027225,20.2887766 0.280027225,20.0112234 0.3175,19.7375 C0.437853694,19.133967 0.723468035,18.5757208 1.1425,18.125 C1.32799385,17.9589126 1.54470937,17.8314329 1.78,17.75 L2.4925,17.525 C3.04077242,17.3347252 3.60577693,17.196613 4.18,17.1125 C4.66153982,17.0498791 5.12995968,16.9106192 5.5675,16.7 C5.866283,16.5824842 6.10811656,16.3540859 6.2425,16.0625 C6.32579901,15.7671247 6.2706311,15.4499092 6.0925,15.2 C5.93895959,14.9474117 5.76326805,14.7089732 5.5675,14.4875 C5.19929654,14.0729943 4.89586855,13.6052095 4.6675,13.1 C4.47895852,12.728543 4.32820193,12.3390885 4.2175,11.9375 C3.87471447,11.8318252 3.57328931,11.6221381 3.355,11.3375 C3.0175,11 2.83,10.25 2.755,9.1625 C2.71122896,8.88781341 2.72398944,8.60708288 2.7925,8.3375 C2.8390588,8.12604932 2.94283842,7.93146253 3.0925,7.775 C3.1675,7.7 3.205,7.625 3.28,7.5875 C3.33667952,7.5210892 3.41786365,7.48049714 3.505,7.475 C3.32988326,6.54437429 3.34263324,5.58812593 3.5425,4.6625 C3.72600086,3.81573386 4.09768027,3.02110893 4.63,2.3375 C5.1572383,1.69547344 5.82421432,1.18241497 6.58,0.8375 C7.3998214,0.494820879 8.27895032,0.316446896 9.1675,0.3125 L9.205,0.3125 C10.1115384,0.296422365 11.009648,0.488874428 11.83,0.875 C12.5858544,1.21980079 13.2528544,1.73287772 13.78,2.375 C14.3027073,3.03743417 14.6762181,3.80492212 14.875,4.625 C14.9807273,5.20642078 15.0309531,5.79657451 15.025,6.3875 C15.0072935,6.60142013 14.8271347,6.76520083 14.6125,6.7625 C14.3855311,6.76046428 14.2020357,6.57696889 14.2,6.35 C14.2311852,5.8986317 14.205991,5.44513628 14.125,5 C13.9651692,4.22177368 13.6290607,3.49054518 13.1425,2.8625 C12.6828817,2.32546795 12.1053494,1.90194421 11.455,1.625 C10.015,1.025 8.395,1.025 6.955,1.625 C6.2964419,1.88353221 5.71718121,2.31021977 5.275,2.8625 C4.78590353,3.50218385 4.45212752,4.2467611 4.3,5.0375 C4.13768877,5.94553909 4.163214,6.87721015 4.375,7.775 C4.41233412,7.84535388 4.41233412,7.92964612 4.375,8 C4.38263886,8.07337574 4.358126,8.14646387 4.30778982,8.20039549 C4.25745363,8.25432712 4.18622764,8.28381633 4.1125,8.28125 L3.925,8.28125 L3.8875,8.24375 C3.8125,8.24375 3.775,8.24375 3.7375,8.28125 C3.71678932,8.28125 3.7,8.29803932 3.7,8.31875 C3.64156513,8.36603023 3.60171908,8.4324403 3.5875,8.50625 C3.53776262,8.70217242 3.52504469,8.90565929 3.55,9.10625 C3.5875,10.11875 3.7375,10.71875 4,10.86875 C4.12273366,10.9775393 4.26196835,11.0661432 4.4125,11.13125 L4.4875,11.13125 C4.525,11.13125 4.5625,11.16875 4.6,11.16875 L4.6375,11.20625 L4.75,11.31875 C4.7875,11.39375 4.825,11.46875 4.825,11.46875 C4.825,11.46875 4.9375,11.76875 5.125,12.36875 C5.35450783,12.947174 5.68460105,13.4804015 6.1,13.94375 C6.39193972,14.2535423 6.6324751,14.6080155 6.8125,14.99375 C7.03467843,15.3954246 7.07558128,15.8726246 6.925,16.30625 C6.78006159,16.743044 6.47069596,17.1062124 6.0625,17.31875 C5.4896901,17.6244078 4.86781092,17.8274704 4.225,17.91875 C3.6921566,18.0081509 3.1659593,18.1334359 2.65,18.29375 C2.275,18.40625 2.0875,18.48125 2.0875,18.48125 C1.75532146,18.6684853 1.49232363,18.9577829 1.3375,19.30625 C1.15247543,19.6505963 1.07414899,20.0422286 1.1125,20.43125 C1.13921147,20.5412914 1.19049373,20.643856 1.2625,20.73125 C1.39378296,20.8526981 1.57315192,20.9078885 1.75,20.88125 L16.555,20.88125 C16.7300338,20.8897383 16.9025141,20.8366674 17.0425,20.73125 C17.10721,20.6393073 17.1577718,20.5381836 17.1925,20.43125 C17.230851,20.0422286 17.1525246,19.6505963 16.9675,19.30625 C16.9675,19.23125 16.93,19.19375 16.8925,19.11875 L16.8925,19.08125 C16.8182857,18.8839443 16.8975862,18.6619029 17.08,18.55625 C17.2582849,18.4556942 17.4835727,18.5039702 17.605,18.66875 C17.6425,18.74375 17.7175,18.85625 17.755,18.93125 Z M12.1675,11.84375 L14.23,14.28125 L18.9175,8.84375 C19.0580993,8.71692844 19.2711827,8.71481542 19.4142693,8.83882383 C19.557356,8.96283225 19.5855504,9.1740527 19.48,9.33125 L14.6425,14.91875 L14.605,14.95625 C14.5117534,15.0684823 14.3757338,15.1364921 14.23,15.14375 L14.1925,15.14375 C14.0446758,15.1449543 13.9052311,15.0752319 13.8175,14.95625 L11.605,12.33125 C11.4994496,12.1740527 11.527644,11.9628322 11.6707307,11.8388238 C11.8138173,11.7148154 12.0269007,11.7169284 12.1675,11.84375 Z M19.5175,11.54375 L19.5175,11.5625 C19.9735301,13.188197 19.6389667,14.9337002 18.6141403,16.2755591 C17.589314,17.617418 15.9934041,18.3995851 14.305,18.3875 C13.2201986,18.394694 12.1595464,18.0673322 11.2675,17.45 C8.79257402,15.7620797 8.15457982,12.3874261 9.84250007,9.91250005 C11.5304203,7.43757404 14.905074,6.79957979 17.38,8.4875 C17.4938784,8.56118603 17.5597954,8.69002813 17.5529206,8.82549274 C17.5460458,8.96095735 17.4674238,9.08246416 17.3466706,9.14424274 C17.2259174,9.20602132 17.0813784,9.19868603 16.9675,9.125 C15.9513233,8.41895322 14.6958007,8.14666884 13.478433,8.36832829 C12.2610652,8.58998773 11.1820947,9.28733876 10.48,10.30625 C9.02851883,12.4309232 9.56455256,15.3288555 11.68,16.79375 C13.2884664,17.9098085 15.4239378,17.8978934 17.0198501,16.7639557 C18.6157624,15.630018 19.3296657,13.6173774 18.805,11.73125 C18.7399602,11.5950513 18.7629123,11.4331342 18.8632421,11.320377 C18.9635719,11.2076198 19.1217231,11.1660011 19.2645591,11.2147673 C19.407395,11.2635335 19.5070741,11.3931792 19.5175,11.54375 Z" id="path-1"></path>
    </defs>
    <g id="Symbols" stroke="none" stroke-width="1" fill="none" fill-rule="evenodd">
        <g id="icon_identity">
            <g id="↳Colour" transform="translate(10.000000, 15.000000)">
                <mask id="mask-2" fill="white">
                    <use xlink:href="#path-1"></use>
                </mask>
                <use id="↳🎨Colour" fill="#272B33" xlink:href="#path-1"></use>
                <g id="Backgrounds/Style-Guide/grey-050" mask="url(#mask-2)" fill="#F9F9F9">
                    <g transform="translate(-2.000000, -1.000000)" id="grey-50">
                        <rect x="0" y="0" width="24" height="24"></rect>
                    </g>
                </g>
            </g>
        </g>
    </g>
</svg>