<?xml version="1.0" encoding="UTF-8"?>
<svg width="24px" height="24px" viewBox="0 0 24 24" version="1.1" xmlns="http://www.w3.org/2000/svg" xmlns:xlink="http://www.w3.org/1999/xlink">
    <!-- Generator: Sketch 48.2 (47327) - http://www.bohemiancoding.com/sketch -->
    <title>icon_heart</title>
    <desc>Created with Sketch.</desc>
    <defs>
        <path d="M9.3574672,17.4637649 C8.6849672,17.0137649 7.7349672,16.3137649 6.5074672,15.3637649 C5.24163248,14.3766519 4.07940953,13.2634308 3.0387172,12.0412649 C1.97488876,10.8208698 1.1104891,9.44010841 0.477467204,7.95001495 C-0.134850639,6.5523291 -0.159176702,4.96708064 0.409967204,3.55126495 C0.773289475,2.62415613 1.3779245,1.81107091 2.1612172,1.19626495 C2.93698769,0.57554878 3.86838402,0.17989992 4.8537172,0.0525149465 C4.9737172,0.0375149465 5.0987172,0.0262649465 5.2287172,0.0187649465 L5.6037172,0.0187649465 C7.29271032,0.00812181861 8.89167611,0.779224799 9.9349672,2.10751495 C10.0992366,2.31631192 10.2459852,2.53831614 10.3737172,2.77126495 C10.4992641,2.99941516 10.6082936,3.23627225 10.6999672,3.48001495 C10.7579712,3.63832105 10.8068022,3.79983891 10.8462172,3.96376495 C10.8837172,4.12126495 10.9174672,4.27501495 10.9474672,4.42501495 C10.9445803,4.44365382 10.9445803,4.46262607 10.9474672,4.48126495 C10.9637952,4.52357351 10.9825771,4.56489368 11.0037172,4.60501495 C11.0428467,4.68851815 11.1053775,4.75886526 11.1837172,4.80751495 C11.2584135,4.85240927 11.3440709,4.87577038 11.4312172,4.87501495 C11.5218046,4.87489015 11.6108627,4.85165761 11.6899672,4.80751495 C11.7776002,4.75662656 11.8451115,4.67720147 11.8812172,4.58251495 C11.8958451,4.49703368 11.9033708,4.41048808 11.9037172,4.32376495 L11.9037172,4.08751495 C11.8737172,3.89251495 11.8362172,3.69751495 11.7912172,3.50251495 C11.7450274,3.30353045 11.6848785,3.10804668 11.6112172,2.91751495 L11.4762172,2.60251495 L11.3524672,2.26876495 C11.2495124,2.10051376 11.209644,1.90117174 11.2399672,1.70626495 C11.2710573,1.50891442 11.3658843,1.32716269 11.5099672,1.18876495 L11.5324672,1.18876495 C12.0076066,0.802436239 12.5471056,0.502855641 13.1262172,0.303764946 C13.7111483,0.101256849 14.3259746,-0.00142548008 14.9449672,1.49464891e-05 C15.0703022,9.20742947e-05 15.1955222,0.00760527456 15.3199672,0.0225149465 L15.6949672,0.0675149465 C16.6679279,0.194634258 17.5861122,0.590739189 18.3462172,1.21126495 C19.1164562,1.82848688 19.7059164,2.64207153 20.0524672,3.56626495 C20.6100607,4.98733616 20.5831006,6.57124334 19.9774672,7.97251495 C19.3517684,9.46414222 18.4866285,10.8435528 17.4162172,12.0562649 C16.3696691,13.2694973 15.2079875,14.3784324 13.9474672,15.3675149 C12.7274672,16.3175149 11.7812172,17.0175149 11.1087172,17.4675149 C10.986838,17.5585695 10.8496883,17.6271443 10.7037172,17.6700149 C10.3963469,17.7594944 10.0698375,17.7594944 9.7624672,17.6700149 C9.61623465,17.6259998 9.47906861,17.5561467 9.3574672,17.4637649 L9.3574672,17.4637649 Z" id="path-1"></path>
    </defs>
    <g id="Symbols" stroke="none" stroke-width="1" fill="none" fill-rule="evenodd">
        <g id="icon_heart">
            <g id="↳Colour" transform="translate(2.000000, 3.000000)">
                <mask id="mask-2" fill="white">
                    <use xlink:href="#path-1"></use>
                </mask>
                <use id="↳🎨Colour" fill="#272B33" xlink:href="#path-1"></use>
                <g id="Backgrounds/Style-Guide/grey-800" mask="url(#mask-2)" fill="#272B33">
                    <g transform="translate(-2.000000, -3.000000)" id="grey-800">
                        <rect x="0" y="0" width="24" height="24"></rect>
                    </g>
                </g>
            </g>
            <rect id="Bounding-Box" x="0" y="0" width="24" height="24"></rect>
        </g>
    </g>
</svg>