<?xml version="1.0" encoding="UTF-8"?>
<svg width="40px" height="52px" viewBox="0 0 40 52" version="1.1" xmlns="http://www.w3.org/2000/svg" xmlns:xlink="http://www.w3.org/1999/xlink">
    <!-- Generator: Sketch 48.2 (47327) - http://www.bohemiancoding.com/sketch -->
    <title>icon_pulse-line</title>
    <desc>Created with Sketch.</desc>
    <defs>
        <path d="M28.1487814,32.1087814 C28.151795,32.6517358 27.9374399,33.1733245 27.5535072,33.5572572 C27.1695745,33.9411899 26.6479858,34.155545 26.1050314,34.1525314 L13.0437814,34.1525314 C12.5008269,34.155545 11.9792382,33.9411899 11.5953055,33.5572572 C11.2113728,33.1733245 10.9970177,32.6517358 11.0000314,32.1087814 L11.0000314,28.8537814 C11.0002815,28.7479645 11.0452266,28.6471785 11.1237814,28.5762814 C11.1999181,28.4988676 11.303951,28.455268 11.4125314,28.455268 C11.5211117,28.455268 11.6251446,28.4988676 11.7012814,28.5762814 C11.7838213,28.6506377 11.8291441,28.7577642 11.8250314,28.8687814 L11.8250314,32.1237814 C11.8230201,32.4516046 11.9523582,32.7665837 12.1841686,32.9983941 C12.415979,33.2302045 12.7309581,33.3595426 13.0587814,33.3575314 L26.1087814,33.3575314 C26.4366046,33.3595426 26.7515837,33.2302045 26.9833941,32.9983941 C27.2152045,32.7665837 27.3445426,32.4516046 27.3425314,32.1237814 L27.3425314,19.0437814 C27.3445426,18.7159581 27.2152045,18.400979 26.9833941,18.1691686 C26.7515837,17.9373582 26.4366046,17.8080201 26.1087814,17.8100314 L13.0437814,17.8100314 C12.7159581,17.8080201 12.400979,17.9373582 12.1691686,18.1691686 C11.9373582,18.400979 11.8080201,18.7159581 11.8100314,19.0437814 L11.8100314,22.2987814 C11.813676,22.4023333 11.7743125,22.5027781 11.7012814,22.5762814 C11.5443621,22.7277263 11.2957006,22.7277263 11.1387814,22.5762814 C11.0562414,22.501925 11.0109186,22.3947985 11.0150314,22.2837814 L11.0150314,19.0437814 C11.0120177,18.5008269 11.2263728,17.9792382 11.6103055,17.5953055 C11.9942382,17.2113728 12.5158269,16.9970177 13.0587814,17.0000314 L26.1087814,17.0000314 C26.6517358,16.9970177 27.1733245,17.2113728 27.5572572,17.5953055 C27.9411899,17.9792382 28.155545,18.5008269 28.1525314,19.0437814 L28.1487814,32.1087814 Z M11.4500314,25.8912814 C11.3390142,25.8953941 11.2318877,25.8500713 11.1575314,25.7675314 C11.0060864,25.6106121 11.0060864,25.3619506 11.1575314,25.2050314 C11.2318877,25.1224914 11.3390142,25.0771686 11.4500314,25.0812814 L15.4250314,25.0812814 C15.4957624,25.0770189 15.5630567,25.0493095 15.6162814,25.0025314 C15.6854293,24.947621 15.7364005,24.8731245 15.7625314,24.7887814 L16.8612814,20.7012814 L16.8612814,20.7012814 C16.9323512,20.5135137 17.0644077,20.3550459 17.2362814,20.2512814 C17.3954559,20.1465484 17.5885258,20.1063255 17.7762814,20.1387814 C17.9556863,20.1680754 18.1190141,20.2596983 18.2375314,20.3975314 C18.3533092,20.5366344 18.427408,20.7056317 18.4512814,20.8850314 L19.8425314,30.1550314 L19.8425314,30.1775314 C19.8558835,30.1888124 19.8640178,30.205081 19.8650314,30.2225314 L19.8650314,30.2000314 L21.3237814,25.8912814 C21.4028415,25.6508988 21.5565471,25.4420169 21.7625314,25.2950314 C21.9555579,25.1552794 22.1879766,25.0804327 22.4262814,25.0812814 L25.2537814,25.0812814 C25.4614133,25.1013304 25.6198553,25.2758087 25.6198553,25.4844064 C25.6198553,25.693004 25.4614133,25.8674823 25.2537814,25.8875314 L22.4262814,25.8875314 C22.3531675,25.8869767 22.2819397,25.9107193 22.2237814,25.9550314 C22.1589021,26.0069273 22.1117317,26.0776829 22.0887814,26.1575314 L20.6300314,30.4512814 L20.6300314,30.4737814 C20.5155205,30.7913809 20.2175523,31.005918 19.8800314,31.0137814 L19.7450314,31.0137814 C19.5656264,30.9844873 19.4022986,30.8928644 19.2837814,30.7550314 C19.1572846,30.6153391 19.081927,30.4368607 19.0700314,30.2487814 L17.6450314,20.9975314 C17.6494099,20.9867074 17.6494099,20.9746053 17.6450314,20.9637814 C17.6406528,20.9529574 17.6406528,20.9408553 17.6450314,20.9300314 L17.6450314,20.9525314 L16.5462814,25.0137814 C16.5329292,25.0250624 16.5247949,25.041331 16.5237814,25.0587814 C16.442956,25.301312 16.2898517,25.5133026 16.0850314,25.6662814 C15.894673,25.812473 15.6612985,25.891583 15.4212814,25.8912814 L11.4500314,25.8912814 Z" id="path-1"></path>
    </defs>
    <g id="Symbols" stroke="none" stroke-width="1" fill="none" fill-rule="evenodd">
        <g id="icon_pulse-line">
            <mask id="mask-2" fill="white">
                <use xlink:href="#path-1"></use>
            </mask>
            <use id="↳🎨Colour" fill="#F9F9F9" xlink:href="#path-1"></use>
        </g>
    </g>
</svg>