<?xml version="1.0" encoding="UTF-8"?>
<svg width="40px" height="52px" viewBox="0 0 40 52" version="1.1" xmlns="http://www.w3.org/2000/svg" xmlns:xlink="http://www.w3.org/1999/xlink">
    <!-- Generator: Sketch 48.2 (47327) - http://www.bohemiancoding.com/sketch -->
    <title>icon_pending-withdraw</title>
    <desc>Created with Sketch.</desc>
    <defs>
        <path d="M10,21 L2.00010618,21 C0.895478039,21 0,20.0980496 0,18.9914698 L0,11.0085302 C0,9.8992496 0.90009892,9 2,9 L2.5,9 C2.77614237,9 3,9.23193359 3,9.5 C3,9.77614237 2.76806641,10 2.5,10 L2.00104331,10 C1.45144489,10 1,10.4524777 1,11.0085302 L1,18.9914698 C1,19.5478431 1.44984271,20 2.00010618,20 L10,20 L10.5,20 C10.7761424,20 11,20.2319336 11,20.5 C11,20.7761424 10.7680664,21 10.5,21 L10,21 Z M9.81088283,9.87175468 L7.85105082,11.8450868 C7.65175899,12.0287569 7.32864307,12.0287569 7.12935124,11.8450868 L2.1605835,6.79974365 C1.96129166,6.61607353 1.96129166,6.31828542 2.1605835,6.1346153 C2.35987533,5.95094518 2.68299125,5.95094518 2.88228308,6.1346153 L7,10.3460378 L7,0.55009963 C7,0.246287993 7.22385763,0 7.5,0 C7.77614237,0 8,0.246287993 8,0.55009963 L8,10.33071 L12.1401779,6.1346153 C12.3394697,5.95094518 12.6625856,5.95094518 12.8618774,6.1346153 C13.0611693,6.31828542 13.0611693,6.61607353 12.8618774,6.79974365 L10.9298059,8.74512402 C10.5196333,9.08157454 10.1445512,9.45922584 9.81088283,9.87175468 Z M15.8496094,21 C12.3978297,21 9.59960938,18.2017797 9.59960938,14.75 C9.59960938,11.2982203 12.3978297,8.5 15.8496094,8.5 C19.3013891,8.5 22.0996094,11.2982203 22.0996094,14.75 C22.0996094,18.2017797 19.3013891,21 15.8496094,21 Z M15.8496094,20 C18.7491043,20 21.0996094,17.6494949 21.0996094,14.75 C21.0996094,11.8505051 18.7491043,9.5 15.8496094,9.5 C12.9501144,9.5 10.5996094,11.8505051 10.5996094,14.75 C10.5996094,17.6494949 12.9501144,20 15.8496094,20 Z M12.75,15.5 C12.3357864,15.5 12,15.1642136 12,14.75 C12,14.3357864 12.3357864,14 12.75,14 C13.1642136,14 13.5,14.3357864 13.5,14.75 C13.5,15.1642136 13.1642136,15.5 12.75,15.5 Z M15.75,15.5 C15.3357864,15.5 15,15.1642136 15,14.75 C15,14.3357864 15.3357864,14 15.75,14 C16.1642136,14 16.5,14.3357864 16.5,14.75 C16.5,15.1642136 16.1642136,15.5 15.75,15.5 Z M18.75,15.5 C18.3357864,15.5 18,15.1642136 18,14.75 C18,14.3357864 18.3357864,14 18.75,14 C19.1642136,14 19.5,14.3357864 19.5,14.75 C19.5,15.1642136 19.1642136,15.5 18.75,15.5 Z" id="path-1"></path>
    </defs>
    <g id="Symbols" stroke="none" stroke-width="1" fill="none" fill-rule="evenodd">
        <g id="icon_pending-withdraw">
            <g id="↳Colour" transform="translate(9.000000, 16.000000)">
                <mask id="mask-2" fill="white">
                    <use xlink:href="#path-1"></use>
                </mask>
                <use id="↳🎨Colour" fill="#282B33" xlink:href="#path-1"></use>
                <g id="Backgrounds/Style-Guide/grey-050" mask="url(#mask-2)" fill="#F9F9F9">
                    <g transform="translate(-1.000000, -1.000000)" id="grey-50">
                        <rect x="0" y="0" width="24" height="24"></rect>
                    </g>
                </g>
            </g>
        </g>
    </g>
</svg>