<?xml version="1.0" encoding="UTF-8"?>
<svg width="94px" height="64px" viewBox="0 0 94 64" version="1.1" xmlns="http://www.w3.org/2000/svg" xmlns:xlink="http://www.w3.org/1999/xlink">
    <!-- Generator: Sketch 48.2 (47327) - http://www.bohemiancoding.com/sketch -->
    <title>jackpot</title>
    <desc>Created with Sketch.</desc>
    <defs>
        <rect id="path-1" x="0" y="0" width="94" height="36" rx="18"></rect>
        <path d="M17.8443878,3.2222052 C18.1933639,3.22071476 18.5367994,3.30549702 18.8412628,3.46829895 C19.1462274,3.62917712 19.4093863,3.85346026 19.6112628,4.12454895 C19.8305283,4.44610519 19.9497263,4.82044105 19.9550128,5.2040802 C19.9645034,5.58641113 19.8530998,5.9626025 19.6353253,6.28361145 C19.4456807,6.5688728 19.1845945,6.80455918 18.8756378,6.9693927 C18.5691828,7.13742751 18.221867,7.22568429 17.8684503,7.2253302 L17.8272003,7.2253302 C17.7601793,7.22484491 17.6948871,7.24561969 17.6415753,7.2843927 C17.5874982,7.32249066 17.5506297,7.37879891 17.5384503,7.4418927 L16.8509503,10.2900177 C16.8057932,10.503146 16.6842404,10.6945916 16.5072003,10.8314239 C16.3216293,10.9689611 16.0924215,11.0418908 15.8575128,11.0381427 L4.10126281,11.0381427 C3.87296297,11.0400304 3.65090212,10.9670581 3.47220031,10.8314239 C3.2951602,10.6945916 3.17360742,10.503146 3.12845031,10.2900177 C3.05970031,9.9881427 2.99095031,9.70048645 2.92220031,9.42704895 C2.85345031,9.15361145 2.79157531,8.8922052 2.73657531,8.6428302 C2.66782531,8.3803302 2.60938781,8.14517395 2.56126281,7.93736145 L2.42032531,7.4418927 C2.40814594,7.37879891 2.37127744,7.32249066 2.31720031,7.2843927 C2.26388851,7.24561969 2.19859636,7.22484491 2.13157531,7.2253302 C1.85039753,7.22620488 1.5716038,7.17609836 1.31001281,7.07767395 C1.05150977,6.97647182 0.817515867,6.82570529 0.622512812,6.6347052 C0.401899995,6.42437353 0.232848797,6.1699963 0.127512812,5.88986145 C0.0151055481,5.60881679 -0.0238310248,5.30585163 0.0140753121,5.0072052 C0.0724388391,4.39747704 0.431020322,3.85055618 0.980012812,3.53392395 C1.15043991,3.43242436 1.33423422,3.35297983 1.52657531,3.29767395 C1.71063584,3.24530424 1.90169965,3.21877637 2.09376281,3.21892395 C2.29265325,3.21798268 2.49064059,3.2445073 2.68157531,3.29767395 C2.86538606,3.34937684 3.04197846,3.42209136 3.20751281,3.51423645 C3.91421085,3.94329638 4.29212935,4.72768206 4.17345031,5.5190802 C4.15890552,5.59496065 4.17753796,5.67321691 4.22501281,5.7356427 C4.26797855,5.79871513 4.34215878,5.83598271 4.42095031,5.8340802 C4.53363252,5.86088699 4.64873762,5.87736794 4.76470031,5.88329895 L5.10845031,5.88329895 L5.12907531,5.88329895 C5.94024625,5.88528176 6.74028013,5.70308098 7.46313781,5.35173645 C8.10085106,5.08674852 8.6264181,4.62437282 8.95501281,4.03923645 C8.9783458,3.97212996 8.9783458,3.89962418 8.95501281,3.8325177 C8.94193026,3.7697105 8.90039832,3.71565032 8.84157531,3.68486145 C8.55323762,3.49683441 8.31726004,3.24455294 8.15407531,2.94986145 C7.98979882,2.65731479 7.90472117,2.330217 7.90657531,1.99829895 C7.8994193,1.46556487 8.12336246,0.953719009 8.52532531,0.584080196 C8.90795565,0.208607356 9.43407524,-0.00222401487 9.98282531,1.76955851e-05 C10.0623477,-0.000253078756 10.141733,0.00633621651 10.2200128,0.0197051956 L10.4572003,0.0590801956 C11.2464732,0.209747426 11.863421,0.798652139 12.0212628,1.55204895 C12.1183392,1.95429253 12.0859917,2.37513741 11.9284503,2.75954895 C11.776881,3.13817014 11.4990666,3.45869989 11.1378253,3.67173645 C11.0714305,3.70809351 11.0231245,3.76839147 11.0037628,3.8390802 C10.9817986,3.90253245 10.9933235,3.97220581 11.0347003,4.02611145 C11.3453043,4.62258623 11.8662486,5.09545273 12.5059503,5.3615802 C13.2355655,5.71453851 14.0426825,5.89674234 14.8606378,5.8931427 L15.2043878,5.8931427 C15.3203505,5.88721169 15.4354556,5.87073074 15.5481378,5.84392395 C15.6257926,5.83373557 15.6961527,5.79485233 15.7440753,5.7356427 C15.7922598,5.67732089 15.8111184,5.60171508 15.7956378,5.52892395 C15.7406369,5.22055671 15.7654182,4.90403105 15.8678253,4.6068927 C15.9682373,4.31071824 16.1415087,4.04181014 16.3731378,3.82267395 C16.5745195,3.64165119 16.8070933,3.49512969 17.0606378,3.38954895 C17.3071377,3.28315853 17.5738934,3.22620173 17.8443878,3.2222052 L17.8443878,3.2222052 Z M16.2803253,12.6492364 L15.5928253,15.5170489 C15.5524194,15.6733617 15.4579507,15.812092 15.3247003,15.9107989 C15.1908292,16.0147955 15.0229108,16.070547 14.8503253,16.0682989 L5.10845031,16.0682989 C4.93661655,16.0688532 4.77000123,16.0119696 4.63751281,15.9075177 C4.5042624,15.8088107 4.4097937,15.6700805 4.36938781,15.5137677 C4.340851,15.3381407 4.30298975,15.1640103 4.25595031,14.9920489 C4.20782531,14.8148614 4.16313781,14.6278302 4.12188781,14.4309552 C4.05313781,14.1553302 3.98438781,13.8643927 3.91563781,13.5581427 L3.70938781,12.6459552 C3.68531464,12.5688815 3.68531464,12.4867789 3.70938781,12.4097052 C3.7326696,12.3253086 3.77104606,12.2453841 3.82282531,12.1734552 C3.8772613,12.108255 3.94826049,12.0574261 4.02907531,12.0257989 C4.10729306,11.9937469 4.19145589,11.97701 4.27657531,11.9765802 L15.7062628,11.9765802 C15.7913822,11.97701 15.8755451,11.9937469 15.9537628,12.0257989 C16.0345776,12.0574261 16.1055768,12.108255 16.1600128,12.1734552 C16.215351,12.2397193 16.2541452,12.3171475 16.2734503,12.3998614 C16.2932254,12.4817068 16.2955634,12.5665115 16.2803253,12.6492364 L16.2803253,12.6492364 Z" id="path-3"></path>
    </defs>
    <g id="Symbols" stroke="none" stroke-width="1" fill="none" fill-rule="evenodd">
        <g id="jackpot">
            <g id="Group-2" transform="translate(0.000000, 14.000000)">
                <g id="Border-Radius/Pillbox">
                    <mask id="mask-2" fill="white">
                        <use xlink:href="#path-1"></use>
                    </mask>
                    <g id="Mask"></g>
                    <g id="Backgrounds/Sketch-Only/Tab-BG" mask="url(#mask-2)" fill="#7C848C" fill-rule="evenodd">
                        <rect id="Container" x="0" y="0" width="94" height="36"></rect>
                    </g>
                </g>
                <g id="Group" transform="translate(60.000000, 2.000000)">
                    <circle id="Oval-4" fill="#60666E" cx="16" cy="16" r="16"></circle>
                    <g id="Icons/UI/Crown-Fill" transform="translate(5.000000, 5.000000)">
                        <g id="↳Colour" stroke-width="1" fill-rule="evenodd" transform="translate(0.916667, 2.625000)">
                            <mask id="mask-4" fill="white">
                                <use xlink:href="#path-3"></use>
                            </mask>
                            <use id="↳🎨Colour" fill="#272B33" xlink:href="#path-3"></use>
                            <g id="Backgrounds/Sketch-Only/Header-Icons" mask="url(#mask-4)" fill="#FFFFFF">
                                <g transform="translate(-0.916667, -2.625000)" id="grey-900-opacity-3">
                                    <rect x="0" y="0" width="22" height="21"></rect>
                                </g>
                            </g>
                        </g>
                        <rect id="Bounding-Box" x="0" y="0" width="22" height="21"></rect>
                    </g>
                </g>
            </g>
        </g>
    </g>
</svg>