<?xml version="1.0" encoding="UTF-8"?>
<svg width="44px" height="44px" viewBox="0 0 44 44" version="1.1" xmlns="http://www.w3.org/2000/svg" xmlns:xlink="http://www.w3.org/1999/xlink">
    <!-- Generator: Sketch 48.2 (47327) - http://www.bohemiancoding.com/sketch -->
    <title>menu-mobile</title>
    <desc>Created with Sketch.</desc>
    <defs>
        <path d="M0.366073988,0.80625 C0.158442063,0.786200927 0,0.611722655 0,0.403125 C0,0.194527345 0.158442063,0.0200490734 0.366073988,0 L16.438574,0 C16.6462059,0.0200490734 16.804648,0.194527345 16.804648,0.403125 C16.804648,0.611722655 16.6462059,0.786200927 16.438574,0.80625 L0.366073988,0.80625 Z M0.366073988,5.565 C0.158442063,5.54495093 0,5.37047266 0,5.161875 C0,4.95327734 0.158442063,4.77879907 0.366073988,4.75875 L16.438574,4.75875 C16.6462059,4.77879907 16.804648,4.95327734 16.804648,5.161875 C16.804648,5.37047266 16.6462059,5.54495093 16.438574,5.565 L0.366073988,5.565 Z M0.366073988,10.36875 C0.158442063,10.3487009 7.10542736e-15,10.1742227 7.10542736e-15,9.965625 C7.10542736e-15,9.75702734 0.158442063,9.58254907 0.366073988,9.5625 L16.438574,9.5625 C16.6462059,9.58254907 16.804648,9.75702734 16.804648,9.965625 C16.804648,10.1742227 16.6462059,10.3487009 16.438574,10.36875 L0.366073988,10.36875 Z" id="path-1"></path>
    </defs>
    <g id="Symbols" stroke="none" stroke-width="1" fill="none" fill-rule="evenodd">
        <g id="menu-mobile">
            <g id="Icons/UI/Bars" transform="translate(10.000000, 10.000000)">
                <g id="↳Colour" stroke-width="1" fill-rule="evenodd" transform="translate(4.000000, 7.000000)">
                    <mask id="mask-2" fill="white">
                        <use xlink:href="#path-1"></use>
                    </mask>
                    <use id="↳🎨Colour" fill="#272B33" xlink:href="#path-1"></use>
                    <g id="Backgrounds/Sketch-Only/Header-Icons" mask="url(#mask-2)" fill="#FFFFFF">
                        <g transform="translate(-4.000000, -7.000000)" id="grey-900-opacity-3">
                            <rect x="0" y="0" width="24" height="24"></rect>
                        </g>
                    </g>
                </g>
                <rect id="Bounding-Box" x="0" y="0" width="24" height="24"></rect>
            </g>
        </g>
    </g>
</svg>