<?xml version="1.0" encoding="UTF-8"?>
<svg width="54px" height="64px" viewBox="0 0 54 64" version="1.1" xmlns="http://www.w3.org/2000/svg" xmlns:xlink="http://www.w3.org/1999/xlink">
    <!-- Generator: Sketch 48.2 (47327) - http://www.bohemiancoding.com/sketch -->
    <title>mygames</title>
    <desc>Created with Sketch.</desc>
    <defs>
        <path d="M6.4439865,15.077627 C5.19114619,14.0959115 4.03694293,12.9944575 2.9977365,11.788877 C1.94799913,10.5916592 1.09603697,9.2345961 0.473986501,7.76887704 C-0.129445319,6.39877674 -0.157815376,4.84382739 0.395236501,3.45262704 C0.574067072,3.0062516 0.808411585,2.5841795 1.0927365,2.19637704 C1.37428506,1.81039928 1.70594615,1.46360537 2.0789865,1.16512704 C2.46206104,0.865599763 2.88012767,0.613752398 3.3239865,0.415127039 C3.76325061,0.223534935 4.22816793,0.097198706 4.7039865,0.040127039 C5.92247595,-0.107891267 7.15545229,0.156129362 8.2064865,0.790127039 C8.70194806,1.09167866 9.14520607,1.47161409 9.5189865,1.91512704 C9.89988303,2.36328759 10.2062889,2.86974362 10.4264865,3.41512704 C10.5013311,3.62442935 10.5614772,3.8386999 10.6064865,4.05637704 C10.6514865,4.27387704 10.6889865,4.48762704 10.7189865,4.69762704 C10.7319459,4.80348918 10.699216,4.90986148 10.6289865,4.99012704 C10.5626024,5.07540975 10.4658983,5.13182046 10.3589865,5.14762704 C10.2488948,5.15122881 10.1411488,5.11531346 10.0552365,5.04637704 C9.97455564,4.98254498 9.92206166,4.88967102 9.9089865,4.78762704 C9.89740747,4.59047915 9.86854672,4.39472802 9.8227365,4.20262704 C9.7813396,4.03144636 9.73127511,3.8624787 9.6727365,3.69637704 C9.49726408,3.23399772 9.24356525,2.8052467 8.9227365,2.42887704 C8.60027313,2.05407705 8.22058704,1.7326095 7.7977365,1.47637704 C7.35776155,1.21004992 6.87599737,1.01987985 6.3727365,0.913877039 C5.86719457,0.808894757 5.34803362,0.786102325 4.8352365,0.846377039 C4.02069532,0.946540894 3.25041828,1.27257721 2.6114865,1.78762704 C1.95871106,2.29443676 1.45687844,2.97003053 1.1602365,3.74137704 C0.950741757,4.29360977 0.843986294,4.87949392 0.845236501,5.47012704 C0.850368345,6.10879458 0.960591721,6.74226225 1.1714865,7.34512704 C1.41512268,8.04453203 1.74250252,8.71188324 2.1464865,9.33262704 C2.63062755,10.0800933 3.17093689,10.7896411 3.7627365,11.455127 C4.3002365,12.052627 4.8614865,12.621377 5.4464865,13.161377 C6.0314865,13.701377 6.5927365,14.187627 7.1302365,14.620127 C7.6677365,15.055127 8.1677365,15.430127 8.6302365,15.745127 C9.0927365,16.060127 9.4552365,16.310127 9.7177365,16.495127 C9.9177365,16.645127 10.1927365,16.645127 10.3927365,16.495127 C10.6627365,16.315127 11.0252365,16.065127 11.4802365,15.745127 C11.9352365,15.425127 12.4352365,15.050127 12.9802365,14.620127 C13.5177365,14.185127 14.0789865,13.698877 14.6639865,13.161377 C15.2489865,12.623877 15.8102365,12.055127 16.3477365,11.455127 C16.9445006,10.7977479 17.4851414,10.0915281 17.9639865,9.34387704 C18.3667666,8.71846177 18.6940467,8.04753755 18.9389865,7.34512704 C19.1498813,6.74226225 19.2601047,6.10879458 19.2652365,5.47012704 C19.2664867,4.87949392 19.1597312,4.29360977 18.9502365,3.74137704 C18.8114261,3.36865042 18.6180699,3.01858732 18.3764865,2.70262704 C18.1344102,2.3751305 17.8564288,2.07576592 17.5477365,1.81012704 C17.2336135,1.55508658 16.8867884,1.34320797 16.5164865,1.18012704 C16.1532358,1.0182375 15.7676518,0.912043875 15.3727365,0.865127039 C14.6510507,0.743091607 13.9104009,0.801055499 13.2164865,1.03387704 C12.5260435,1.26673914 11.9020888,1.66298256 11.3977365,2.18887704 C11.3227706,2.26386154 11.2224172,2.30801705 11.1164865,2.31262704 C11.0077294,2.32226874 10.9016046,2.27557382 10.8352365,2.18887704 C10.7484758,2.12160227 10.6984588,2.01740022 10.7002365,1.90762704 C10.696519,1.80222842 10.7373558,1.70013641 10.8127365,1.62637704 C11.409066,1.0090699 12.1445862,0.543583363 12.9577365,0.268877039 C13.7696322,0.000882157881 14.634695,-0.0647699234 15.4777365,0.077627039 C16.4216915,0.20734899 17.3110275,0.596839186 18.0464865,1.20262704 C18.7930497,1.80360293 19.3631779,2.59530372 19.6964865,3.49387704 C20.2508284,4.88225977 20.2224415,6.43542794 19.6177365,7.80262704 C18.9915855,9.27102378 18.1358995,10.6305014 17.0827365,11.830127 C16.0437203,13.0358883 14.8894986,14.13736 13.6364865,15.118877 C12.4239865,16.061377 11.4889865,16.750127 10.8314865,17.185127 C10.713962,17.2595966 10.5881004,17.3200102 10.4564865,17.365127 C10.1951761,17.4545559 9.91154695,17.4545559 9.6502365,17.365127 C9.51366255,17.3137374 9.38393638,17.2457256 9.2639865,17.162627 C8.6039865,16.730127 7.6639865,16.035127 6.4439865,15.077627 Z" id="path-1"></path>
    </defs>
    <g id="Symbols" stroke="none" stroke-width="1" fill="none" fill-rule="evenodd">
        <g id="mygames">
            <g id="Group" transform="translate(-3.000000, 10.000000)">
                <text id="My-Games" font-family="MuseoSans-500, Museo Sans" font-size="12" font-weight="normal" line-spacing="16" letter-spacing="-0.5" fill="#F9F9F9">
                    <tspan x="2.972" y="39">My Games</tspan>
                </text>
                <g id="Icons/UI/Heart-Line" transform="translate(18.000000, 0.000000)">
                    <g id="↳Colour" stroke-width="1" fill-rule="evenodd" transform="translate(2.000000, 4.000000)">
                        <mask id="mask-2" fill="white">
                            <use xlink:href="#path-1"></use>
                        </mask>
                        <use id="↳🎨Colour" fill="#272B33" xlink:href="#path-1"></use>
                        <g id="Backgrounds/Sketch-Only/Header-Icons" mask="url(#mask-2)" fill="#FFFFFF">
                            <g transform="translate(-2.000000, -4.000000)" id="grey-900-opacity-3">
                                <rect x="0" y="0" width="24" height="24"></rect>
                            </g>
                        </g>
                    </g>
                    <rect id="Bounding-Box" x="0" y="0" width="24" height="24"></rect>
                </g>
            </g>
        </g>
    </g>
</svg>