<?xml version="1.0" encoding="UTF-8"?>
<svg width="44px" height="44px" viewBox="0 0 44 44" version="1.1" xmlns="http://www.w3.org/2000/svg" xmlns:xlink="http://www.w3.org/1999/xlink">
    <!-- Generator: Sketch 48.2 (47327) - http://www.bohemiancoding.com/sketch -->
    <title>mywallet-mobile</title>
    <desc>Created with Sketch.</desc>
    <defs>
        <path d="M1.3901,5.749 C1.2851,5.749 1.1871,5.711 1.1141,5.644 C1.0431,5.579 1.0041,5.494 1.0041,5.403 C1.0041,5.313 1.0431,5.228 1.1131,5.163 L6.1001,0.101 C6.1691,0.037 6.2671,0 6.3721,0 C6.4771,0 6.5751,0.037 6.6491,0.104 L11.6381,5.159 C11.7121,5.228 11.7511,5.313 11.7511,5.403 C11.7511,5.494 11.7121,5.579 11.6421,5.644 C11.5681,5.711 11.4711,5.749 11.3661,5.749 C11.2611,5.749 11.1631,5.711 11.0901,5.644 L6.7471,1.214 L6.7501,13.384 C6.7501,13.582 6.5781,13.75 6.3751,13.75 C6.1721,13.75 6.0001,13.582 6.0001,13.384 L5.9971,1.215 L1.6611,5.648 C1.5931,5.711 1.4941,5.749 1.3901,5.749 Z M16.875,11.0004 C17.909,11.0004 18.75,11.8404 18.75,12.8734 L18.75,14.8774 C18.75,15.9104 17.91,16.7504 16.877,16.7504 L16.752,16.7504 L16.75,17.8664 C16.75,18.9054 15.909,19.7504 14.875,19.7504 L1.875,19.7504 C0.841,19.7504 0,18.9054 0,17.8664 L0,9.8834 C0,8.8454 0.842,8.0004 1.876,8.0004 L3.37,8.0004 C3.576,8.0004 3.75,8.1714 3.75,8.3754 C3.75,8.5884 3.587,8.7504 3.37,8.7504 L1.876,8.7504 C1.255,8.7504 0.75,9.2584 0.75,9.8834 L0.75,17.8664 C0.75,18.4914 1.255,19.0004 1.875,19.0004 L14.875,19.0004 C15.495,19.0004 16,18.4914 16,17.8664 L16,16.7504 L13.876,16.7504 C12.291,16.7504 11,15.4604 11,13.8754 C11,12.2894 12.291,11.0004 13.876,11.0004 L16,11.0004 L16,9.8834 C16,9.2584 15.499,8.7504 14.882,8.7504 L9.379,8.7504 C9.174,8.7504 9,8.5784 9,8.3754 C9,8.1614 9.163,8.0004 9.379,8.0004 L14.882,8.0004 C15.912,8.0004 16.75,8.8454 16.75,9.8834 L16.75,11.0004 L16.875,11.0004 Z M18,14.8774 L18,12.8734 C18,12.2534 17.496,11.7504 16.877,11.7504 L13.876,11.7504 C12.704,11.7504 11.75,12.7034 11.75,13.8754 C11.75,15.0464 12.704,16.0004 13.876,16.0004 L16.877,16.0004 C17.496,16.0004 18,15.4964 18,14.8774 Z M13.875,13.125 C14.289,13.125 14.625,13.461 14.625,13.875 C14.625,14.29 14.289,14.625 13.875,14.625 C13.46,14.625 13.125,14.29 13.125,13.875 C13.125,13.461 13.46,13.125 13.875,13.125 Z" id="path-1"></path>
    </defs>
    <g id="Symbols" stroke="none" stroke-width="1" fill="none" fill-rule="evenodd">
        <g id="mywallet-mobile">
            <g id="Icons/UI/Deposit-Line" transform="translate(10.000000, 10.000000)">
                <g id="↳Colour" stroke-width="1" fill-rule="evenodd" transform="translate(3.000000, 2.000000)">
                    <mask id="mask-2" fill="white">
                        <use xlink:href="#path-1"></use>
                    </mask>
                    <use id="↳🎨Colour" fill="#000000" xlink:href="#path-1"></use>
                    <g id="Backgrounds/Sketch-Only/Header-Icons" mask="url(#mask-2)" fill="#FFFFFF">
                        <g transform="translate(-3.000000, -2.000000)" id="grey-900-opacity-3">
                            <rect x="0" y="0" width="24" height="24"></rect>
                        </g>
                    </g>
                </g>
                <rect id="Bounding-Box" x="0" y="0" width="24" height="24"></rect>
            </g>
        </g>
    </g>
</svg>