<svg xmlns="http://www.w3.org/2000/svg" xmlns:xlink="http://www.w3.org/1999/xlink" width="28" height="24" viewBox="0 0 28 24">
    <defs>
        <path id="a" d="M.258 6.366c.089-.135.208-.246.348-.326.143-.083.3-.14.462-.17l9.105-1.233h.157c.303-.004.596.11.818.315.222.193.37.459.416.75l1.729 12.57c.047.33-.042.667-.248.93-.19.266-.482.441-.806.484L3.126 20.92h-.18c-.295 0-.58-.113-.795-.315a1.253 1.253 0 0 1-.416-.75L.014 7.288a1.103 1.103 0 0 1 .034-.495c.036-.156.108-.302.21-.427zm.63.472a.986.986 0 0 0-.068.17.611.611 0 0 0-.022.168l1.728 12.57c.015.104.067.2.147.27a.405.405 0 0 0 .28.112h.068l9.113-1.256a.375.375 0 0 0 .289-.154.454.454 0 0 0 .078-.326L10.765 5.807a.439.439 0 0 0-.146-.27.405.405 0 0 0-.281-.112h-.068L1.173 6.68a.75.75 0 0 0-.158.056.529.529 0 0 0-.127.101zm5.947 8.798l-2.31-2.543a.263.263 0 0 1-.079-.157.487.487 0 0 1 0-.18l1.5-3.098a.218.218 0 0 1 .09-.112.566.566 0 0 1 .135-.068c.05.001.1.009.147.023.05.014.095.046.123.09l2.333 2.512a.499.499 0 0 1 .067.158.255.255 0 0 1-.022.18L7.36 15.538a.491.491 0 0 1-.101.113.375.375 0 0 1-.146.067H7.06a.33.33 0 0 1-.124-.022.3.3 0 0 1-.1-.06zm13.2-14.498c.322.042.613.213.806.473.205.25.295.576.248.896l-1.541 11.94c-.039.3-.187.575-.417.773-.225.2-.516.307-.817.303h-.068a.199.199 0 0 1-.09-.022l-4.09-.533a.398.398 0 0 1-.282-.157.375.375 0 0 1 .079-.551.416.416 0 0 1 .315-.08l4.083.54a.394.394 0 0 0 .315-.09.42.42 0 0 0 .158-.27l1.564-11.965a.416.416 0 0 0-.08-.304.375.375 0 0 0-.295-.169L11.39.823a.416.416 0 0 0-.303.08.375.375 0 0 0-.17.28l-.265 2.16a.397.397 0 0 1-.158.282.416.416 0 0 1-.322.093.405.405 0 0 1-.338-.45l.293-2.2c.04-.32.206-.61.46-.807.255-.207.584-.297.908-.248l8.54 1.125zm-5.704 8.46c-.412-.402-.799-.829-1.158-1.278-.583-.688-.708-1.34-.375-1.954.103-.194.259-.353.45-.461.183-.11.393-.168.607-.17h.068c.22.014.433.084.618.203.182.114.327.278.417.473.146-.164.338-.282.55-.338.218-.06.447-.06.665 0 .208.058.396.176.54.338.146.158.247.352.292.562.165.703-.134 1.298-.896 1.785-.763.488-1.263.783-1.5.885a.075.075 0 0 1-.056.023h-.057a.199.199 0 0 1-.09-.023.262.262 0 0 1-.075-.045z"/>
    </defs>
    <g fill="none" fill-rule="evenodd">
        <use fill="#272B33" transform="translate(2.154 2)" xlink:href="#a"/>
        <path d="M.154 0h24v24h-24z"/>
    </g>
</svg>
