<svg xmlns="http://www.w3.org/2000/svg" xmlns:xlink="http://www.w3.org/1999/xlink" width="29" height="24" viewBox="0 0 29 24">
    <defs>
        <path id="a" d="M.118 13.886a.422.422 0 0 1 0-.587l6.257-6.256L.118.786a.422.422 0 0 1 0-.586.391.391 0 0 1 .587 0l6.256 6.256L13.296.121a.415.415 0 0 1 .587.587l-6.296 6.32 6.296 6.318a.422.422 0 0 1 0 .587.223.223 0 0 1-.13.094.637.637 0 0 1-.175.023.555.555 0 0 1-.153-.023.223.223 0 0 1-.129-.094l-6.319-6.32L.721 13.87a.285.285 0 0 1-.13.106.391.391 0 0 1-.328 0 .285.285 0 0 1-.145-.09z"/>
    </defs>
    <g fill="none" fill-rule="evenodd">
        <use fill="#272B33" transform="translate(5.615 6)" xlink:href="#a"/>
        <path d="M.615 0h24v24h-24z"/>
    </g>
</svg>
