<?xml version="1.0" encoding="UTF-8"?>
<svg width="32px" height="32px" viewBox="0 0 32 32" version="1.1" xmlns="http://www.w3.org/2000/svg" xmlns:xlink="http://www.w3.org/1999/xlink">
    <!-- Generator: Sketch 49.2 (51160) - http://www.bohemiancoding.com/sketch -->
    <title>deposit-fill</title>
    <desc>Created with Sketch.</desc>
    <defs></defs>
    <g id="deposit-fill" stroke="none" stroke-width="1" fill="none" fill-rule="evenodd">
        <path d="M15.4142983,13.3333333 L14.5,13.3333333 L14.5,18.3832452 C14.5,18.6244429 14.7052028,18.8333333 14.9583333,18.8333333 C15.2040609,18.8333333 15.4166667,18.631822 15.4166667,18.3832452 L15.4166667,13.3333333 L22.5779872,13.3333333 C23.6313624,13.3333333 24.4950426,14.1476416 24.5769757,15.1666667 L21.8422828,15.1666667 C19.805483,15.1666667 18.1666667,16.8082893 18.1666667,18.8333333 C18.1666667,20.8542569 19.812296,22.5 21.8422828,22.5 L24.5770141,22.5 C24.4949825,23.5259722 23.6247389,24.3333333 22.5779872,24.3333333 L11.0053461,24.3333333 C9.89782403,24.3333333 9,23.4331572 9,22.3413163 L9,15.3253504 C9,14.2251897 9.90518268,13.3333333 11.0053461,13.3333333 L14.4976316,13.3333333 L14.4976316,7.50946747 L10.7195053,11.3725764 C10.5368211,11.5409407 10.2406315,11.5409407 10.0579473,11.3725764 C9.87526317,11.2042121 9.87526317,10.9312397 10.0579473,10.7628754 L14.625186,6.12627321 C14.8078701,5.95790893 15.1040597,5.95790893 15.2867439,6.12627321 L19.8639505,10.7628754 C20.0466347,10.9312397 20.0466347,11.2042121 19.8639505,11.3725764 C19.6812663,11.5409407 19.3850768,11.5409407 19.2023926,11.3725764 L15.4142983,7.50836738 L15.4142983,13.3333333 Z M19.0833333,18.8333333 C19.0833333,17.3145503 20.3107685,16.0833333 21.83486,16.0833333 L24.4128011,16.0833333 C25.5195055,16.0833333 26.4166667,16.9792442 26.4166667,18.0845181 L26.4166667,19.5821486 C26.4166667,20.6873724 25.5174561,21.5833333 24.4128011,21.5833333 L21.83486,21.5833333 C20.3152338,21.5833333 19.0833333,20.349026 19.0833333,18.8333333 Z M21.8333333,19.75 C22.3395944,19.75 22.75,19.3395944 22.75,18.8333333 C22.75,18.3270723 22.3395944,17.9166667 21.8333333,17.9166667 C21.3270723,17.9166667 20.9166667,18.3270723 20.9166667,18.8333333 C20.9166667,19.3395944 21.3270723,19.75 21.8333333,19.75 Z" id="path-3" fill="#FFFFFF" fill-rule="nonzero"></path>
    </g>
</svg>