<svg xmlns="http://www.w3.org/2000/svg" xmlns:xlink="http://www.w3.org/1999/xlink" width="28" height="24" viewBox="0 0 28 24">
    <defs>
        <path id="a" d="M8.815 17.978L.35 7.654A1.463 1.463 0 0 1 .24 5.903l3-5.142A.019.019 0 0 1 3.26.74c.154-.229.363-.415.608-.54.244-.13.517-.198.795-.199h10.5c.281 0 .558.07.806.203.245.125.454.311.607.54a.019.019 0 0 1 .023.022l3 5.141c.356.544.31 1.258-.113 1.752l-8.475 10.32V18a1.5 1.5 0 0 1-.495.375c-.384.18-.827.18-1.21 0A1.5 1.5 0 0 1 8.81 18l.004-.022zM.914 6.353a.66.66 0 0 0-.102.375.6.6 0 0 0 .147.375.019.019 0 0 0 .022.022L9.42 17.464c.059.074.136.132.225.169a.675.675 0 0 0 .54 0 .559.559 0 0 0 .225-.17l8.437-10.327a.019.019 0 0 0 .023-.022.6.6 0 0 0 .146-.375.66.66 0 0 0-.101-.375V6.34 6.32l-3-5.13a.75.75 0 0 0-.315-.281.941.941 0 0 0-.435-.102h-10.5a.941.941 0 0 0-.428.102.75.75 0 0 0-.315.28l-3 5.142a.019.019 0 0 0-.007.023zm1.278.828a.375.375 0 0 1-.292-.123.405.405 0 0 1 0-.563.375.375 0 0 1 .292-.124h15.465a.405.405 0 0 1 0 .807L2.192 7.18zM5.83 5.385a.375.375 0 0 1-.18-.54l1.616-3.322a.409.409 0 0 1 .248-.203.375.375 0 0 1 .292.023c.1.04.178.122.214.225.041.1.041.214 0 .315L6.38 5.205a.323.323 0 0 1-.146.169.431.431 0 0 1-.214.056h-.09l-.101-.045zm8.25 2.94c.098.052.171.14.202.248a.458.458 0 0 1-.022.315l-3.971 7.54a.064.064 0 0 0-.023.046h-.022a.019.019 0 0 1-.023.022v.023H10.2h-.023v.022a.064.064 0 0 0-.045.023h-.022v.022h-.083v.023H9.96v.022H9.89v-.022h-.09v-.023h-.045l-.022-.022H9.71l-.022-.023h-.023v-.022a.064.064 0 0 1-.045-.023v-.022a.019.019 0 0 1-.022-.023h-.023a.064.064 0 0 0-.022-.045v-.022L5.65 8.873a.375.375 0 0 1-.023-.293.409.409 0 0 1 .203-.247.375.375 0 0 1 .292-.023.409.409 0 0 1 .248.203l3.544 6.84 3.615-6.855a.337.337 0 0 1 .236-.203.416.416 0 0 1 .3.034l.015-.004zm-.54-3.12L11.9 1.883a.416.416 0 0 1 0-.315.375.375 0 0 1 .214-.225.375.375 0 0 1 .292-.023.409.409 0 0 1 .248.203l1.616 3.322c.041.1.041.214 0 .315-.03.098-.1.18-.191.225l-.09.034h-.09a.431.431 0 0 1-.214-.056.323.323 0 0 1-.157-.154l.01-.004z"/>
    </defs>
    <g fill="none" fill-rule="evenodd">
        <use fill="#272B33" transform="translate(2.154 3)" xlink:href="#a"/>
        <path d="M.154 0h24v24h-24z"/>
    </g>
</svg>
