<svg xmlns="http://www.w3.org/2000/svg" xmlns:xlink="http://www.w3.org/1999/xlink" width="28" height="24" viewBox="0 0 28 24">
    <defs>
        <path id="a" d="M14.267 7.968c.405.095.753.35.964.709.22.35.285.777.18 1.177l-2.407 9.919c-.08.342-.275.646-.552.862a1.5 1.5 0 0 1-.948.345h-.18l-.195-.063-9.945-2.423a1.406 1.406 0 0 1-.953-.686A1.586 1.586 0 0 1 .04 16.63l2.422-9.945c.085-.333.279-.63.552-.84a1.5 1.5 0 0 1 .952-.326h.18l.203.034 9.918 2.415zm.375 1.684a.713.713 0 0 0-.09-.552.776.776 0 0 0-.45-.348L4.146 6.355a.199.199 0 0 0-.09-.022h-.09a.75.75 0 0 0-.712.555l-2.43 9.945a.712.712 0 0 0 .09.551.78.78 0 0 0 .465.345l9.922 2.4a.199.199 0 0 0 .09.023h.113a.701.701 0 0 0 .46-.158.773.773 0 0 0 .26-.405l2.418-9.937zm-8.05-.855c.206.3.283.672.213 1.031-.06.36-.268.677-.574.874a1.361 1.361 0 0 1-1.031.213 1.286 1.286 0 0 1-.874-.573 1.361 1.361 0 0 1-.214-1.032c.06-.359.268-.676.574-.873a1.361 1.361 0 0 1 1.031-.207c.358.058.676.263.874.567zm2.332 3.817c.206.301.283.673.213 1.031-.059.36-.267.677-.573.874a1.361 1.361 0 0 1-1.032.214 1.286 1.286 0 0 1-.873-.574 1.256 1.256 0 0 1-.225-1.02c.067-.358.272-.675.57-.885a1.342 1.342 0 0 1 1.02-.214c.367.06.693.267.903.574h-.003zm13.308-1.976a1.181 1.181 0 0 1-.18.9 1.268 1.268 0 0 1-.326.337 1.08 1.08 0 0 1-.416.18l-1.661.338c-1.093.225-2.218.465-3.375.72h-.09a.375.375 0 0 1-.248-.09.472.472 0 0 1-.157-.225.446.446 0 0 1 .067-.315.427.427 0 0 1 .248-.18l3.393-.698c1.085-.225 1.635-.35 1.65-.375a.225.225 0 0 0 .147-.045.491.491 0 0 0 .1-.112.345.345 0 0 0 .057-.135.278.278 0 0 0 0-.135l-2.01-9.698a.619.619 0 0 0-.052-.13.326.326 0 0 0-.102-.102.349.349 0 0 0-.146-.056h-.146l-9.701 2.01a.24.24 0 0 0-.135.045.401.401 0 0 0-.113.112l-.045.135a.278.278 0 0 0 0 .158l.375 1.818a.405.405 0 0 1-.067.293.427.427 0 0 1-.248.18.446.446 0 0 1-.315-.068.435.435 0 0 1-.18-.27L8.22 3.434a1.432 1.432 0 0 1 0-.472 1.125 1.125 0 0 1 .934-.922l9.67-2.018c.311-.06.633.005.897.18.126.08.234.188.315.315.087.129.149.274.18.427l2.017 9.694zM9.33 16.068c.306-.21.686-.286 1.05-.21.742.146 1.231.86 1.098 1.605-.066.36-.277.676-.585.874-.29.22-.663.301-1.02.225a1.403 1.403 0 0 1-.9-.582 1.342 1.342 0 0 1-.213-1.02c.06-.362.267-.684.57-.892zm7.545-10.144a1.44 1.44 0 0 1-1.37-1.5c.01-.376.173-.732.45-.986.277-.263.651-.4 1.032-.375.376.01.732.172.986.45.26.269.397.635.375 1.009-.006.39-.176.76-.468 1.02-.27.258-.632.396-1.005.382z"/>
    </defs>
    <g fill="none" fill-rule="evenodd">
        <use fill="#272B33" transform="translate(1.154 2)" xlink:href="#a"/>
        <path d="M.154 0h24v24h-24z"/>
    </g>
</svg>
