<?xml version="1.0" encoding="UTF-8"?>
<svg width="24px" height="24px" viewBox="0 0 24 24" version="1.1" xmlns="http://www.w3.org/2000/svg" xmlns:xlink="http://www.w3.org/1999/xlink">
    <!-- Generator: Sketch 50.2 (55047) - http://www.bohemiancoding.com/sketch -->
    <title>Artboard</title>
    <desc>Created with Sketch.</desc>
    <defs>
        <path d="M1.33333333,2.66666667 C0.596953667,2.66666667 0,2.069713 0,1.33333333 C0,0.596953667 0.596953667,0 1.33333333,0 C2.069713,0 2.66666667,0.596953667 2.66666667,1.33333333 C2.66666667,2.069713 2.069713,2.66666667 1.33333333,2.66666667 Z M6.66666667,2.66666667 C5.930287,2.66666667 5.33333333,2.069713 5.33333333,1.33333333 C5.33333333,0.596953667 5.930287,0 6.66666667,0 C7.40304633,0 8,0.596953667 8,1.33333333 C8,2.069713 7.40304633,2.66666667 6.66666667,2.66666667 Z M12,2.66666667 C11.2636203,2.66666667 10.6666667,2.069713 10.6666667,1.33333333 C10.6666667,0.596953667 11.2636203,0 12,0 C12.7363797,0 13.3333333,0.596953667 13.3333333,1.33333333 C13.3333333,2.069713 12.7363797,2.66666667 12,2.66666667 Z" id="path-1"></path>
    </defs>
    <g id="Artboard" stroke="none" stroke-width="1" fill="none" fill-rule="evenodd">
        <g id="Icons/UI/More" transform="translate(4.000000, 4.000000)">
            <g id="↳Colour" stroke-width="1" fill-rule="evenodd" transform="translate(1.333333, 6.666667)">
                <mask id="mask-2" fill="white">
                    <use xlink:href="#path-1"></use>
                </mask>
                <use id="↳🎨Colour" fill="#272B33" xlink:href="#path-1"></use>
                <g id="Backgrounds/Style-Guide/PrimarySolid-1" mask="url(#mask-2)" fill="#0C1C24">
                    <g transform="translate(-1.333333, -6.666667)" id="PrimarySolid-1">
                        <rect x="0" y="0" width="16" height="16"></rect>
                    </g>
                </g>
            </g>
            <rect id="Bounding-Box" x="0" y="0" width="16" height="16"></rect>
        </g>
    </g>
</svg>