<svg width="24px" height="24px" viewBox="0 0 24 24" version="1.1" xmlns="http://www.w3.org/2000/svg" xmlns:xlink="http://www.w3.org/1999/xlink">
    <defs>
        <path d="M0.5,8.8817842e-16 L4.5,0 C4.77614237,0 5,0.223857625 5,0.5 C5,0.776142375 4.77614237,1 4.5,1 L1,1 L1,4.5 C1,4.77614237 0.776142375,5 0.5,5 C0.223857625,5 -4.11219786e-17,4.77614237 -9.18485099e-17,4.5 L-8.26636589e-16,0.5 C-8.77363121e-16,0.223857625 0.223857625,8.8817842e-16 0.5,8.8817842e-16 Z M15.5,16 L11.5,16 C11.2238576,16 11,15.7761424 11,15.5 C11,15.2238576 11.2238576,15 11.5,15 L15,15 L15,11.5 C15,11.2238576 15.2238576,11 15.5,11 C15.7761424,11 16,11.2238576 16,11.5 L16,15.5 C16,15.7761424 15.7761424,16 15.5,16 Z M2.22044605e-16,15.5 L-2.22044605e-16,11.5 C-4.4408921e-16,11.2238576 0.223857625,11 0.5,11 C0.776142375,11 1,11.2238576 1,11.5 L1,15 L4.5,15 C4.77614237,15 5,15.2238576 5,15.5 C5,15.7761424 4.77614237,16 4.5,16 L0.5,16 C0.223857625,16 0,15.7761424 0,15.5 Z M16,0.5 L16,4.5 C16,4.77614237 15.7761424,5 15.5,5 C15.2238576,5 15,4.77614237 15,4.5 L15,1 L11.5,1 C11.2238576,1 11,0.776142375 11,0.5 C11,0.223857625 11.2238576,0 11.5,0 L15.5,0 C15.7761424,0 16,0.223857625 16,0.5 Z" id="path-1"></path>
    </defs>
    <g id="Icons/UI/Full-screen" stroke="none" stroke-width="1" fill="none" fill-rule="evenodd">
        <rect id="Bounding-Box" x="0" y="0" width="24" height="24"></rect>
        <g id="↳Colour" transform="translate(4.000000, 4.000000)">
            <mask id="mask-2" fill="white">
                <use xlink:href="#path-1"></use>
            </mask>
            <use id="↳🎨Colour" fill="#FFFFFF" fill-rule="nonzero" xlink:href="#path-1"></use>
            <g id="Colour-Palettes-/-Brand-/-Light-WireFrame-/-Basic-Grey-Shades-/-$grey-800" mask="url(#mask-2)" fill="#FFFFFF">
                <g transform="translate(-4.000000, -4.000000)">
                    <rect x="0" y="0" width="24" height="24"></rect>
                </g>
            </g>
        </g>
    </g>
</svg>