<?xml version="1.0" encoding="UTF-8"?>
<svg width="24px" height="24px" viewBox="0 0 24 24" version="1.1" xmlns="http://www.w3.org/2000/svg" xmlns:xlink="http://www.w3.org/1999/xlink">
    <!-- Generator: Sketch 49.2 (51160) - http://www.bohemiancoding.com/sketch -->
    <title>heart-fill</title>
    <desc>Created with Sketch.</desc>
    <defs></defs>
    <g id="heart-fill" stroke="none" stroke-width="1" fill="none" fill-rule="evenodd">
        <path d="M11.2383115,17.64251 C10.7899781,17.34251 10.1566448,16.8758433 9.33831147,16.24251 C8.49442165,15.5844346 7.71960635,14.8422872 7.02581147,14.02751 C6.31659251,13.2139132 5.74032607,12.2934056 5.31831147,11.30001 C4.91009957,10.3682194 4.8938822,9.3113871 5.27331147,8.36750996 C5.51552632,7.74943742 5.91861633,7.20738061 6.44081147,6.79750996 C6.95799179,6.38369919 7.57892268,6.11993328 8.23581147,6.03500996 C8.31581147,6.02500996 8.3991448,6.01750996 8.48581147,6.01250996 L8.73581147,6.01250996 C9.86180688,6.00541455 10.9277841,6.5194832 11.6233115,7.40500996 C11.7328244,7.54420795 11.8306568,7.69221076 11.9158115,7.84750996 C11.9995094,7.99961011 12.0721957,8.15751484 12.1333115,8.32000996 C12.1719808,8.42554736 12.2045348,8.53322594 12.2308115,8.64250996 C12.2558115,8.74750996 12.2783115,8.85000996 12.2983115,8.95000996 C12.2963869,8.96243588 12.2963869,8.97508405 12.2983115,8.98750996 C12.3091968,9.01571567 12.3217181,9.04326245 12.3358115,9.07000996 C12.3618978,9.12567877 12.403585,9.17257684 12.4558115,9.20500996 C12.505609,9.23493951 12.562714,9.25051359 12.6208115,9.25000996 C12.6812031,9.24992677 12.7405751,9.23443841 12.7933115,9.20500996 C12.8517334,9.17108437 12.896741,9.11813431 12.9208115,9.05500996 C12.9305634,8.99802245 12.9355805,8.94032539 12.9358115,8.88250996 L12.9358115,8.72500996 C12.9158115,8.59500996 12.8908115,8.46500996 12.8608115,8.33500996 C12.8300182,8.20235363 12.789919,8.07203112 12.7408115,7.94500996 L12.6508115,7.73500996 L12.5683115,7.51250996 C12.4996749,7.40034251 12.473096,7.26744783 12.4933115,7.13750996 C12.5140382,7.00594294 12.5772562,6.88477513 12.6733115,6.79250996 L12.6883115,6.79250996 C13.0050711,6.53495749 13.3647371,6.33523709 13.7508115,6.20250996 C14.1407655,6.06750457 14.5506497,5.99904968 14.9633115,6.00000996 C15.0468681,6.00006138 15.1303481,6.00507018 15.2133115,6.01500996 L15.4633115,6.04500996 C16.111952,6.12975617 16.7240748,6.39382613 17.2308115,6.80750996 C17.7443041,7.21899125 18.1372776,7.76138102 18.3683115,8.37750996 C18.7400405,9.32489077 18.7220671,10.3808289 18.3183115,11.31501 C17.901179,12.3094281 17.324419,13.2290352 16.6108115,14.03751 C15.9131128,14.8463315 15.1386583,15.5856216 14.2983115,16.24501 C13.4849781,16.8783433 12.8541448,17.34501 12.4058115,17.64501 C12.3245587,17.705713 12.2331255,17.7514296 12.1358115,17.78001 C11.930898,17.8396629 11.713225,17.8396629 11.5083115,17.78001 C11.4108231,17.7506665 11.3193791,17.7040978 11.2383115,17.64251 Z" id="path-3" fill="#272B33" fill-rule="nonzero"></path>
    </g>
</svg>