<?xml version="1.0" encoding="UTF-8"?>
<svg width="24px" height="24px" viewBox="0 0 24 24" version="1.1" xmlns="http://www.w3.org/2000/svg" xmlns:xlink="http://www.w3.org/1999/xlink">
    <!-- Generator: Sketch 50.2 (55047) - http://www.bohemiancoding.com/sketch -->
    <title>identity</title>
    <desc>Created with Sketch.</desc>
    <defs>
        <path d="M16.2754167,17.3536458 C16.4002866,17.595383 16.481732,17.8571718 16.5160417,18.1270833 C16.5504774,18.3779906 16.5504774,18.632426 16.5160417,18.8833333 C16.4859301,19.1711813 16.3362463,19.4331278 16.1035417,19.6052083 C15.8595671,19.7974113 15.5544003,19.8950647 15.2441667,19.8802083 L1.59729167,19.8802083 L1.59729167,19.8458333 C1.27711683,19.8558553 0.962700954,19.7591119 0.703541667,19.5708333 C0.483436195,19.3878697 0.336926029,19.1314769 0.291041667,18.8489583 C0.256691623,18.5980452 0.256691623,18.3436215 0.291041667,18.0927083 C0.401365886,17.5394698 0.663179032,17.0277441 1.04729167,16.6145833 C1.21732769,16.4623365 1.41598359,16.3454801 1.63166667,16.2708333 L2.28479167,16.0645833 C2.78737472,15.8901648 3.30529552,15.7635619 3.83166667,15.6864583 C4.27307816,15.6290559 4.70246304,15.5014009 5.10354167,15.3083333 C5.37742608,15.2006106 5.59910684,14.9912454 5.72229167,14.7239583 C5.7986491,14.4531976 5.74807851,14.1624168 5.58479167,13.9333333 C5.44404629,13.7017941 5.28299571,13.4832254 5.10354167,13.2802083 C4.76602182,12.9002447 4.4878795,12.471442 4.27854167,12.0083333 C4.10571197,11.6678311 3.96751843,11.3108311 3.86604167,10.9427083 C3.5518216,10.8458398 3.2755152,10.6536266 3.07541667,10.3927083 C2.76604167,10.0833333 2.59416667,9.39583333 2.52541667,8.39895833 C2.48529321,8.14716229 2.49699032,7.88982597 2.55979167,7.64270833 C2.60247056,7.44887854 2.69760188,7.27050732 2.83479167,7.12708333 C2.90354167,7.05833333 2.93791667,6.98958333 3.00666667,6.95520833 C3.0586229,6.89433177 3.13304168,6.85712238 3.21291667,6.85208333 C3.05239299,5.99900976 3.06408047,5.12244877 3.24729167,4.27395833 C3.41550079,3.49775604 3.75620691,2.76934985 4.24416667,2.14270833 C4.72746844,1.55418399 5.33886313,1.08388039 6.03166667,0.767708333 C6.78316962,0.453585805 7.58903779,0.290076321 8.40354167,0.286458333 L8.43791667,0.286458333 C9.26891019,0.271720501 10.0921773,0.448134893 10.8441667,0.802083333 C11.5370332,1.11815072 12.1484499,1.58847124 12.6316667,2.17708333 C13.110815,2.78431465 13.4531999,3.48784527 13.6354167,4.23958333 C13.7323333,4.77255238 13.7783737,5.31352663 13.7729167,5.85520833 C13.7566857,6.05130179 13.5915401,6.2014341 13.3947917,6.19895833 C13.1867369,6.19709226 13.0185327,6.02888815 13.0166667,5.82083333 C13.0452531,5.40707906 13.0221585,4.99137492 12.9479167,4.58333333 C12.8014051,3.86995921 12.4933056,3.19966642 12.0472917,2.62395833 C11.6259749,2.13167896 11.0965702,1.74344886 10.5004167,1.48958333 C9.18041667,0.939583333 7.69541667,0.939583333 6.37541667,1.48958333 C5.77173841,1.72657119 5.24074944,2.11770146 4.83541667,2.62395833 C4.38707824,3.2103352 4.0811169,3.89286435 3.94166667,4.61770833 C3.79288137,5.4500775 3.8162795,6.3041093 4.01041667,7.12708333 C4.04463961,7.19157439 4.04463961,7.26884228 4.01041667,7.33333333 C4.01741895,7.40059443 3.99494883,7.46759188 3.94880733,7.5170292 C3.90266583,7.56646652 3.83737534,7.5934983 3.76979167,7.59114583 L3.59791667,7.59114583 L3.56354167,7.55677083 C3.49479167,7.55677083 3.46041667,7.55677083 3.42604167,7.59114583 C3.40705688,7.59114583 3.39166667,7.60653605 3.39166667,7.62552083 C3.33810137,7.66886104 3.30157583,7.72973694 3.28854167,7.79739583 C3.24294907,7.97699138 3.23129097,8.16352102 3.25416667,8.34739583 C3.28854167,9.27552083 3.42604167,9.82552083 3.66666667,9.96302083 C3.77917252,10.0627444 3.90680432,10.1439646 4.04479167,10.2036458 L4.11354167,10.2036458 C4.14791667,10.2036458 4.18229167,10.2380208 4.21666667,10.2380208 L4.25104167,10.2723958 L4.35416667,10.3755208 L4.42291667,10.5130208 C4.42291667,10.5130208 4.52604167,10.7880208 4.69791667,11.3380208 C4.90829885,11.8682428 5.21088429,12.3570347 5.59166667,12.7817708 C5.85927808,13.0657471 6.07976884,13.3906809 6.24479167,13.7442708 C6.44845523,14.1124726 6.48594951,14.5499058 6.34791667,14.9473958 C6.21505645,15.3477904 5.93147129,15.6806947 5.55729167,15.8755208 C5.03221593,16.1557071 4.46216001,16.3418478 3.87291667,16.4255208 C3.38447689,16.5074716 2.90212936,16.6223163 2.42916667,16.7692708 C2.08541667,16.8723958 1.91354167,16.9411458 1.91354167,16.9411458 C1.60904467,17.1127782 1.36796332,17.3779677 1.22604167,17.6973958 C1.05643581,18.0130466 0.984636573,18.3720428 1.01979167,18.7286458 C1.04427718,18.8295172 1.09128592,18.9235346 1.15729167,19.0036458 C1.27763438,19.1149733 1.44205593,19.1655645 1.60416667,19.1411458 L15.1754167,19.1411458 C15.3358643,19.1489267 15.4939713,19.1002784 15.6222917,19.0036458 C15.6816091,18.919365 15.7279575,18.8266683 15.7597917,18.7286458 C15.7949468,18.3720428 15.7231475,18.0130466 15.5535417,17.6973958 C15.5535417,17.6286458 15.5191667,17.5942708 15.4847917,17.5255208 L15.4847917,17.4911458 C15.4167619,17.3102822 15.489454,17.1067443 15.6566667,17.0098958 C15.8200945,16.9177197 16.0266084,16.9619726 16.1379167,17.1130208 C16.1722917,17.1817708 16.2410417,17.2848958 16.2754167,17.3536458 Z M11.1535417,10.8567708 L13.0441667,13.0911458 L17.3410417,8.10677083 C17.4699244,7.99051773 17.6652508,7.9885808 17.7964136,8.10225518 C17.9275763,8.21592956 17.9534212,8.40954831 17.8566667,8.55364583 L13.4222917,13.6755208 L13.3879167,13.7098958 C13.3024406,13.8127754 13.177756,13.8751178 13.0441667,13.8817708 L13.0097917,13.8817708 C12.8742862,13.8828748 12.7464618,13.8189626 12.6660417,13.7098958 L10.6379167,11.3036458 C10.5411622,11.1595483 10.567007,10.9659296 10.6981698,10.8522552 C10.8293325,10.7385808 11.024659,10.7405177 11.1535417,10.8567708 Z M17.8910417,10.5817708 L17.8910417,10.5989583 C18.3090692,12.0891806 18.0023861,13.6892252 17.062962,14.9192625 C16.1235379,16.1492998 14.6606204,16.8662863 13.1129167,16.8552083 C12.1185154,16.8618029 11.1462508,16.5617212 10.3285417,15.9958333 C8.05985951,14.4485731 7.4750315,11.3551406 9.02229173,9.08645838 C10.569552,6.8177762 13.6629845,6.23294814 15.9316667,7.78020833 C16.0360552,7.84775386 16.0964791,7.96585912 16.0901772,8.09003501 C16.0838753,8.2142109 16.0118051,8.32559215 15.9011147,8.38222251 C15.7904243,8.43885288 15.6579302,8.43212886 15.5535417,8.36458333 C14.6220464,7.71737378 13.4711507,7.46777977 12.3552302,7.6709676 C11.2393098,7.87415542 10.2502535,8.51339387 9.60666667,9.44739583 C8.27614227,11.3950129 8.76750652,14.0514509 10.7066667,15.3942708 C12.1810942,16.4173244 14.1386097,16.4064023 15.6015293,15.3669594 C17.0644488,14.3275165 17.7188602,12.4825959 17.2379167,10.7536458 C17.1782969,10.6287971 17.1993363,10.4803731 17.2913052,10.3770123 C17.3832742,10.2736515 17.5282462,10.235501 17.6591791,10.2802034 C17.7901121,10.3249057 17.8814846,10.4437476 17.8910417,10.5817708 Z" id="path-1"></path>
    </defs>
    <g id="identity" stroke="none" stroke-width="1" fill="none" fill-rule="evenodd">
        <g id="Icons/UI/User-Checkmark-Line" transform="translate(0.999023, 0.999023)">
            <g id="↳Colour" stroke-width="1" fill-rule="evenodd" transform="translate(1.833333, 0.916667)">
                <mask id="mask-2" fill="white">
                    <use xlink:href="#path-1"></use>
                </mask>
                <use id="↳🎨Colour" fill="#272B33" xlink:href="#path-1"></use>
                <g id="Backgrounds/Style-Guide/grey-800" mask="url(#mask-2)" fill="#272B33">
                    <g transform="translate(-1.833333, -0.916667)" id="grey-800">
                        <rect x="0" y="0" width="22" height="22"></rect>
                    </g>
                </g>
            </g>
            <rect id="Bounding-Box" x="0" y="0" width="22" height="22"></rect>
        </g>
    </g>
</svg>