<?xml version="1.0" encoding="UTF-8"?>
<svg width="32px" height="32px" viewBox="0 0 32 32" version="1.1" xmlns="http://www.w3.org/2000/svg" xmlns:xlink="http://www.w3.org/1999/xlink">
    <!-- Generator: Sketch 49.2 (51160) - http://www.bohemiancoding.com/sketch -->
    <title>jackpot-fill</title>
    <desc>Created with Sketch.</desc>
    <defs></defs>
    <g id="jackpot-fill" stroke="none" stroke-width="1" fill="none" fill-rule="evenodd">
        <path d="M23.8443878,11.2222052 C24.1933639,11.2207148 24.5367994,11.305497 24.8412628,11.468299 C25.1462274,11.6291771 25.4093863,11.8534603 25.6112628,12.124549 C25.8305283,12.4461052 25.9497263,12.8204411 25.9550128,13.2040802 C25.9645034,13.5864111 25.8530998,13.9626025 25.6353253,14.2836115 C25.4456807,14.5688728 25.1845945,14.8045592 24.8756378,14.9693927 C24.5691828,15.1374275 24.221867,15.2256843 23.8684503,15.2253302 L23.8272003,15.2253302 C23.7601793,15.2248449 23.6948871,15.2456197 23.6415753,15.2843927 C23.5874982,15.3224907 23.5506297,15.3787989 23.5384503,15.4418927 L22.8509503,18.2900177 C22.8057932,18.503146 22.6842404,18.6945916 22.5072003,18.8314239 C22.3216293,18.9689611 22.0924215,19.0418908 21.8575128,19.0381427 L10.1012628,19.0381427 C9.87296297,19.0400304 9.65090212,18.9670581 9.47220031,18.8314239 C9.2951602,18.6945916 9.17360742,18.503146 9.12845031,18.2900177 C9.05970031,17.9881427 8.99095031,17.7004865 8.92220031,17.427049 C8.85345031,17.1536115 8.79157531,16.8922052 8.73657531,16.6428302 C8.66782531,16.3803302 8.60938781,16.145174 8.56126281,15.9373615 L8.42032531,15.4418927 C8.40814594,15.3787989 8.37127744,15.3224907 8.31720031,15.2843927 C8.26388851,15.2456197 8.19859636,15.2248449 8.13157531,15.2253302 C7.85039753,15.2262049 7.5716038,15.1760984 7.31001281,15.077674 C7.05150977,14.9764718 6.81751587,14.8257053 6.62251281,14.6347052 C6.4019,14.4243735 6.2328488,14.1699963 6.12751281,13.8898615 C6.01510555,13.6088168 5.97616898,13.3058516 6.01407531,13.0072052 C6.07243884,12.397477 6.43102032,11.8505562 6.98001281,11.533924 C7.15043991,11.4324244 7.33423422,11.3529798 7.52657531,11.297674 C7.71063584,11.2453042 7.90169965,11.2187764 8.09376281,11.218924 C8.29265325,11.2179827 8.49064059,11.2445073 8.68157531,11.297674 C8.86538606,11.3493768 9.04197846,11.4220914 9.20751281,11.5142365 C9.91421085,11.9432964 10.2921294,12.7276821 10.1734503,13.5190802 C10.1589055,13.5949607 10.177538,13.6732169 10.2250128,13.7356427 C10.2679786,13.7987151 10.3421588,13.8359827 10.4209503,13.8340802 C10.5336325,13.860887 10.6487376,13.8773679 10.7647003,13.883299 L11.1084503,13.883299 L11.1290753,13.883299 C11.9402463,13.8852818 12.7402801,13.703081 13.4631378,13.3517365 C14.1008511,13.0867485 14.6264181,12.6243728 14.9550128,12.0392365 C14.9783458,11.97213 14.9783458,11.8996242 14.9550128,11.8325177 C14.9419303,11.7697105 14.9003983,11.7156503 14.8415753,11.6848615 C14.5532376,11.4968344 14.31726,11.2445529 14.1540753,10.9498615 C13.9897988,10.6573148 13.9047212,10.330217 13.9065753,9.99829895 C13.8994193,9.46556487 14.1233625,8.95371901 14.5253253,8.5840802 C14.9079557,8.20860736 15.4340752,7.99777599 15.9828253,8.0000177 C16.0623477,7.99974692 16.141733,8.00633622 16.2200128,8.0197052 L16.4572003,8.0590802 C17.2464732,8.20974743 17.863421,8.79865214 18.0212628,9.55204895 C18.1183392,9.95429253 18.0859917,10.3751374 17.9284503,10.759549 C17.776881,11.1381701 17.4990666,11.4586999 17.1378253,11.6717365 C17.0714305,11.7080935 17.0231245,11.7683915 17.0037628,11.8390802 C16.9817986,11.9025325 16.9933235,11.9722058 17.0347003,12.0261115 C17.3453043,12.6225862 17.8662486,13.0954527 18.5059503,13.3615802 C19.2355655,13.7145385 20.0426825,13.8967423 20.8606378,13.8931427 L21.2043878,13.8931427 C21.3203505,13.8872117 21.4354556,13.8707307 21.5481378,13.843924 C21.6257926,13.8337356 21.6961527,13.7948523 21.7440753,13.7356427 C21.7922598,13.6773209 21.8111184,13.6017151 21.7956378,13.528924 C21.7406369,13.2205567 21.7654182,12.9040311 21.8678253,12.6068927 C21.9682373,12.3107182 22.1415087,12.0418101 22.3731378,11.822674 C22.5745195,11.6416512 22.8070933,11.4951297 23.0606378,11.389549 C23.3071377,11.2831585 23.5738934,11.2262017 23.8443878,11.2222052 Z M22.2803253,20.6492364 L21.5928253,23.5170489 C21.5524194,23.6733617 21.4579507,23.812092 21.3247003,23.9107989 C21.1908292,24.0147955 21.0229108,24.070547 20.8503253,24.0682989 L11.1084503,24.0682989 C10.9366166,24.0688532 10.7700012,24.0119696 10.6375128,23.9075177 C10.5042624,23.8088107 10.4097937,23.6700805 10.3693878,23.5137677 C10.340851,23.3381407 10.3029898,23.1640103 10.2559503,22.9920489 C10.2078253,22.8148614 10.1631378,22.6278302 10.1218878,22.4309552 C10.0531378,22.1553302 9.98438781,21.8643927 9.91563781,21.5581427 L9.70938781,20.6459552 C9.68531464,20.5688815 9.68531464,20.4867789 9.70938781,20.4097052 C9.7326696,20.3253086 9.77104606,20.2453841 9.82282531,20.1734552 C9.8772613,20.108255 9.94826049,20.0574261 10.0290753,20.0257989 C10.1072931,19.9937469 10.1914559,19.97701 10.2765753,19.9765802 L21.7062628,19.9765802 C21.7913822,19.97701 21.8755451,19.9937469 21.9537628,20.0257989 C22.0345776,20.0574261 22.1055768,20.108255 22.1600128,20.1734552 C22.215351,20.2397193 22.2541452,20.3171475 22.2734503,20.3998614 C22.2932254,20.4817068 22.2955634,20.5665115 22.2803253,20.6492364 Z" id="jackpot" fill="#FFFFFF" fill-rule="nonzero"></path>
    </g>
</svg>