<svg xmlns="http://www.w3.org/2000/svg" xmlns:xlink="http://www.w3.org/1999/xlink" width="28" height="24" viewBox="0 0 28 24">
    <defs>
        <path id="a" d="M11.27 6.033H9.71a.4.4 0 1 1 0-.8h1.56a.4.4 0 1 1 0 .8m-3.64 0H6.07a.4.4 0 0 1 0-.8h1.56a.4.4 0 1 1 0 .8m-3.64 0H2.43a.4.4 0 1 1 0-.8h1.56a.4.4 0 1 1 0 .8m9.36-.8a.35.35 0 0 0 .35-.35V2.35A2.352 2.352 0 0 0 11.35 0c-1.247 0-1.896.519-2.469.976-.552.442-1.028.824-2.031.824-1.002 0-1.479-.382-2.031-.824C4.247.519 3.598 0 2.35 0A2.352 2.352 0 0 0 0 2.35v2.533c0 .193.157.35.35.35a.4.4 0 1 1 0 .8.35.35 0 0 0-.35.35v9.967a2.352 2.352 0 0 0 2.35 2.35c1.248 0 1.897-.519 2.469-.977.552-.442 1.029-.823 2.031-.823 1.003 0 1.479.381 2.031.823.573.458 1.222.977 2.469.977a2.352 2.352 0 0 0 2.35-2.35V6.383a.35.35 0 0 0-.35-.35.4.4 0 1 1 0-.8"/>
    </defs>
    <g fill="none" fill-rule="evenodd">
        <g transform="translate(5.154 3)">
            <mask id="b" fill="#fff">
                <use xlink:href="#a"/>
            </mask>
            <use fill="#000" xlink:href="#a"/>
            <g fill="#272B33" mask="url(#b)">
                <path d="M-5-3h24v24H-5z"/>
            </g>
        </g>
        <path d="M.154 0h24v24h-24z"/>
    </g>
</svg>
