<?xml version="1.0" encoding="UTF-8"?>
<svg width="24px" height="24px" viewBox="0 0 24 24" version="1.1" xmlns="http://www.w3.org/2000/svg" xmlns:xlink="http://www.w3.org/1999/xlink">
    <!-- Generator: Sketch 50.2 (55047) - http://www.bohemiancoding.com/sketch -->
    <title>notificaitons</title>
    <desc>Created with Sketch.</desc>
    <defs>
        <path d="M15.2554687,4.73057292 C15.5856281,5.11914217 15.8635091,5.54925352 16.0820312,6.00994792 C16.3022321,6.46734716 16.4651808,6.95015814 16.5671875,7.44744792 C16.6827797,7.99160578 16.7190928,8.54961716 16.675,9.10416667 C16.6281676,9.65221936 16.5072758,10.191397 16.315625,10.7069792 L15.625625,12.5793229 C15.3288336,13.3453924 15.1612441,14.1554085 15.1296875,14.9763542 C15.1132284,15.6760404 15.2519129,16.3706898 15.5357812,17.0104167 C15.6349607,17.2478315 15.679188,17.5045951 15.6651562,17.7615104 C15.6536881,18.0183457 15.5716174,18.2670447 15.4279687,18.4802604 C15.289044,18.6917262 15.1002093,18.8657504 14.878125,18.9869792 C14.658091,19.1083649 14.4106677,19.1714579 14.159375,19.1702604 C14.0691126,19.1699632 13.9790054,19.1627547 13.8898437,19.1486979 C13.7983311,19.134803 13.7081634,19.1131628 13.6203125,19.0840104 C13.5196875,19.0408854 13.1507292,18.9043229 12.5134375,18.6743229 L10.4578125,17.9268229 L7.5828125,16.8846354 L1.5525,14.6888542 C1.27100214,14.5929913 1.02616231,14.4121865 0.85171875,14.1713542 C0.67494971,13.9348386 0.573513183,13.6505658 0.560625,13.3555729 C0.528974857,13.0557129 0.597191556,12.7537908 0.7546875,12.4966667 C0.918909204,12.2334441 1.15615032,12.023673 1.4375,11.8929167 C2.06171314,11.5740786 2.60873672,11.1227228 3.0403125,10.5704167 C3.54388376,9.91910841 3.93945335,9.19106621 4.211875,8.41416667 L4.8803125,6.54182292 C5.06263172,6.01809678 5.32313111,5.52496538 5.65296875,5.07916667 C5.98345927,4.6339706 6.36590359,4.2298102 6.7921875,3.87526042 C7.19330474,3.56058937 7.62993092,3.29403029 8.093125,3.08104167 C8.550485,2.86803723 9.03375562,2.71580699 9.530625,2.62822917 C9.52642893,2.6178562 9.52642893,2.60625839 9.530625,2.59588542 C9.53482107,2.58551245 9.53482107,2.57391464 9.530625,2.56354167 C9.74009404,1.97730839 10.1317678,1.47354792 10.6482812,1.12604167 C11.1580731,0.766204135 11.7672579,0.574028301 12.39125,0.576197917 C12.5743208,0.576437064 12.7570474,0.592065002 12.9375,0.622916667 C13.1131253,0.652406663 13.2861589,0.695665068 13.455,0.752291667 C14.2224695,1.01916612 14.8454695,1.59144176 15.1764062,2.33354167 C15.5327841,3.06276873 15.5718036,3.9068912 15.2842187,4.66588542 C15.2842187,4.66588542 15.2626562,4.69104167 15.2626562,4.69822917 C15.2626562,4.70541667 15.2698437,4.71619792 15.2554687,4.73057292 L15.2554687,4.73057292 Z M15.6148437,10.4518229 C15.7741452,10.0010008 15.872055,9.53079176 15.9059375,9.05385417 C15.9417108,8.57342449 15.9163519,8.09039688 15.8304687,7.61635417 C15.7296954,7.14320497 15.5703421,6.68446074 15.3560937,6.25072917 C15.1430075,5.8158311 14.8682459,5.41397718 14.5403125,5.05760417 L14.3678125,4.86354167 L14.475625,4.62635417 C14.5053852,4.5960187 14.5275507,4.55907617 14.5403125,4.51854167 C14.5521645,4.48164561 14.5665744,4.44562076 14.5834375,4.41072917 C14.7996383,3.84417908 14.7723306,3.21350263 14.5079687,2.66776042 C14.2634925,2.11358983 13.8002877,1.68551575 13.2285937,1.48541667 C13.1019619,1.44295028 12.9721869,1.41050655 12.8404687,1.38838542 C12.7050344,1.3663033 12.5680028,1.35548502 12.4307812,1.35604167 C11.9650805,1.35397938 11.5103271,1.49718902 11.1298437,1.76572917 C10.7453534,2.02665538 10.4554382,2.40480563 10.3032812,2.84385417 L10.2601562,2.96244792 C10.2454319,3.00023115 10.2381115,3.0404936 10.2385937,3.08104167 L10.1739062,3.33979167 L9.91515625,3.38291667 C9.43469596,3.45297356 8.96499621,3.58337864 8.5171875,3.77104167 C8.0767578,3.95145522 7.66415575,4.19345056 7.29171875,4.48979167 C6.91402854,4.79552152 6.57813449,5.14953934 6.29265625,5.54276042 C6.01057372,5.93337035 5.78213266,6.36003541 5.6134375,6.81135417 L4.9234375,8.68369792 C4.61394529,9.5554077 4.16486424,10.371036 3.59375,11.0986979 C3.10485153,11.7304496 2.47465792,12.2387893 1.75375,12.5829167 C1.61577861,12.6495259 1.49979175,12.7542882 1.41953125,12.8847917 C1.34052009,13.0139099 1.30640669,13.165525 1.3225,13.3160417 C1.32222175,13.4593671 1.36753008,13.5990678 1.451875,13.7149479 C1.53865803,13.8374162 1.66595372,13.9252502 1.81125,13.9629167 L7.834375,16.1586979 L10.709375,17.2008854 L12.765,17.9519792 C13.4022917,18.1915625 13.7784375,18.3245313 13.8934375,18.3508854 L14.0228125,18.3832292 L14.1521875,18.3832292 C14.2773273,18.3851675 14.4009334,18.355502 14.5115625,18.2969792 C14.6187839,18.240177 14.7111203,18.158921 14.7810937,18.0597917 C14.8507961,17.9521555 14.8916361,17.8283977 14.8996875,17.7004167 C14.9025546,17.5764105 14.8767264,17.4534192 14.8242187,17.3410417 C14.5037587,16.6114705 14.3502836,15.8195387 14.375,15.0230729 C14.4066314,14.1051008 14.5874861,13.1983995 14.9104687,12.3385417 L15.6148437,10.4518229 Z M11.7695312,19.0983854 C11.824609,19.1241398 11.8672482,19.1706552 11.888125,19.2277604 C11.9095863,19.286858 11.8971937,19.3529517 11.8557812,19.4002604 C11.521073,19.8516696 11.0555907,20.1891756 10.5225,20.3669792 C9.99946797,20.5536151 9.42676436,20.5459621 8.90890625,20.3454167 C8.38733063,20.1660637 7.94574224,19.8084662 7.661875,19.3355729 C7.36305331,18.855109 7.21996639,18.2940576 7.2521875,17.7291667 C7.25323993,17.6702187 7.28628871,17.6165144 7.3384375,17.5890104 C7.38132002,17.5560665 7.4367588,17.5441868 7.489375,17.5566667 L11.7695312,19.0983854 Z M12.779375,2.66416667 C12.9053624,2.70516625 13.0198797,2.77535426 13.1135937,2.86901042 C13.2078765,2.9634552 13.2910712,3.06835285 13.3615625,3.18166667 C13.4182677,3.30701707 13.4476679,3.4429932 13.4478125,3.58057292 C13.4480179,3.71616922 13.4261702,3.85089648 13.383125,3.97947917 C13.2980781,4.23745743 13.1053697,4.44589717 12.8548437,4.55088542 C12.6098767,4.67140046 12.3254735,4.68314187 12.0714062,4.58322917 C11.8148239,4.50603087 11.6055979,4.31917498 11.5,4.07291667 C11.3849251,3.82334956 11.3694993,3.53925782 11.456875,3.27869792 C11.5379671,3.08364774 11.6725078,2.91547181 11.845,2.79354167 C12.0146393,2.67210159 12.218574,2.60789993 12.4271875,2.61026042 L12.6104687,2.61026042 C12.6708098,2.6195212 12.7291394,2.63896441 12.7829687,2.66776042 L12.779375,2.66416667 Z" id="path-1"></path>
    </defs>
    <g id="notificaitons" stroke="none" stroke-width="1" fill="none" fill-rule="evenodd">
        <g id="Icons/UI/Bell-Line" transform="translate(0.679688, 0.679688)">
            <g id="↳Colour" stroke-width="1" fill-rule="evenodd" transform="translate(2.875000, 0.958333)">
                <mask id="mask-2" fill="white">
                    <use xlink:href="#path-1"></use>
                </mask>
                <use id="↳🎨Colour" fill="#272B33" xlink:href="#path-1"></use>
                <g id="Backgrounds/Style-Guide/grey-800" mask="url(#mask-2)" fill="#272B33">
                    <g transform="translate(-2.875000, -0.958333)" id="grey-800">
                        <rect x="0" y="0" width="23" height="23"></rect>
                    </g>
                </g>
            </g>
            <rect id="Bounding-Box" x="0" y="0" width="23" height="23"></rect>
        </g>
    </g>
</svg>