<?xml version="1.0" encoding="UTF-8"?>
<svg width="24px" height="24px" viewBox="0 0 24 24" version="1.1" xmlns="http://www.w3.org/2000/svg" xmlns:xlink="http://www.w3.org/1999/xlink">
    <!-- Generator: Sketch 50.2 (55047) - http://www.bohemiancoding.com/sketch -->
    <title>offers</title>
    <desc>Created with Sketch.</desc>
    <defs>
        <path d="M17.1487814,15.1087814 C17.151795,15.6517358 16.9374399,16.1733245 16.5535072,16.5572572 C16.1695745,16.9411899 15.6479858,17.155545 15.1050314,17.1525314 L2.04378135,17.1525314 C1.50082688,17.155545 0.979238218,16.9411899 0.595305512,16.5572572 C0.211372806,16.1733245 -0.00298233985,15.6517358 3.13532719e-05,15.1087814 L3.13532719e-05,11.8537814 C0.00028146468,11.7479645 0.0452265624,11.6471785 0.123781353,11.5762814 C0.199918059,11.4988676 0.303951031,11.455268 0.412531353,11.455268 C0.521111676,11.455268 0.625144648,11.4988676 0.701281353,11.5762814 C0.783821348,11.6506377 0.829144114,11.7577642 0.825031353,11.8687814 L0.825031353,15.1237814 C0.823020111,15.4516046 0.952358161,15.7665837 1.18416859,15.9983941 C1.41597901,16.2302045 1.73095808,16.3595426 2.05878135,16.3575314 L15.1087814,16.3575314 C15.4366046,16.3595426 15.7515837,16.2302045 15.9833941,15.9983941 C16.2152045,15.7665837 16.3445426,15.4516046 16.3425314,15.1237814 L16.3425314,2.04378135 C16.3445426,1.71595808 16.2152045,1.40097901 15.9833941,1.16916859 C15.7515837,0.937358161 15.4366046,0.808020111 15.1087814,0.810031353 L2.04378135,0.810031353 C1.71595808,0.808020111 1.40097901,0.937358161 1.16916859,1.16916859 C0.937358161,1.40097901 0.808020111,1.71595808 0.810031353,2.04378135 L0.810031353,5.29878135 C0.813676041,5.40233325 0.77431252,5.5027781 0.701281353,5.57628135 C0.544362131,5.72772634 0.295700575,5.72772634 0.138781353,5.57628135 C0.0562413587,5.50192501 0.0109185924,5.39479847 0.0150313533,5.28378135 L0.0150313533,2.04378135 C0.0120176601,1.50082688 0.226372806,0.979238218 0.610305512,0.595305512 C0.994238218,0.211372806 1.51582688,-0.00298233985 2.05878135,3.13532719e-05 L15.1087814,3.13532719e-05 C15.6517358,-0.00298233985 16.1733245,0.211372806 16.5572572,0.595305512 C16.9411899,0.979238218 17.155545,1.50082688 17.1525314,2.04378135 L17.1487814,15.1087814 Z M0.450031353,8.89128135 C0.339014232,8.89539411 0.231887693,8.85007135 0.157531353,8.76753135 C0.00608636868,8.61061213 0.00608636868,8.36195058 0.157531353,8.20503135 C0.231887693,8.12249136 0.339014232,8.07716859 0.450031353,8.08128135 L4.42503135,8.08128135 C4.49576244,8.07701888 4.56305671,8.04930947 4.61628135,8.00253135 C4.68542929,7.94762096 4.73640054,7.87312451 4.76253135,7.78878135 L5.86128135,3.70128135 L5.86128135,3.70128135 C5.93235119,3.51351369 6.06440772,3.35504585 6.23628135,3.25128135 C6.39545586,3.14654839 6.58852584,3.10632547 6.77628135,3.13878135 C6.95568632,3.16807536 7.11901415,3.25969829 7.23753135,3.39753135 C7.3533092,3.53663443 7.427408,3.70563169 7.45128135,3.88503135 L8.84253135,13.1550314 L8.84253135,13.1775314 C8.8558835,13.1888124 8.86401784,13.205081 8.86503135,13.2225314 L8.86503135,13.2000314 L10.3237814,8.89128135 C10.4028415,8.65089881 10.5565471,8.44201691 10.7625314,8.29503135 C10.9555579,8.15527935 11.1879766,8.08043266 11.4262814,8.08128135 L14.2537814,8.08128135 C14.4614133,8.10133043 14.6198553,8.2758087 14.6198553,8.48440635 C14.6198553,8.69300401 14.4614133,8.86748228 14.2537814,8.88753135 L11.4262814,8.88753135 C11.3531675,8.88697674 11.2819397,8.91071934 11.2237814,8.95503135 C11.1589021,9.00692726 11.1117317,9.07768287 11.0887814,9.15753135 L9.63003135,13.4512814 L9.63003135,13.4737814 C9.51552053,13.7913809 9.21755226,14.005918 8.88003135,14.0137814 L8.74503135,14.0137814 C8.56562638,13.9844873 8.40229856,13.8928644 8.28378135,13.7550314 C8.15728458,13.6153391 8.08192702,13.4368607 8.07003135,13.2487814 L6.64503135,3.99753135 C6.64940986,3.98670738 6.64940986,3.97460532 6.64503135,3.96378135 C6.64065284,3.95295738 6.64065284,3.94085532 6.64503135,3.93003135 L6.64503135,3.95253135 L5.54628135,8.01378135 C5.53292921,8.02506236 5.52479487,8.04133104 5.52378135,8.05878135 C5.44295601,8.30131203 5.2898517,8.51330262 5.08503135,8.66628135 C4.89467296,8.81247303 4.6612985,8.89158302 4.42128135,8.89128135 L0.450031353,8.89128135 Z" id="path-1"></path>
    </defs>
    <g id="offers" stroke="none" stroke-width="1" fill="none" fill-rule="evenodd">
        <g id="Icons/UI/Pulse-Line">
            <g id="↳Colour" stroke-width="1" fill-rule="evenodd" transform="translate(4.000000, 3.000000)">
                <mask id="mask-2" fill="white">
                    <use xlink:href="#path-1"></use>
                </mask>
                <use id="↳🎨Colour" fill="#272B33" xlink:href="#path-1"></use>
                <g id="Backgrounds/Style-Guide/grey-800" mask="url(#mask-2)" fill="#272B33">
                    <g transform="translate(-4.000000, -3.000000)" id="grey-800">
                        <rect x="0" y="0" width="24" height="24"></rect>
                    </g>
                </g>
            </g>
            <rect id="Bounding-Box" x="0" y="0" width="24" height="24"></rect>
        </g>
    </g>
</svg>