<?xml version="1.0" encoding="UTF-8"?>
<svg width="24px" height="24px" viewBox="0 0 24 24" version="1.1" xmlns="http://www.w3.org/2000/svg" xmlns:xlink="http://www.w3.org/1999/xlink">
    <!-- Generator: Sketch 50.2 (55047) - http://www.bohemiancoding.com/sketch -->
    <title>Artboard</title>
    <desc>Created with Sketch.</desc>
    <defs>
        <path d="M12.9954175,16 C8.57713952,16 4.99541752,12.418278 4.99541752,8 C4.99541752,3.581722 8.57713952,0 12.9954175,0 C17.4136955,0 20.9954175,3.581722 20.9954175,8 C20.9954175,12.418278 17.4136955,16 12.9954175,16 Z M5.86026692,14.9151023 C6.0342929,15.0891283 6.0342929,15.3712801 5.86026692,15.5453061 L1.54072328,19.8648498 C1.3666973,20.0388757 1.08454544,20.0388757 0.910519456,19.8648498 C0.736493477,19.6908238 0.736493477,19.4086719 0.910519456,19.2346459 L5.2300631,14.9151023 C5.40408908,14.7410763 5.68624094,14.7410763 5.86026692,14.9151023 Z M12.9954175,15 C16.8614108,15 19.9954175,11.8659932 19.9954175,8 C19.9954175,4.13400675 16.8614108,1 12.9954175,1 C9.12942427,1 5.99541752,4.13400675 5.99541752,8 C5.99541752,11.8659932 9.12942427,15 12.9954175,15 Z" id="path-1"></path>
    </defs>
    <g id="Artboard" stroke="none" stroke-width="1" fill="none" fill-rule="evenodd">
        <g id="↳Colour" transform="translate(1.000000, 2.000000)">
            <mask id="mask-2" fill="white">
                <use xlink:href="#path-1"></use>
            </mask>
            <use id="↳🎨Colour" fill="#282B33" xlink:href="#path-1"></use>
            <g id="Backgrounds/Style-Guide/grey-800" mask="url(#mask-2)" fill="#272B33">
                <g transform="translate(-0.220000, -2.000000)" id="grey-800">
                    <rect x="0" y="0" width="24" height="24"></rect>
                </g>
            </g>
        </g>
    </g>
</svg>