<?xml version="1.0" encoding="UTF-8"?>
<svg width="24px" height="24px" viewBox="0 0 24 24" version="1.1" xmlns="http://www.w3.org/2000/svg" xmlns:xlink="http://www.w3.org/1999/xlink">
    <!-- Generator: Sketch 50.2 (55047) - http://www.bohemiancoding.com/sketch -->
    <title>settings</title>
    <desc>Created with Sketch.</desc>
    <defs>
        <path d="M21.590004,10.460004 C21.8862488,10.499063 22.155445,10.6525049 22.340004,10.887504 C22.5296323,11.1132931 22.6332477,11.3988996 22.632504,11.693754 L22.632504,12.995004 C22.6332477,13.2898583 22.5296323,13.5754648 22.340004,13.801254 C22.155445,14.0362531 21.8862488,14.1896949 21.590004,14.228754 L20.840004,14.341254 C20.5648837,14.3865374 20.3063561,14.5028748 20.090004,14.678754 C19.6297309,15.0323258 19.3902313,15.6025629 19.460004,16.178754 C19.491121,16.4639533 19.600097,16.7350959 19.775004,16.962504 L20.198754,17.585004 C20.3766581,17.818526 20.4609149,18.1100813 20.435004,18.402504 C20.4128927,18.7048319 20.2792462,18.9881624 20.060004,19.197504 L19.141254,20.093754 C19.0384361,20.2139172 18.9103997,20.3099445 18.766254,20.375004 C18.6136438,20.4415402 18.4489878,20.4760031 18.282504,20.476254 C18.1544843,20.4762361 18.0274946,20.453378 17.907504,20.408754 C17.7875912,20.3638273 17.6741159,20.3033072 17.570004,20.228754 L16.940004,19.778754 C16.795446,19.6764148 16.6361101,19.5967468 16.467504,19.542504 C16.3030117,19.4878994 16.1308226,19.4600453 15.957504,19.460004 C15.5820015,19.4748414 15.2203627,19.6058699 14.922504,19.835004 C14.5787619,20.0799682 14.3541385,20.4584246 14.303754,20.877504 L14.191254,21.627504 C14.1521949,21.9237488 13.9987531,22.192945 13.763754,22.377504 C13.5379648,22.5671323 13.2523583,22.6707477 12.957504,22.670004 L11.648754,22.670004 C11.3570674,22.6720469 11.0745617,22.5681061 10.853754,22.377504 C10.6234541,22.1872207 10.4680099,21.9215042 10.415004,21.627504 L10.302504,20.877504 C10.2493995,20.4565413 10.0204963,20.0777611 9.67250398,19.835004 C9.37464521,19.6058699 9.01300643,19.4748414 8.63750398,19.460004 C8.46941771,19.4604151 8.30241935,19.486983 8.14250398,19.538754 C7.97389785,19.5929968 7.81456193,19.6726648 7.67000398,19.775004 L7.04750398,20.236254 C6.94339203,20.3108072 6.82991677,20.3713273 6.71000398,20.416254 C6.59001339,20.460878 6.46302368,20.4837361 6.33500398,20.483754 C6.16852014,20.4835031 6.00386414,20.4490402 5.85125398,20.382504 C5.70710828,20.3174445 5.57907186,20.2214172 5.47625398,20.101254 L4.55750398,19.205004 C4.3382617,18.9956624 4.20461525,18.7123319 4.18250398,18.410004 C4.1482453,18.1179615 4.22449384,17.8236689 4.39625398,17.585004 L4.84625398,16.955004 C5.02456217,16.7298932 5.13743823,16.4600286 5.17250398,16.175004 C5.24227668,15.5988129 5.00277708,15.0285758 4.54250398,14.675004 C4.32615185,14.4991248 4.06762422,14.3827874 3.79250398,14.337504 L3.04250398,14.225004 C2.74625918,14.1859449 2.47706293,14.0325031 2.29250398,13.797504 C2.10287566,13.5717148 1.99926027,13.2861083 2.00000398,12.991254 L2.00000398,11.682504 C1.99926027,11.3876496 2.10287566,11.1020431 2.29250398,10.876254 C2.47706293,10.6412549 2.74625918,10.487813 3.04250398,10.448754 L3.79250398,10.336254 C4.06762422,10.2909706 4.32615185,10.1746332 4.54250398,9.99875398 C5.00277708,9.64518217 5.24227668,9.07494503 5.17250398,8.49875398 C5.14138691,8.2135547 5.03241093,7.9424121 4.85750398,7.71500398 L4.39625398,7.08500398 C4.21834988,6.85148196 4.13409307,6.55992666 4.16000398,6.26750398 C4.18211525,5.96517606 4.3157617,5.68184557 4.53500398,5.47250398 L5.45375398,4.57625398 C5.55657186,4.45609076 5.68460828,4.36006344 5.82875398,4.29500398 C5.98136414,4.22846777 6.14602014,4.19400488 6.31250398,4.19375398 C6.44052368,4.19377182 6.56751339,4.21662997 6.68750398,4.26125398 C6.80741677,4.30618062 6.92089203,4.36670076 7.02500398,4.44125398 L7.65500398,4.89125398 C7.79956193,4.99359316 7.95889785,5.07326112 8.12750398,5.12750398 C8.28741935,5.17927494 8.45441771,5.20584286 8.62250398,5.20625398 C9.00276082,5.19559662 9.37005748,5.06573101 9.67250398,4.83500398 C10.0162461,4.59003973 10.2408695,4.21158336 10.291254,3.79250398 L10.403754,3.04250398 C10.442813,2.74625918 10.5962549,2.47706293 10.831254,2.29250398 C11.0570431,2.10287566 11.3426496,1.99926027 11.637504,2.00000398 L12.938754,2.00000398 C13.2336083,1.99926027 13.5192148,2.10287566 13.745004,2.29250398 C13.9800031,2.47706293 14.1334449,2.74625918 14.172504,3.04250398 L14.285004,3.79250398 C14.3399126,4.21473344 14.5716749,4.59373304 14.922504,4.83500398 C15.2255982,5.05622395 15.589808,5.17806391 15.965004,5.18375398 C16.131832,5.18295539 16.2975357,5.15639221 16.456254,5.10500398 C16.6248601,5.05076112 16.784196,4.97109316 16.928754,4.86875398 L17.547504,4.43375398 C17.6516159,4.35920076 17.7650912,4.29868062 17.885004,4.25375398 C18.0049946,4.20912997 18.1319843,4.18627182 18.260004,4.18625398 C18.4264878,4.18650488 18.5911438,4.22096777 18.743754,4.28750398 C18.8878997,4.35256344 19.0159361,4.44859076 19.118754,4.56875398 L20.037504,5.46500398 C20.2567462,5.67434557 20.3903927,5.95767606 20.412504,6.26000398 C20.4467626,6.55204647 20.3705141,6.84633908 20.198754,7.08500398 L19.748754,7.71500398 C19.5704458,7.94011471 19.4575697,8.20997933 19.422504,8.49500398 C19.3527313,9.07119503 19.5922309,9.64143217 20.052504,9.99500398 C20.2688561,10.1708832 20.5273837,10.2872206 20.802504,10.332504 L21.590004,10.460004 Z M21.815004,12.995004 L21.815004,11.682504 C21.8158636,11.5796811 21.779955,11.479935 21.713754,11.401254 C21.6499219,11.3205731 21.557048,11.2680791 21.455004,11.255004 L20.705004,11.120004 C19.8431706,11.0046667 19.1120799,10.4301357 18.796254,9.62000398 C18.6330231,9.226651 18.5748707,8.79761565 18.627504,8.37500398 C18.6774399,7.95625061 18.8364974,7.55796047 19.088754,7.22000398 L19.538754,6.59000398 C19.5977345,6.50440318 19.6255344,6.40114617 19.617504,6.29750398 C19.6112098,6.1952604 19.5670979,6.09901641 19.493754,6.02750398 L18.575004,5.10875398 C18.5332236,5.06590729 18.4835652,5.0315284 18.428754,5.00750398 C18.3309178,4.97032078 18.2228402,4.97032078 18.125004,5.00750398 C18.0827071,5.02082063 18.0441584,5.04394986 18.012504,5.07500398 L17.382504,5.52500398 C17.1796066,5.6923947 16.9467163,5.81965713 16.696254,5.90000398 C16.4531727,5.97429734 16.2004349,6.01220801 15.946254,6.01250398 C15.3543999,6.01988826 14.7800202,5.81199213 14.330004,5.42750398 C13.8725416,5.05151329 13.5760673,4.51490823 13.501254,3.92750398 L13.366254,3.17750398 C13.3531788,3.07545999 13.3006848,2.98258604 13.220004,2.91875398 C13.141323,2.85255293 13.0415768,2.8166443 12.938754,2.81750398 L11.648754,2.81750398 C11.5459311,2.8166443 11.446185,2.85255293 11.367504,2.91875398 C11.2868231,2.98258604 11.2343291,3.07545999 11.221254,3.17750398 L11.086254,3.92750398 C11.0099807,4.51443033 10.7137847,5.05053174 10.257504,5.42750398 C9.80748773,5.81199213 9.23310804,6.01988826 8.64125398,6.01250398 C8.38707721,6.01215304 8.13434744,5.97424358 7.89125398,5.90000398 C7.64079161,5.81965713 7.40790138,5.6923947 7.20500398,5.52500398 L6.57500398,5.07500398 C6.54334958,5.04394986 6.50480085,5.02082063 6.46250398,5.00750398 C6.36466778,4.97032078 6.25659017,4.97032078 6.15875398,5.00750398 C6.10394278,5.0315284 6.05428438,5.06590729 6.01250398,5.10875398 L5.09375398,6.02750398 C5.02041001,6.09901641 4.97629818,6.1952604 4.97000398,6.29750398 C4.96197353,6.40114617 4.9897735,6.50440318 5.04875398,6.59000398 L5.49875398,7.22000398 C5.75101058,7.55796047 5.910068,7.95625061 5.96000398,8.37500398 C6.01263726,8.79761565 5.95448487,9.226651 5.79125398,9.62000398 C5.47927781,10.4191904 4.76443063,10.9910682 3.91625398,11.120004 L3.16625398,11.255004 C3.06420999,11.2680791 2.97133604,11.3205731 2.90750398,11.401254 C2.84130293,11.479935 2.8053943,11.5796811 2.80625398,11.682504 L2.80625398,12.983754 C2.8053943,13.0865768 2.84130293,13.186323 2.90750398,13.265004 C2.97133604,13.3456848 3.06420999,13.3981788 3.16625398,13.411254 L3.91625398,13.546254 C4.77808731,13.6615913 5.50917802,14.2361223 5.82500398,15.046254 C5.98823487,15.439607 6.04638726,15.8686423 5.99375398,16.291254 C5.943818,16.7100073 5.78476058,17.1082975 5.53250398,17.446254 L5.08250398,18.076254 C5.0235235,18.1618548 4.99572353,18.2651118 5.00375398,18.368754 C5.01004818,18.4709976 5.05416001,18.5672415 5.12750398,18.638754 L6.04625398,19.557504 C6.08803438,19.6003507 6.13769278,19.6347296 6.19250398,19.658754 C6.29034017,19.6959372 6.39841778,19.6959372 6.49625398,19.658754 C6.53855085,19.6454373 6.57709958,19.6223081 6.60875398,19.591254 L7.23875398,19.141254 C7.44165138,18.9738632 7.67454161,18.8466008 7.92500398,18.766254 C8.16809744,18.6920144 8.42082721,18.6541049 8.67500398,18.653754 C9.26685804,18.6463697 9.84123773,18.8542658 10.291254,19.238754 C10.7487163,19.6147447 11.0451906,20.1513497 11.120004,20.738754 L11.255004,21.488754 C11.2680791,21.590798 11.3205731,21.6836719 11.401254,21.747504 C11.479935,21.813705 11.5796811,21.8496136 11.682504,21.848754 L12.983754,21.848754 C13.0865768,21.8496136 13.186323,21.813705 13.265004,21.747504 C13.3456848,21.6836719 13.3981788,21.590798 13.411254,21.488754 L13.546254,20.738754 C13.6225272,20.1518276 13.9187233,19.6157262 14.375004,19.238754 C14.8250202,18.8542658 15.3993999,18.6463697 15.991254,18.653754 C16.2454349,18.6540499 16.4981727,18.6919606 16.741254,18.766254 C16.9917163,18.8466008 17.2246066,18.9738632 17.427504,19.141254 L18.057504,19.591254 C18.0891584,19.6223081 18.1277071,19.6454373 18.170004,19.658754 C18.2678402,19.6959372 18.3759178,19.6959372 18.473754,19.658754 C18.5285652,19.6347296 18.5782236,19.6003507 18.620004,19.557504 L19.538754,18.638754 C19.6120979,18.5672415 19.6562098,18.4709976 19.662504,18.368754 C19.6705344,18.2651118 19.6427345,18.1618548 19.583754,18.076254 L19.133754,17.446254 C18.8814974,17.1082975 18.7224399,16.7100073 18.672504,16.291254 C18.6198707,15.8686423 18.6780231,15.439607 18.841254,15.046254 C19.1532301,14.2470675 19.8680773,13.6751898 20.716254,13.546254 L21.466254,13.411254 C21.568298,13.3981788 21.6611719,13.3456848 21.725004,13.265004 C21.78633,13.1857679 21.8181519,13.0876505 21.815004,12.987504 L21.815004,12.995004 Z M12.297504,8.47625398 C14.4260682,8.48243272 16.1500752,10.2064398 16.156254,12.335004 C16.1500752,14.4635682 14.4260682,16.1875752 12.297504,16.193754 C10.1689398,16.1875752 8.44493272,14.4635682 8.43875398,12.335004 C8.44493272,10.2064398 10.1689398,8.48243272 12.297504,8.47625398 L12.297504,8.47625398 Z M12.297504,15.391254 C13.9822489,15.3850726 15.3458911,14.0197553 15.350004,12.335004 C15.3438343,10.651717 13.980791,9.28867369 12.297504,9.28250398 C10.614217,9.28867369 9.25117369,10.651717 9.24500398,12.335004 C9.25117369,14.018291 10.614217,15.3813343 12.297504,15.387504 L12.297504,15.391254 Z" id="path-1"></path>
    </defs>
    <g id="settings" stroke="none" stroke-width="1" fill="none" fill-rule="evenodd">
        <mask id="mask-2" fill="white">
            <use xlink:href="#path-1"></use>
        </mask>
        <use id="↳🎨Colour" fill="#232323" xlink:href="#path-1"></use>
    </g>
</svg>