<svg xmlns="http://www.w3.org/2000/svg" xmlns:xlink="http://www.w3.org/1999/xlink" width="28" height="24" viewBox="0 0 28 24">
    <defs>
        <path id="a" d="M8.846 19.083a4.925 4.925 0 0 1-3.388-2.055l-.74.127a2.75 2.75 0 0 1-.46.039c-1.722 0-3.685-1.547-4.16-4.158-.516-2.848 1.078-5.094 2.892-5.404l1.26-.215c.327-.055.656.015.928.2.271.185.453.462.51.778l1.298 7.147c.058.318-.015.637-.206.901-.13.182-.305.321-.508.41a4.166 4.166 0 0 0 2.642 1.489c.188-.422.62-.718 1.124-.718.676 0 1.223.532 1.223 1.188 0 .656-.547 1.188-1.223 1.188-.58 0-1.066-.391-1.192-.917zm8.027-12.941a.434.434 0 0 1-.44-.428c0-2.403-.705-4.86-5.933-4.86s-5.933 2.457-5.933 4.86a.434.434 0 0 1-.44.428.434.434 0 0 1-.44-.428C3.687 3.261 4.394 0 10.5 0s6.813 3.261 6.813 5.714a.434.434 0 0 1-.44.428zm-.117 11.053c-.16 0-.318-.014-.475-.04l-1.26-.216a1.238 1.238 0 0 1-.801-.496 1.169 1.169 0 0 1-.206-.9l1.298-7.148c.058-.317.239-.593.51-.778.272-.185.602-.255.928-.2l1.26.215c1.814.31 3.408 2.556 2.891 5.404-.236 1.298-.865 2.438-1.774 3.21-.724.616-1.566.949-2.37.949zm-.222-8.942a.368.368 0 0 0-.207.064.349.349 0 0 0-.148.226l-1.299 7.148a.343.343 0 0 0 .06.263.36.36 0 0 0 .233.143l1.261.216c.676.116 1.446-.143 2.114-.71.758-.644 1.286-1.608 1.487-2.715.425-2.345-.783-4.176-2.178-4.414l-1.26-.215a.375.375 0 0 0-.063-.006zm-13.392.22c-1.395.24-2.602 2.07-2.177 4.415.426 2.344 2.206 3.661 3.6 3.425l1.262-.216a.359.359 0 0 0 .233-.144.34.34 0 0 0 .06-.262L4.82 8.543a.349.349 0 0 0-.148-.226.366.366 0 0 0-.27-.058l-1.26.214z"/>
    </defs>
    <g fill="none" fill-rule="evenodd">
        <use fill="#272B33" transform="translate(2.154 3)" xlink:href="#a"/>
        <path d="M.154 0h24v24h-24z"/>
    </g>
</svg>
