<?xml version="1.0" encoding="UTF-8"?>
<svg width="36px" height="44px" viewBox="0 0 36 44" version="1.1" xmlns="http://www.w3.org/2000/svg" xmlns:xlink="http://www.w3.org/1999/xlink">
    <!-- Generator: Sketch 49.2 (51160) - http://www.bohemiancoding.com/sketch -->
    <title>Artboard</title>
    <desc>Created with Sketch.</desc>
    <defs>
        <path d="M0,3.00579694 C0,1.34574113 1.34553934,0 3.00741988,0 L32.9925801,0 C34.6535323,0 36,1.34302916 36,3.00579694 L36,30.2048435 C36,31.8648993 34.8740194,33.9456775 33.4877075,34.8506581 L20.5122925,43.3209734 C19.1247917,44.2267302 16.8740194,44.2259541 15.4877075,43.3209734 L2.51229254,34.8506581 C1.12479169,33.9449014 0,31.8676113 0,30.2048435 L0,3.00579694 Z" id="path-1"></path>
        <path d="M0,3.00579694 C0,1.34574113 1.34553934,0 3.00741988,0 L32.9925801,0 C34.6535323,0 36,1.34302916 36,3.00579694 L36,30.2048435 C36,31.8648993 34.8740194,33.9456775 33.4877075,34.8506581 L20.5122925,43.3209734 C19.1247917,44.2267302 16.8740194,44.2259541 15.4877075,43.3209734 L2.51229254,34.8506581 C1.12479169,33.9449014 0,31.8676113 0,30.2048435 L0,3.00579694 Z" id="path-3"></path>
        <path d="M5.17,15.63 C5.87,16.263 6.868,16.48 8.143,16.278 C8.28723064,16.2593379 8.43294661,16.2989882 8.54783537,16.3881584 C8.66272412,16.4773286 8.73729072,16.6086493 8.755,16.753 C8.80543824,17.0544003 8.60536558,17.3407266 8.305,17.397 C7.96055646,17.4538537 7.61210254,17.4829473 7.263,17.484 C6.135,17.484 5.195,17.149 4.463,16.481 C3.128,15.263 2.946,13.345 2.923,12.789 C2.293,12.692 1.793,12.589 1.366,12.565 C0.6,12.521 0,11.724 0,10.748 L0,7.253 C0,6.28 0.6,5.483 1.366,5.438 C1.844,5.41 2.471,5.284 3.129,5.18 C3.585,5.108 3.993,5.475 3.993,5.96 L3.993,12.634 C3.993,12.676 4.003,14.57 5.171,15.63 L5.17,15.63 Z M13.973,0.11 C14.56,0.37 14.939,1.044 14.939,1.827 L14.939,16.177 C14.939,16.958 14.56,17.632 13.973,17.892 C13.8179029,17.9627675 13.6494786,17.999589 13.479,18 C13.166,18 12.864,17.87 12.599,17.634 C9.677,15.019 6.504,13.678 5.374,13.29 C5.14749993,13.2109093 4.99690715,12.9958918 5,12.756 L5,5.244 C5,5.004 5.145,4.792 5.369,4.712 C6.577,4.288 10.153,2.792 12.599,0.368 C12.9557853,-0.000201474466 13.5058938,-0.103572203 13.972,0.11 L13.973,0.11 Z M16.382,6.292 C17.3917537,6.88472644 18.008546,7.97116516 18,9.142 C18.0076063,10.3144122 17.3888419,11.4017296 16.377,11.994 C16.3494081,12.0057504 16.3199533,12.0125217 16.29,12.014 C16.1372374,12.0096391 16.0166394,11.8827879 16.02,11.73 L16.02,6.554 C16.02,6.399 16.14,6.271 16.29,6.271 C16.322,6.271 16.352,6.281 16.38,6.291 L16.382,6.292 Z" id="path-5"></path>
    </defs>
    <g id="Artboard" stroke="none" stroke-width="1" fill="none" fill-rule="evenodd">
        <g id="tag-megaphone">
            <g id="Backgrounds/Sketch-Only/Liked-Hot-Clipped">
                <mask id="mask-2" fill="white">
                    <use xlink:href="#path-1"></use>
                </mask>
                <g id="path-1"></g>
                <g id="Backgrounds/Sketch-Only/Liked-Hot" mask="url(#mask-2)" fill="#60666E" fill-rule="nonzero">
                    <rect id="grey-900-opacity-3" x="0" y="0" width="36" height="44"></rect>
                </g>
            </g>
            <g id="Icons/UI/Fire-Fill-Clipped">
                <mask id="mask-4" fill="white">
                    <use xlink:href="#path-3"></use>
                </mask>
                <g id="path-1"></g>
            </g>
            <g id="Group" transform="translate(9.154000, 11.000000)">
                <g id="a-link" fill="#000000" fill-rule="nonzero">
                    <path d="M5.17,15.63 C5.87,16.263 6.868,16.48 8.143,16.278 C8.28723064,16.2593379 8.43294661,16.2989882 8.54783537,16.3881584 C8.66272412,16.4773286 8.73729072,16.6086493 8.755,16.753 C8.80543824,17.0544003 8.60536558,17.3407266 8.305,17.397 C7.96055646,17.4538537 7.61210254,17.4829473 7.263,17.484 C6.135,17.484 5.195,17.149 4.463,16.481 C3.128,15.263 2.946,13.345 2.923,12.789 C2.293,12.692 1.793,12.589 1.366,12.565 C0.6,12.521 0,11.724 0,10.748 L0,7.253 C0,6.28 0.6,5.483 1.366,5.438 C1.844,5.41 2.471,5.284 3.129,5.18 C3.585,5.108 3.993,5.475 3.993,5.96 L3.993,12.634 C3.993,12.676 4.003,14.57 5.171,15.63 L5.17,15.63 Z M13.973,0.11 C14.56,0.37 14.939,1.044 14.939,1.827 L14.939,16.177 C14.939,16.958 14.56,17.632 13.973,17.892 C13.8179029,17.9627675 13.6494786,17.999589 13.479,18 C13.166,18 12.864,17.87 12.599,17.634 C9.677,15.019 6.504,13.678 5.374,13.29 C5.14749993,13.2109093 4.99690715,12.9958918 5,12.756 L5,5.244 C5,5.004 5.145,4.792 5.369,4.712 C6.577,4.288 10.153,2.792 12.599,0.368 C12.9557853,-0.000201474466 13.5058938,-0.103572203 13.972,0.11 L13.973,0.11 Z M16.382,6.292 C17.3917537,6.88472644 18.008546,7.97116516 18,9.142 C18.0076063,10.3144122 17.3888419,11.4017296 16.377,11.994 C16.3494081,12.0057504 16.3199533,12.0125217 16.29,12.014 C16.1372374,12.0096391 16.0166394,11.8827879 16.02,11.73 L16.02,6.554 C16.02,6.399 16.14,6.271 16.29,6.271 C16.322,6.271 16.352,6.281 16.38,6.291 L16.382,6.292 Z" id="a"></path>
                </g>
                <g id="Clipped">
                    <mask id="mask-6" fill="white">
                        <use xlink:href="#path-5"></use>
                    </mask>
                    <g id="a"></g>
                    <g id="Group" mask="url(#mask-6)" fill="#FFFFFF" fill-rule="nonzero">
                        <g transform="translate(-3.000000, -3.000000)" id="Shape">
                            <polygon points="0 0 24 0 24 24 0 24"></polygon>
                        </g>
                    </g>
                </g>
            </g>
        </g>
    </g>
</svg>