<?xml version="1.0" encoding="UTF-8"?>
<svg width="36px" height="44px" viewBox="0 0 36 44" version="1.1" xmlns="http://www.w3.org/2000/svg" xmlns:xlink="http://www.w3.org/1999/xlink">
    <!-- Generator: Sketch 50.2 (55047) - http://www.bohemiancoding.com/sketch -->
    <title>Cards/Assets/tag-hot</title>
    <desc>Created with Sketch.</desc>
    <defs>
        <path d="M0,3.00579694 C0,1.34574113 1.34553934,0 3.00741988,0 L32.9925801,0 C34.6535323,0 36,1.34302916 36,3.00579694 L36,30.2048435 C36,31.8648993 34.8740194,33.9456775 33.4877075,34.8506581 L20.5122925,43.3209734 C19.1247917,44.2267302 16.8740194,44.2259541 15.4877075,43.3209734 L2.51229254,34.8506581 C1.12479169,33.9449014 0,31.8676113 0,30.2048435 L0,3.00579694 Z" id="path-1"></path>
        <path d="M12.3660208,20.6887584 C12.2770656,20.601298 12.2113314,20.4930299 12.1747708,20.3737584 C12.1420008,20.2509062 12.1420008,20.1216107 12.1747708,19.9987584 C12.2363958,19.533597 12.205814,19.060853 12.0847708,18.6075084 C11.9743099,18.1896548 11.7660841,17.8040517 11.4772708,17.4825084 C11.1773966,17.1289554 10.7892379,16.861126 10.3522708,16.7062584 C9.87196595,16.5302568 9.36378342,16.4425953 8.8522708,16.4475084 C8.27469245,16.4187632 7.70024298,16.5484358 7.1910208,16.8225084 C6.83470658,17.0238595 6.50997526,17.2765687 6.2272708,17.5725084 C5.93848149,17.9157694 5.72740021,18.3174635 5.6085208,18.7500084 C5.49014444,19.158069 5.46705104,19.5878628 5.5410208,20.0062584 C5.55799732,20.1315315 5.55035437,20.2589139 5.5185208,20.3812584 C5.48793194,20.5027403 5.43447901,20.6172822 5.3610208,20.7187584 C5.27545534,20.8205466 5.16769577,20.9013663 5.0460208,20.9550084 C4.92823387,21.0082132 4.8002599,21.0350877 4.6710208,21.0337584 C4.60285603,21.0345401 4.53485142,21.026984 4.4685208,21.0112584 C4.40622981,20.9954184 4.34586768,20.9727826 4.2885208,20.9437584 C3.64098571,20.6594241 3.03939096,20.2802677 2.5035208,19.8187584 C1.9572493,19.3470735 1.49118559,18.7898234 1.1235208,18.1687584 C0.76395478,17.5840047 0.485175155,16.9532816 0.294770798,16.2937584 C0.100189584,15.6222761 0.0017112494,14.926615 0.00227079848,14.2275084 C-0.0188874848,13.3635814 0.107942771,12.5024039 0.377270798,11.6812584 C0.608075124,10.9735079 0.928154651,10.2980645 1.3297708,9.6712584 C1.6826692,9.1291343 2.09249653,8.62627868 2.5522708,8.1712584 C2.9872708,7.7437584 3.3685208,7.3812584 3.6960208,7.0837584 C3.77509814,7.00584109 3.86628008,6.94125389 3.9660208,6.8925084 C4.07082992,6.84026951 4.18641553,6.81329953 4.3035208,6.8137584 C4.41595606,6.81151431 4.52745672,6.83458342 4.6297708,6.8812584 C4.72605656,6.92536244 4.81368439,6.98632093 4.8885208,7.0612584 C4.94866928,7.13646889 4.9979046,7.2197902 5.0347708,7.3087584 C5.07140167,7.39408686 5.09052959,7.48590085 5.0910208,7.5787584 L5.0910208,7.6237584 C4.96248234,8.43214206 4.93226258,9.2531123 5.0010208,10.0687584 C5.06756219,10.667387 5.35506072,11.2196516 5.8072708,11.6175084 C5.94470942,11.7239653 6.0961259,11.8110298 6.2572708,11.8762584 C6.42143829,11.9436972 6.59729235,11.9781034 6.7747708,11.9775084 C6.9968818,11.9783423 7.21623555,11.9283143 7.4160208,11.8312584 C7.60161409,11.7515216 7.76133168,11.6216699 7.8772708,11.4562584 C8.15607553,11.0065437 8.21408468,10.4540755 8.0347708,9.9562584 C7.88803261,9.38220374 7.70004402,8.81949123 7.4722708,8.2725084 C7.05180048,7.31360615 6.78964653,6.29285213 6.6960208,5.2500084 C6.6106951,4.42003474 6.73981425,3.58205144 7.0710208,2.8162584 C7.3613722,2.15335397 7.81092954,1.57240738 8.3797708,1.1250084 C9.02197832,0.625120152 9.74841553,0.244121612 10.5247708,8.40441504e-06 L10.6597708,8.40441504e-06 L10.7722708,8.40441504e-06 C10.9201883,-0.000691705644 11.06501,0.0423633999 11.1885208,0.123758404 C11.3081588,0.197535989 11.4054005,0.302557002 11.4697708,0.427508404 C11.5282564,0.55419554 11.5552726,0.69313621 11.5485208,0.832508404 C11.546036,0.967128491 11.5028978,1.09785023 11.4247708,1.2075084 C11.0305165,1.91132873 11.0520899,2.7742677 11.4810208,3.4575084 C12.067857,4.34439268 12.7411477,5.17093235 13.4910208,5.9250084 C13.9560208,6.4250084 14.4347708,6.9525084 14.9272708,7.5075084 C15.4324808,8.08459768 15.8866831,8.70442059 16.2847708,9.3600084 C16.7073413,10.0589882 17.0459336,10.8054017 17.2935208,11.5837584 C17.5577166,12.4485967 17.6842624,13.349603 17.6685208,14.2537584 C17.6664909,14.8873355 17.5743171,15.5174006 17.3947708,16.1250084 C17.1995798,16.7791371 16.9290141,17.4083597 16.5885208,18.0000084 C16.2111923,18.6441237 15.7425798,19.2302051 15.1972708,19.7400084 C14.6816144,20.2253518 14.0900579,20.6231007 13.4460208,20.9175084 C13.3852896,20.9477885 13.3210543,20.9704598 13.2547708,20.9850084 C13.1920341,20.9994721 13.1279013,21.0070171 13.0635208,21.0075084 C12.9344434,21.0072488 12.8067989,20.9804434 12.6885208,20.9287584 C12.5637586,20.8750324 12.4533103,20.7928383 12.3660208,20.6887584 L12.3660208,20.6887584 Z" id="path-3"></path>
    </defs>
    <g id="Cards/Assets/tag-hot" stroke="none" stroke-width="1" fill="none" fill-rule="evenodd">
        <mask id="mask-2" fill="white">
            <use xlink:href="#path-1"></use>
        </mask>
        <g id="Mask"></g>
        <g id="Backgrounds/Sketch-Only/Liked-Hot" mask="url(#mask-2)" fill="#60666E">
            <rect id="grey-900-opacity-3" x="0" y="0" width="36" height="44"></rect>
        </g>
        <g id="Icons/UI/Fire-Fill" mask="url(#mask-2)">
            <g transform="translate(6.000000, 8.000000)">
                <g id="↳Colour" stroke-width="1" fill-rule="evenodd" transform="translate(3.000000, 1.000000)">
                    <mask id="mask-4" fill="white">
                        <use xlink:href="#path-3"></use>
                    </mask>
                    <use id="↳🎨Colour" fill="#272B33" xlink:href="#path-3"></use>
                    <g id="Backgrounds/Sketch-Only/Inverted-Icons" mask="url(#mask-4)" fill="#FAFAFA">
                        <g transform="translate(-3.000000, -1.000000)" id="grey-900-opacity-3">
                            <rect x="0" y="0" width="24" height="24"></rect>
                        </g>
                    </g>
                </g>
                <rect id="Bounding-Box" x="0" y="0" width="24" height="24"></rect>
            </g>
        </g>
    </g>
</svg>