<?xml version="1.0" encoding="UTF-8"?>
<svg width="24px" height="24px" viewBox="0 0 24 24" version="1.1" xmlns="http://www.w3.org/2000/svg" xmlns:xlink="http://www.w3.org/1999/xlink">
    <!-- Generator: Sketch 50.2 (55047) - http://www.bohemiancoding.com/sketch -->
    <title>transactions</title>
    <desc>Created with Sketch.</desc>
    <defs>
        <path d="M14.7492301,14.1833346 C14.9574022,14.1833346 15.1261591,14.3504424 15.1261591,14.5565802 L15.1261591,15.2022952 C15.1261591,15.8207088 14.6198886,16.3220321 13.9953722,16.3220321 L9.8001529,16.3220321 C9.59198079,16.3220321 9.42322395,16.1549244 9.42322395,15.9487865 C9.42322395,15.7426486 9.59198079,15.5755408 9.8001529,15.5755408 L13.9953722,15.5755408 C14.2035443,15.5755408 14.3723012,15.4084331 14.3723012,15.2022952 L14.3723012,14.5565802 C14.3723012,14.3504424 14.541058,14.1833346 14.7492301,14.1833346 Z M10.3693156,4.10570212 C10.3693359,4.20600008 10.3285907,4.30208562 10.2562639,4.37230135 C10.183937,4.44251709 10.0861156,4.48095372 9.98484809,4.47894776 L5.65393437,4.47894776 C5.44576225,4.47894776 5.27700541,4.31184 5.27700541,4.10570212 C5.27700541,3.89956424 5.44576225,3.73245647 5.65393437,3.73245647 L9.99238667,3.73245647 C10.2005588,3.73245647 10.3693156,3.89956424 10.3693156,4.10570212 Z M8.85406122,6.345176 C8.98872497,6.345176 9.1131594,6.41631622 9.18049127,6.53179882 C9.24782315,6.64728143 9.24782315,6.78956186 9.18049127,6.90504447 C9.1131594,7.02052707 8.98872497,7.09166729 8.85406122,7.09166729 L5.65393437,7.09166729 C5.44576225,7.09166729 5.27700541,6.92455952 5.27700541,6.71842165 C5.27700541,6.51228377 5.44576225,6.345176 5.65393437,6.345176 L8.85406122,6.345176 Z M8.85406122,8.95789553 C8.98872497,8.95789553 9.1131594,9.02903575 9.18049127,9.14451835 C9.24782315,9.26000096 9.24782315,9.40228139 9.18049127,9.517764 C9.1131594,9.6332466 8.98872497,9.70438682 8.85406122,9.70438682 L5.65393437,9.70438682 C5.44576225,9.70438682 5.27700541,9.53727905 5.27700541,9.33114117 C5.27700541,9.1250033 5.44576225,8.95789553 5.65393437,8.95789553 L8.85406122,8.95789553 Z M8.85406122,11.5706151 C8.98872497,11.5706151 9.1131594,11.6417553 9.18049127,11.7572379 C9.24782315,11.8727205 9.24782315,12.0150009 9.18049127,12.1304835 C9.1131594,12.2459661 8.98872497,12.3171064 8.85406122,12.3171064 L5.65393437,12.3171064 C5.44576225,12.3171064 5.27700541,12.1499986 5.27700541,11.9438607 C5.27700541,11.7377228 5.44576225,11.5706151 5.65393437,11.5706151 L8.85406122,11.5706151 Z M14.9001498,3.35921082 C17.7143872,3.36126594 19.9958424,5.61875729 19.9999986,8.40549197 C20.0015234,10.4483708 18.7599523,12.2909342 16.8543906,13.0737565 C14.9488289,13.8565788 12.7546751,13.4254429 11.2953469,11.9814432 C9.83601872,10.5374434 9.399006,8.36504999 10.1881443,6.47753096 C10.9772827,4.59001194 12.8371106,3.35921138 14.9001498,3.35921082 Z M14.9001498,12.7127467 L14.9001498,12.690352 C17.030943,12.6998537 18.8544269,11.1782095 19.2061099,9.0971536 C19.5577929,7.01609769 18.3339372,4.98949111 16.3161067,4.31154114 C14.2982763,3.63359117 12.0816823,4.50427662 11.0818595,6.36757074 L15.9367044,6.36757074 C16.1448765,6.36757074 16.3136334,6.53467851 16.3136334,6.74081638 C16.3136334,6.94695426 16.1448765,7.11406203 15.9367044,7.11406203 L10.7614698,7.11406203 C10.4867908,7.96373169 10.4867908,8.8771119 10.7614698,9.72678156 L15.9367044,9.72678156 C16.1448765,9.72678156 16.3136334,9.89388933 16.3136334,10.1000272 C16.3136334,10.3061651 16.1448765,10.4732729 15.9367044,10.4732729 L11.0818595,10.4732729 C11.8454193,11.8548919 13.3096296,12.7136691 14.9001498,12.7127467 Z M13.3244387,0 C14.3579834,-5.1173521e-05 15.198748,0.824172037 15.2090834,1.84756595 L15.2090834,2.2208116 C15.2090834,2.42694948 15.0403266,2.59405725 14.8321545,2.59405725 C14.6239824,2.59405725 14.4552255,2.42694948 14.4552255,2.2208116 L14.4552255,1.84756595 C14.4552255,1.22915232 13.948955,0.727829012 13.3244387,0.727829012 L3.29812838,0.727829012 L3.29812838,0.709166729 C3.54279698,1.03220369 3.67505734,1.42510747 3.67505734,1.82890367 C3.66374947,7.00955325 3.64113373,13.6495933 3.64113373,15.2844092 C3.6415501,15.3823265 3.68080771,15.4761602 3.75044313,15.5456812 C3.82157672,15.6155477 3.91787385,15.654496 4.01806269,15.6539224 L7.53857916,15.6539224 L10.3542385,12.8881722 C10.5037889,12.761352 10.7267175,12.7698786 10.8659434,12.907744 C11.0051693,13.0456094 11.01378,13.2663595 10.8857083,13.4144486 L6.36256081,17.8933963 C6.21371775,18.0376928 5.97492681,18.0351862 5.82920633,17.8877976 C5.68348585,17.740409 5.68601721,17.5039516 5.83486027,17.359655 L6.78472124,16.4004137 L4.01806269,16.4004137 C3.39354635,16.4004137 2.88727582,15.8990904 2.88727582,15.2806768 C2.8948144,13.6607907 2.92119942,7.02448308 2.92119942,1.8438335 C2.92176852,1.24388373 2.44471475,0.750094125 1.83941331,0.724096555 C1.2311654,0.748202862 0.751341825,1.24478471 0.753857916,1.84756595 C0.765165784,6.39743039 0.784012232,10.7718694 0.784012232,12.8807073 C0.784012232,13.0868452 0.952769075,13.2539529 1.16094119,13.2539529 L1.72256534,13.2539529 C1.93073745,13.2539529 2.0994943,13.4210607 2.0994943,13.6271986 C2.0994943,13.8333364 1.93073745,14.0004442 1.72256534,14.0004442 L1.16094119,14.0004442 C0.536424845,14.0004442 0.0301543166,13.4991209 0.0301543166,12.8807073 C0.0226157375,10.7718694 0,6.39369793 0,1.8438335 C0.00631805693,0.892982404 0.733591548,0.0988700719 1.68864173,0 L13.3244387,0 Z" id="path-1"></path>
    </defs>
    <g id="transactions" stroke="none" stroke-width="1" fill="none" fill-rule="evenodd">
        <g id="Icons/UI/document-search">
            <g id="↳Colour" stroke-width="1" fill-rule="evenodd" transform="translate(2.000000, 4.000000)">
                <mask id="mask-2" fill="white">
                    <use xlink:href="#path-1"></use>
                </mask>
                <use id="↳🎨Colour" fill="#272B33" xlink:href="#path-1"></use>
                <g id="Backgrounds/Style-Guide/grey-800" mask="url(#mask-2)" fill="#272B33">
                    <g transform="translate(-2.000000, -4.000000)" id="grey-800">
                        <rect x="0" y="0" width="24" height="24"></rect>
                    </g>
                </g>
            </g>
            <rect id="Bounding-Box" x="0" y="0" width="24" height="24"></rect>
        </g>
    </g>
</svg>