<?xml version="1.0" encoding="UTF-8"?>
<svg width="24px" height="24px" viewBox="0 0 24 24" version="1.1" xmlns="http://www.w3.org/2000/svg" xmlns:xlink="http://www.w3.org/1999/xlink">
    <!-- Generator: Sketch 50.2 (55047) - http://www.bohemiancoding.com/sketch -->
    <title>withdrawals</title>
    <desc>Created with Sketch.</desc>
    <defs>
        <path d="M9.16666667,19.25 L1.83343067,19.25 C0.820854869,19.25 0,18.4232122 0,17.4088473 L0,10.0911527 C0,9.07431213 0.825090677,8.25 1.83333333,8.25 L2.29166667,8.25 C2.54479718,8.25 2.75,8.46260579 2.75,8.70833333 C2.75,8.96146384 2.53739421,9.16666667 2.29166667,9.16666667 L1.8342897,9.16666667 C1.33049115,9.16666667 0.916666667,9.58143793 0.916666667,10.0911527 L0.916666667,17.4088473 C0.916666667,17.9188561 1.32902249,18.3333333 1.83343067,18.3333333 L9.16666667,18.3333333 L9.625,18.3333333 C9.87813051,18.3333333 10.0833333,18.5459391 10.0833333,18.7916667 C10.0833333,19.0447972 9.87072754,19.25 9.625,19.25 L9.16666667,19.25 Z M8.99330926,9.04910846 L7.19679659,10.8579962 C7.0141124,11.0263605 6.71792282,11.0263605 6.53523863,10.8579962 L1.98053487,6.23309835 C1.79785069,6.06473407 1.79785069,5.79176164 1.98053487,5.62339736 C2.16321906,5.45503308 2.45940864,5.45503308 2.64209283,5.62339736 L6.41666667,9.48386802 L6.41666667,0.504257994 C6.41666667,0.225763994 6.62186949,0 6.875,0 C7.12813051,0 7.33333333,0.225763994 7.33333333,0.504257994 L7.33333333,9.46981747 L11.1284964,5.62339736 C11.3111806,5.45503308 11.6073701,5.45503308 11.7900543,5.62339736 C11.9727385,5.79176164 11.9727385,6.06473407 11.7900543,6.23309835 L10.0189888,8.01636369 C9.64299721,8.32477666 9.29917194,8.67095702 8.99330926,9.04910846 Z M14.5288086,19.25 C11.3646772,19.25 8.79964193,16.6849647 8.79964193,13.5208333 C8.79964193,10.356702 11.3646772,7.79166667 14.5288086,7.79166667 C17.69294,7.79166667 20.2579753,10.356702 20.2579753,13.5208333 C20.2579753,16.6849647 17.69294,19.25 14.5288086,19.25 Z M14.5288086,18.3333333 C17.186679,18.3333333 19.3413086,16.1787037 19.3413086,13.5208333 C19.3413086,10.862963 17.186679,8.70833333 14.5288086,8.70833333 C11.8709382,8.70833333 9.71630859,10.862963 9.71630859,13.5208333 C9.71630859,16.1787037 11.8709382,18.3333333 14.5288086,18.3333333 Z M11.6875,14.2083333 C11.3078042,14.2083333 11,13.9005291 11,13.5208333 C11,13.1411376 11.3078042,12.8333333 11.6875,12.8333333 C12.0671958,12.8333333 12.375,13.1411376 12.375,13.5208333 C12.375,13.9005291 12.0671958,14.2083333 11.6875,14.2083333 Z M14.4375,14.2083333 C14.0578042,14.2083333 13.75,13.9005291 13.75,13.5208333 C13.75,13.1411376 14.0578042,12.8333333 14.4375,12.8333333 C14.8171958,12.8333333 15.125,13.1411376 15.125,13.5208333 C15.125,13.9005291 14.8171958,14.2083333 14.4375,14.2083333 Z M17.1875,14.2083333 C16.8078042,14.2083333 16.5,13.9005291 16.5,13.5208333 C16.5,13.1411376 16.8078042,12.8333333 17.1875,12.8333333 C17.5671958,12.8333333 17.875,13.1411376 17.875,13.5208333 C17.875,13.9005291 17.5671958,14.2083333 17.1875,14.2083333 Z" id="path-1"></path>
    </defs>
    <g id="withdrawals" stroke="none" stroke-width="1" fill="none" fill-rule="evenodd">
        <g id="Icons/UI/WIthdraw-Pending-Line" transform="translate(1.031860, 1.031860)">
            <g id="↳Colour" stroke-width="1" fill-rule="evenodd" transform="translate(0.916667, 0.916667)">
                <mask id="mask-2" fill="white">
                    <use xlink:href="#path-1"></use>
                </mask>
                <use id="↳🎨Colour" fill="#282B33" xlink:href="#path-1"></use>
                <g id="Backgrounds/Style-Guide/grey-800" mask="url(#mask-2)" fill="#272B33">
                    <g transform="translate(-0.916667, -0.916667)" id="grey-800">
                        <rect x="0" y="0" width="22" height="22"></rect>
                    </g>
                </g>
            </g>
            <rect id="Bounding-Box" x="0" y="0" width="22" height="22"></rect>
        </g>
    </g>
</svg>