<svg width="112" height="64" viewBox="0 0 112 64" xmlns="http://www.w3.org/2000/svg" xmlns:xlink="http://www.w3.org/1999/xlink"><title>balance</title><defs><rect id="a" width="112" height="36" rx="18"/><path d="M6.414 7.333H5.5v5.05a.46.46 0 0 0 .917 0v-5.05h7.161c1.053 0 1.917.815 1.999 1.834h-2.735a3.667 3.667 0 0 0-3.675 3.666 3.674 3.674 0 0 0 3.675 3.667h2.735a2.006 2.006 0 0 1-1.999 1.833H2.005c-1.107 0-2.005-.9-2.005-1.992V9.325c0-1.1.905-1.992 2.005-1.992h3.493V1.51L1.72 5.373a.496.496 0 0 1-.662 0 .408.408 0 0 1 0-.61L5.625.126a.496.496 0 0 1 .662 0l4.577 4.637a.408.408 0 0 1 0 .61.496.496 0 0 1-.662 0L6.414 1.508v5.825zm3.67 5.5a2.748 2.748 0 0 1 2.75-2.75h2.579c1.107 0 2.004.896 2.004 2.002v1.497c0 1.105-.9 2.001-2.004 2.001h-2.578a2.753 2.753 0 0 1-2.752-2.75zm2.75.917a.917.917 0 1 0 0-1.833.917.917 0 0 0 0 1.833z" id="c"/></defs><g fill="none" fill-rule="evenodd"><g transform="translate(0 14)"><mask id="b" fill="#fff"><use xlink:href="#a"/></mask><g mask="url(#b)" fill="#7C848C"><path d="M0 0h112v36H0z"/></g></g><g transform="translate(78 16)"><circle fill="#60666E" cx="16" cy="16" r="16"/><path d="M5 3h22v22H5z"/><g transform="translate(7.75 4.833)"><mask id="d" fill="#fff"><use xlink:href="#c"/></mask><use fill="#272B33" xlink:href="#c"/><g mask="url(#d)" fill="#FFF"><path d="M-2.75-1.833h22v22h-22z"/></g></g></g></g></svg>