<svg width="24" height="18" viewBox="0 0 24 18" xmlns="http://www.w3.org/2000/svg" xmlns:xlink="http://www.w3.org/1999/xlink"><title>icon_more</title><defs><path d="M2 4a2 2 0 1 1 0-4 2 2 0 0 1 0 4zm8 0a2 2 0 1 1 0-4 2 2 0 0 1 0 4zm8 0a2 2 0 1 1 0-4 2 2 0 0 1 0 4z" id="a"/></defs><g fill="none" fill-rule="evenodd"><g transform="translate(2 7)"><mask id="b" fill="#fff"><use xlink:href="#a"/></mask><use fill="#272B33" xlink:href="#a"/><g mask="url(#b)" fill="#272B33"><path d="M-2-10h24v24H-2z"/></g></g><path d="M0 0h24v24H0z"/></g></svg>