<svg width="40" height="52" viewBox="0 0 40 52" xmlns="http://www.w3.org/2000/svg" xmlns:xlink="http://www.w3.org/1999/xlink"><title>icon_cogs</title><defs><path d="M19.59 8.46c.296.04.565.193.75.428.19.225.293.51.293.806v1.301c0 .295-.103.58-.293.806a1.144 1.144 0 0 1-.75.428l-.75.112a1.601 1.601 0 0 0-.75.338 1.642 1.642 0 0 0-.315 2.284l.424.622c.178.234.262.525.236.818a1.223 1.223 0 0 1-.375.795l-.919.896a1.07 1.07 0 0 1-.375.281 1.215 1.215 0 0 1-.483.101c-.129 0-.256-.023-.375-.067a1.459 1.459 0 0 1-.338-.18l-.63-.45a1.74 1.74 0 0 0-.982-.319 1.815 1.815 0 0 0-1.035.375 1.5 1.5 0 0 0-.62 1.043l-.112.75a1.144 1.144 0 0 1-.427.75c-.226.19-.512.293-.806.292h-1.31a1.204 1.204 0 0 1-.794-.292 1.264 1.264 0 0 1-.439-.75l-.112-.75a1.5 1.5 0 0 0-.63-1.043c-.298-.23-.66-.36-1.035-.375a1.62 1.62 0 0 0-.495.079 1.74 1.74 0 0 0-.473.236l-.622.461a1.459 1.459 0 0 1-.338.18c-.12.045-.247.068-.375.068-.166 0-.331-.035-.484-.101a1.076 1.076 0 0 1-.375-.282l-.918-.896a1.223 1.223 0 0 1-.375-.795 1.177 1.177 0 0 1 .213-.825l.45-.63c.179-.225.291-.495.327-.78a1.642 1.642 0 0 0-.63-1.5 1.601 1.601 0 0 0-.75-.337l-.75-.113a1.144 1.144 0 0 1-.75-.427A1.249 1.249 0 0 1 0 10.99V9.683c0-.295.103-.581.293-.807a1.14 1.14 0 0 1 .75-.427l.75-.113a1.6 1.6 0 0 0 .75-.337 1.643 1.643 0 0 0 .315-2.284l-.462-.63a1.177 1.177 0 0 1-.236-.817 1.22 1.22 0 0 1 .375-.795l.919-.897c.103-.12.23-.216.375-.281a1.2 1.2 0 0 1 .484-.101c.128 0 .255.023.375.067.12.045.233.106.337.18l.63.45c.145.103.304.182.473.237.16.051.326.078.495.078.38-.01.747-.14 1.05-.371a1.5 1.5 0 0 0 .618-1.042l.113-.75a1.14 1.14 0 0 1 .427-.75c.226-.19.512-.294.807-.293h1.3c.296 0 .581.103.807.293.235.184.388.453.428.75l.112.75a1.5 1.5 0 0 0 .638 1.042c.303.221.667.343 1.042.349.167-.001.333-.028.491-.079a1.74 1.74 0 0 0 .473-.236l.619-.435c.104-.075.217-.135.337-.18.12-.045.247-.068.375-.068.166 0 .331.035.484.102.144.065.272.16.375.28l.919.897c.219.21.352.493.375.795.034.292-.042.586-.214.825l-.45.63a1.564 1.564 0 0 0-.326.78c-.07.576.17 1.146.63 1.5.216.176.474.292.75.338l.787.127zm.225 2.535V9.683a.431.431 0 0 0-.36-.428l-.75-.135a2.389 2.389 0 0 1-1.909-1.5 2.456 2.456 0 0 1 .293-2.4l.45-.63a.454.454 0 0 0 .079-.292.413.413 0 0 0-.124-.27l-.919-.92a.465.465 0 0 0-.146-.1.427.427 0 0 0-.304 0 .281.281 0 0 0-.112.067l-.63.45a2.074 2.074 0 0 1-.687.375 2.576 2.576 0 0 1-.75.113 2.441 2.441 0 0 1-1.616-.585 2.321 2.321 0 0 1-.829-1.5l-.135-.75a.431.431 0 0 0-.428-.36h-1.29a.431.431 0 0 0-.427.36l-.135.75a2.336 2.336 0 0 1-.828 1.5 2.441 2.441 0 0 1-1.617.585 2.58 2.58 0 0 1-.75-.113 2.074 2.074 0 0 1-.686-.375l-.63-.45a.281.281 0 0 0-.112-.067.427.427 0 0 0-.304 0 .465.465 0 0 0-.146.1l-.92.92a.412.412 0 0 0-.123.27.454.454 0 0 0 .079.292l.45.63a2.456 2.456 0 0 1 .292 2.4 2.4 2.4 0 0 1-1.875 1.5l-.75.135a.431.431 0 0 0-.36.428v1.3a.431.431 0 0 0 .36.428l.75.135a2.39 2.39 0 0 1 1.909 1.5 2.456 2.456 0 0 1-.292 2.4l-.45.63a.454.454 0 0 0-.08.293.416.416 0 0 0 .125.27l.918.919a.465.465 0 0 0 .147.1.427.427 0 0 0 .303 0 .281.281 0 0 0 .113-.067l.63-.45c.203-.167.436-.294.686-.375a2.58 2.58 0 0 1 .75-.112c.592-.008 1.166.2 1.616.585.458.376.754.912.829 1.5l.135.75a.431.431 0 0 0 .428.36h1.3a.431.431 0 0 0 .428-.36l.135-.75a2.336 2.336 0 0 1 .829-1.5 2.441 2.441 0 0 1 1.616-.585c.254 0 .507.038.75.112.25.08.484.208.687.375l.63.45c.031.031.07.054.112.068a.427.427 0 0 0 .304 0 .465.465 0 0 0 .146-.101l.919-.92a.413.413 0 0 0 .124-.27.454.454 0 0 0-.08-.292l-.45-.63a2.456 2.456 0 0 1-.293-2.4 2.4 2.4 0 0 1 1.876-1.5l.75-.135a.394.394 0 0 0 .259-.146.431.431 0 0 0 .09-.277v.007zm-9.517-4.519a3.87 3.87 0 0 1 3.858 3.859 3.87 3.87 0 0 1-3.858 3.859 3.87 3.87 0 0 1-3.86-3.859 3.87 3.87 0 0 1 3.86-3.859zm0 6.915a3.064 3.064 0 0 0 3.052-3.056 3.064 3.064 0 0 0-3.052-3.052 3.064 3.064 0 0 0-3.053 3.052 3.064 3.064 0 0 0 3.053 3.053v.003z" id="a"/></defs><g transform="translate(10 16)" fill="none" fill-rule="evenodd"><mask id="b" fill="#fff"><use xlink:href="#a"/></mask><use fill="#272B33" xlink:href="#a"/><g mask="url(#b)" fill="#F9F9F9"><path d="M-2-2h24v24H-2z"/></g></g></svg>