<svg width="40" height="52" viewBox="0 0 40 52" xmlns="http://www.w3.org/2000/svg" xmlns:xlink="http://www.w3.org/1999/xlink"><title>icon_pending-withdraw</title><defs><path d="M10 21H2c-1.105 0-2-.902-2-2.009V11.01C0 9.899.9 9 2 9h.5c.276 0 .5.232.5.5 0 .276-.232.5-.5.5h-.499C1.451 10 1 10.452 1 11.009v7.982C1 19.548 1.45 20 2 20h8.5c.276 0 .5.232.5.5 0 .276-.232.5-.5.5H10zM9.81 9.872l-1.959 1.973a.542.542 0 0 1-.722 0L2.161 6.8a.445.445 0 0 1 0-.665.542.542 0 0 1 .721 0L7 10.346V.55c0-.304.224-.55.5-.55s.5.246.5.55v9.78l4.14-4.195a.542.542 0 0 1 .722 0c.2.183.2.481 0 .665L10.93 8.745a7.81 7.81 0 0 0-1.12 1.127zM15.85 21a6.25 6.25 0 1 1 0-12.5 6.25 6.25 0 0 1 0 12.5zm0-1a5.25 5.25 0 1 0 0-10.5 5.25 5.25 0 0 0 0 10.5zm-3.1-4.5a.75.75 0 1 1 0-1.5.75.75 0 0 1 0 1.5zm3 0a.75.75 0 1 1 0-1.5.75.75 0 0 1 0 1.5zm3 0a.75.75 0 1 1 0-1.5.75.75 0 0 1 0 1.5z" id="a"/></defs><g transform="translate(9 16)" fill="none" fill-rule="evenodd"><mask id="b" fill="#fff"><use xlink:href="#a"/></mask><use fill="#282B33" xlink:href="#a"/><g mask="url(#b)" fill="#F9F9F9"><path d="M-1-1h24v24H-1z"/></g></g></svg>