<svg width="121" height="64" viewBox="0 0 121 64" xmlns="http://www.w3.org/2000/svg"><title>logo</title><g fill="none" fill-rule="evenodd"><path d="M115 41v-3.42h3.992V41H115zm3.88-5.868h-3.752L115.008 23H119l-.12 12.132zM104.5 26c-4.135 0-7.5 2.767-7.5 6.522V41h4.239v-8.34c0-1.633 1.463-2.976 3.261-2.976s3.261 1.343 3.261 2.976V41H112v-8.478c0-3.755-3.364-6.522-7.5-6.522m-19 12.292c-2.514 0-4.56-1.926-4.56-4.292 0-2.366 2.046-4.291 4.56-4.291s4.56 1.925 4.56 4.291c0 2.366-2.046 4.292-4.56 4.292M85.5 26c-4.687 0-8.5 3.589-8.5 8s3.813 8 8.5 8c4.687 0 8.5-3.589 8.5-8s-3.813-8-8.5-8" fill="#8EB50D"/><path d="M67.04 29.347c1.153 0 2.177.37 2.961 1.07a4.37 4.37 0 0 1 1.309 2.18h-8.561c.351-1.61 1.927-3.25 4.292-3.25m7.912 3.593c-.186-2.023-1.058-3.765-2.55-5.04-1.436-1.225-3.34-1.9-5.361-1.9-2.167 0-4.185.816-5.683 2.3C59.838 29.803 59 31.864 59 34.1c0 2.336.877 4.342 2.535 5.798C63.077 41.254 65.163 42 67.411 42c2.793 0 5.073-.92 6.778-2.733l-2.71-2.303c-.998 1.046-2.351 1.577-4.024 1.577-1.048 0-2.083-.288-2.915-.812-.87-.548-1.478-1.312-1.756-2.21l-.032-.103 12.158-.008s.17-1.078.043-2.468M50.483 26c-1.737 0-3.315.615-4.483 1.616C44.832 26.615 43.254 26 41.517 26 37.917 26 35 28.64 35 31.896V41h4.069v-9.104c0-1.224 1.096-2.215 2.448-2.215 1.352 0 2.448.991 2.448 2.215V41h4.07v-9.104c0-1.224 1.096-2.215 2.448-2.215 1.352 0 2.448.991 2.448 2.215V41H57v-9.104C57 28.64 54.082 26 50.483 26M23.5 38.292a4.693 4.693 0 0 1-3.18-1.22c-.85-.78-1.38-1.869-1.38-3.072 0-1.183.511-2.255 1.336-3.032a4.692 4.692 0 0 1 3.224-1.26c2.514 0 4.56 1.926 4.56 4.292 0 2.366-2.046 4.292-4.56 4.292M23.5 26c-2.731 0-5.165 1.219-6.722 3.11a7.897 7.897 0 0 0-1.158 1.893 7.547 7.547 0 0 0 0 5.994c.292.68.682 1.313 1.152 1.886C18.328 40.778 20.765 42 23.5 42c4.687 0 8.5-3.589 8.5-8s-3.813-8-8.5-8" fill="#F9F9F9"/><path d="M8.731 29.709c1.681 0 3.157.815 3.983 2.037L15 28.438C13.412 26.935 11.189 26 8.731 26 3.917 26 0 29.589 0 34s3.917 8 8.731 8c2.418 0 4.61-.905 6.192-2.365l-2.273-3.289c-.837 1.17-2.28 1.945-3.919 1.945-2.582 0-4.683-1.925-4.683-4.291 0-2.366 2.1-4.291 4.683-4.291" fill="#F9F9F9"/></g></svg>