<svg width="44" height="44" viewBox="0 0 44 44" xmlns="http://www.w3.org/2000/svg" xmlns:xlink="http://www.w3.org/1999/xlink"><title>menu-mobile</title><defs><path d="M.366.806a.405.405 0 0 1 0-.806H16.44a.405.405 0 0 1 0 .806H.366zm0 4.759a.405.405 0 0 1 0-.806H16.44a.405.405 0 0 1 0 .806H.366zm0 4.804a.405.405 0 0 1 0-.806H16.44a.405.405 0 0 1 0 .806H.366z" id="a"/></defs><g fill="none" fill-rule="evenodd"><g transform="translate(14 17)"><mask id="b" fill="#fff"><use xlink:href="#a"/></mask><use fill="#272B33" xlink:href="#a"/><g mask="url(#b)" fill="#FFF"><path d="M-4-7h24v24H-4z"/></g></g><path d="M10 10h24v24H10z"/></g></svg>