<svg width="44" height="44" viewBox="0 0 44 44" xmlns="http://www.w3.org/2000/svg" xmlns:xlink="http://www.w3.org/1999/xlink"><title>mywallet-mobile</title><defs><path d="M1.39 5.749a.407.407 0 0 1-.276-.105.324.324 0 0 1-.11-.241c0-.09.04-.175.11-.24L6.1.101A.4.4 0 0 1 6.372 0a.41.41 0 0 1 .277.104l4.99 5.055a.331.331 0 0 1 .112.244.327.327 0 0 1-.109.241.408.408 0 0 1-.276.105.407.407 0 0 1-.276-.105l-4.343-4.43.003 12.17a.376.376 0 0 1-.75 0L5.997 1.215 1.661 5.648a.402.402 0 0 1-.27.101zM16.875 11c1.034 0 1.875.84 1.875 1.873v2.004c0 1.033-.84 1.873-1.873 1.873h-.125l-.002 1.116a1.881 1.881 0 0 1-1.875 1.884h-13A1.881 1.881 0 0 1 0 17.866V9.883C0 8.845.842 8 1.876 8H3.37c.206 0 .38.171.38.375a.37.37 0 0 1-.38.375H1.876A1.13 1.13 0 0 0 .75 9.883v7.983c0 .625.505 1.134 1.125 1.134h13c.62 0 1.125-.509 1.125-1.134V16.75h-2.124A2.88 2.88 0 0 1 11 13.875 2.879 2.879 0 0 1 13.876 11H16V9.883c0-.625-.501-1.133-1.118-1.133H9.379A.383.383 0 0 1 9 8.375C9 8.161 9.163 8 9.379 8h5.503c1.03 0 1.868.845 1.868 1.883V11h.125zM18 14.877v-2.004c0-.62-.504-1.123-1.123-1.123h-3.001a2.128 2.128 0 0 0-2.126 2.125c0 1.171.954 2.125 2.126 2.125h3.001c.619 0 1.123-.504 1.123-1.123zm-4.125-1.752a.75.75 0 1 1 0 1.5.75.75 0 0 1 0-1.5z" id="a"/></defs><g fill="none" fill-rule="evenodd"><g transform="translate(13 12)"><mask id="b" fill="#fff"><use xlink:href="#a"/></mask><use fill="#000" xlink:href="#a"/><g mask="url(#b)" fill="#FFF"><path d="M-3-2h24v24H-3z"/></g></g><path d="M10 10h24v24H10z"/></g></svg>