<svg width="32" height="32" viewBox="0 0 32 32" xmlns="http://www.w3.org/2000/svg"><title>deposit-fill</title><path d="M15.414 13.333H14.5v5.05a.46.46 0 0 0 .917 0v-5.05h7.161c1.053 0 1.917.815 1.999 1.834h-2.735a3.667 3.667 0 0 0-3.675 3.666 3.674 3.674 0 0 0 3.675 3.667h2.735a2.006 2.006 0 0 1-1.999 1.833H11.005c-1.107 0-2.005-.9-2.005-1.992v-7.016c0-1.1.905-1.992 2.005-1.992h3.493V7.51l-3.778 3.864a.496.496 0 0 1-.662 0 .408.408 0 0 1 0-.61l4.567-4.637a.496.496 0 0 1 .662 0l4.577 4.637a.408.408 0 0 1 0 .61.496.496 0 0 1-.662 0l-3.788-3.865v5.825zm3.67 5.5a2.748 2.748 0 0 1 2.75-2.75h2.579c1.107 0 2.004.896 2.004 2.002v1.497c0 1.105-.9 2.001-2.004 2.001h-2.578a2.753 2.753 0 0 1-2.752-2.75zm2.75.917a.917.917 0 1 0 0-1.833.917.917 0 0 0 0 1.833z" fill="#FFF"/></svg>