<svg width="24" height="24" viewBox="0 0 24 24" xmlns="http://www.w3.org/2000/svg" xmlns:xlink="http://www.w3.org/1999/xlink"><title>Artboard</title><defs><path d="M1.333 2.667a1.333 1.333 0 1 1 0-2.667 1.333 1.333 0 0 1 0 2.667zm5.334 0a1.333 1.333 0 1 1 0-2.667 1.333 1.333 0 0 1 0 2.667zm5.333 0A1.333 1.333 0 1 1 12 0a1.333 1.333 0 0 1 0 2.667z" id="a"/></defs><g fill="none" fill-rule="evenodd"><g transform="translate(5.333 10.667)"><mask id="b" fill="#fff"><use xlink:href="#a"/></mask><use fill="#272B33" xlink:href="#a"/><g mask="url(#b)" fill="#0C1C24"><path d="M-1.333-6.667h16v16h-16z"/></g></g><path d="M4 4h16v16H4z"/></g></svg>