<svg width="24" height="24" viewBox="0 0 24 24" xmlns="http://www.w3.org/2000/svg"><title>heart-fill</title><path d="M11.238 17.643a37.06 37.06 0 0 1-1.9-1.4 15.793 15.793 0 0 1-2.312-2.215A10.25 10.25 0 0 1 5.318 11.3a3.788 3.788 0 0 1-.045-2.932 3.723 3.723 0 0 1 1.168-1.57 3.615 3.615 0 0 1 2.045-.785h.25a3.643 3.643 0 0 1 2.887 1.392c.11.14.208.287.293.443.084.152.156.31.217.472.039.106.072.213.098.323.025.105.047.207.067.307a.123.123 0 0 0 0 .038.867.867 0 0 0 .038.082.317.317 0 0 0 .12.135.31.31 0 0 0 .165.045c.06 0 .12-.016.172-.045a.295.295 0 0 0 .128-.15 1 1 0 0 0 .015-.172v-.158c-.02-.13-.045-.26-.075-.39a2.9 2.9 0 0 0-.12-.39l-.09-.21-.083-.222a.555.555 0 0 1-.075-.375.61.61 0 0 1 .18-.345h.015a3.475 3.475 0 0 1 1.063-.59c.39-.135.8-.204 1.212-.203.084 0 .167.005.25.015l.25.03a3.516 3.516 0 0 1 1.768.763c.513.411.906.953 1.137 1.57a3.855 3.855 0 0 1-.05 2.937 9.903 9.903 0 0 1-1.707 2.723 16.53 16.53 0 0 1-2.313 2.207c-.813.633-1.444 1.1-1.892 1.4a.853.853 0 0 1-.27.135c-.205.06-.423.06-.628 0a.853.853 0 0 1-.27-.137z" fill="#272B33"/></svg>