<svg width="24" height="24" viewBox="0 0 24 24" xmlns="http://www.w3.org/2000/svg" xmlns:xlink="http://www.w3.org/1999/xlink"><title>identity</title><defs><path d="M16.275 17.354c.125.241.207.503.241.773.034.251.034.505 0 .756-.03.288-.18.55-.412.722a1.29 1.29 0 0 1-.86.275H1.597v-.034c-.32.01-.634-.087-.893-.275a1.186 1.186 0 0 1-.413-.722 2.788 2.788 0 0 1 0-.756c.11-.554.372-1.065.756-1.478.17-.153.369-.27.585-.344l.653-.206a8.456 8.456 0 0 1 1.547-.379c.441-.057.87-.185 1.272-.378a1.14 1.14 0 0 0 .618-.584.928.928 0 0 0-.137-.79 4.572 4.572 0 0 0-.481-.654 5.043 5.043 0 0 1-.825-1.272 5.703 5.703 0 0 1-.413-1.065 1.585 1.585 0 0 1-.79-.55c-.31-.31-.482-.997-.55-1.994a1.87 1.87 0 0 1 .034-.756c.042-.194.138-.372.275-.516.069-.069.103-.137.172-.172a.296.296 0 0 1 .206-.103 6.51 6.51 0 0 1 .034-2.578 5.294 5.294 0 0 1 .997-2.131A4.998 4.998 0 0 1 6.032.768 6.222 6.222 0 0 1 8.404.286h.034a5.424 5.424 0 0 1 2.406.516 4.995 4.995 0 0 1 1.788 1.375c.479.607.821 1.31 1.003 2.063a8.55 8.55 0 0 1 .138 1.615.375.375 0 0 1-.378.344.382.382 0 0 1-.378-.378c.028-.414.005-.83-.07-1.238a4.764 4.764 0 0 0-.9-1.959A4.204 4.204 0 0 0 10.5 1.49a5.363 5.363 0 0 0-4.125 0 3.71 3.71 0 0 0-1.54 1.134 4.764 4.764 0 0 0-.893 1.994 6.187 6.187 0 0 0 .068 2.51.22.22 0 0 1 0 .205.234.234 0 0 1-.24.258h-.172l-.034-.034c-.07 0-.104 0-.138.034a.034.034 0 0 0-.034.035.292.292 0 0 0-.103.171 1.48 1.48 0 0 0-.035.55c.035.929.172 1.479.413 1.616.112.1.24.181.378.24h.069c.034 0 .068.035.103.035l.034.034.103.104.069.137s.103.275.275.825c.21.53.513 1.019.894 1.444.267.284.488.609.653.962.203.368.24.806.103 1.203a1.63 1.63 0 0 1-.79.929 5.101 5.101 0 0 1-1.685.55 11 11 0 0 0-1.444.343 6.842 6.842 0 0 0-.515.172 1.626 1.626 0 0 0-.688.756c-.17.316-.241.675-.206 1.032.024.1.071.195.137.275a.54.54 0 0 0 .447.137h13.571c.16.008.319-.04.447-.137.06-.085.106-.177.138-.275a1.805 1.805 0 0 0-.206-1.032c0-.068-.035-.103-.07-.171v-.035a.395.395 0 0 1 .173-.481.371.371 0 0 1 .48.103c.035.069.104.172.138.24zm-5.121-6.497l1.89 2.234 4.297-4.984a.344.344 0 0 1 .516.447l-4.435 5.122-.034.034a.478.478 0 0 1-.344.172h-.034a.423.423 0 0 1-.344-.172l-2.028-2.406a.344.344 0 0 1 .516-.447zm6.737-.275v.017a4.926 4.926 0 0 1-4.778 6.256 4.837 4.837 0 0 1-2.784-.86 4.972 4.972 0 1 1 5.603-8.215.348.348 0 0 1-.378.585 4.266 4.266 0 0 0-5.947 1.082 4.29 4.29 0 0 0 1.1 5.947 4.26 4.26 0 0 0 6.53-4.64.344.344 0 1 1 .654-.172z" id="a"/></defs><g fill="none" fill-rule="evenodd"><g transform="translate(2.832 1.916)"><mask id="b" fill="#fff"><use xlink:href="#a"/></mask><use fill="#272B33" xlink:href="#a"/><g mask="url(#b)" fill="#272B33"><path d="M-1.833-.917h22v22h-22z"/></g></g><path d="M.999.999h22v22h-22z"/></g></svg>