<svg width="32" height="32" viewBox="0 0 32 32" xmlns="http://www.w3.org/2000/svg"><title>jackpot-fill</title><path d="M23.844 11.222c.35-.001.693.083.997.246.305.161.568.385.77.657.22.321.339.695.344 1.08a1.84 1.84 0 0 1-.32 1.079c-.19.285-.45.52-.76.685a2.092 2.092 0 0 1-1.007.256h-.04a.312.312 0 0 0-.186.06.251.251 0 0 0-.104.157l-.687 2.848a.93.93 0 0 1-.344.541c-.185.138-.415.21-.65.207H10.102a1.028 1.028 0 0 1-.629-.207.93.93 0 0 1-.344-.541c-.068-.302-.137-.59-.206-.863-.069-.273-.13-.535-.185-.784a25.708 25.708 0 0 1-.176-.706l-.14-.495a.251.251 0 0 0-.104-.158.312.312 0 0 0-.185-.059 2.32 2.32 0 0 1-.822-.147 2.05 2.05 0 0 1-.687-.443 1.996 1.996 0 0 1-.495-.745 1.773 1.773 0 0 1-.114-.883c.058-.61.417-1.156.966-1.473.17-.102.354-.181.547-.236a2.154 2.154 0 0 1 1.155 0c.183.051.36.124.526.216.706.43 1.084 1.214.965 2.005a.272.272 0 0 0 .052.217.23.23 0 0 0 .196.098c.113.027.228.043.344.05h.363a5.314 5.314 0 0 0 2.334-.532 3.044 3.044 0 0 0 1.492-1.313.314.314 0 0 0 0-.206.218.218 0 0 0-.113-.148 2.086 2.086 0 0 1-.688-.735 1.92 1.92 0 0 1-.247-.952 1.887 1.887 0 0 1 .618-1.414A2.07 2.07 0 0 1 15.983 8c.08 0 .159.006.237.02l.237.04c.79.15 1.406.739 1.564 1.492.097.402.065.823-.093 1.208a1.87 1.87 0 0 1-.79.912.274.274 0 0 0-.134.167.199.199 0 0 0 .03.187c.311.597.832 1.07 1.472 1.336.73.353 1.537.535 2.355.531h.343c.116-.006.231-.022.344-.05a.302.302 0 0 0 .196-.107.244.244 0 0 0 .052-.207 1.836 1.836 0 0 1 .072-.922c.1-.296.274-.565.505-.784.202-.181.434-.328.688-.433.246-.107.513-.164.783-.168zM22.28 20.65l-.687 2.868a.713.713 0 0 1-.268.394.758.758 0 0 1-.475.157h-9.742a.757.757 0 0 1-.47-.16.713.713 0 0 1-.269-.394 5.042 5.042 0 0 0-.113-.522 9.847 9.847 0 0 1-.134-.561 38.046 38.046 0 0 1-.206-.873l-.207-.912a.395.395 0 0 1 0-.236.742.742 0 0 1 .114-.237.51.51 0 0 1 .206-.147.662.662 0 0 1 .248-.05h11.43a.676.676 0 0 1 .247.05.51.51 0 0 1 .206.147.547.547 0 0 1 .113.227c.02.082.023.167.007.25z" fill="#FFF"/></svg>