<svg width="24" height="24" viewBox="0 0 24 24" xmlns="http://www.w3.org/2000/svg" xmlns:xlink="http://www.w3.org/1999/xlink"><title>notificaitons</title><defs><path d="M15.255 4.73a6.174 6.174 0 0 1 1.312 2.717c.116.545.152 1.103.108 1.657a6.088 6.088 0 0 1-.36 1.603l-.69 1.872a7.425 7.425 0 0 0-.495 2.397 4.74 4.74 0 0 0 .406 2.034c.099.238.143.495.13.752a1.398 1.398 0 0 1-.238.718 1.542 1.542 0 0 1-.55.507c-.22.121-.467.184-.719.183a1.768 1.768 0 0 1-.539-.086c-.1-.043-.47-.18-1.107-.41l-2.055-.747-2.875-1.042-6.03-2.196a1.437 1.437 0 0 1-.701-.518 1.47 1.47 0 0 1-.291-.815 1.37 1.37 0 0 1 .194-.86 1.6 1.6 0 0 1 .682-.603A4.812 4.812 0 0 0 3.04 10.57a7.68 7.68 0 0 0 1.172-2.156l.668-1.872a5.498 5.498 0 0 1 .773-1.463c.33-.445.713-.85 1.14-1.204a6.523 6.523 0 0 1 1.3-.794c.457-.213.94-.365 1.438-.453a.043.043 0 0 1 0-.032.043.043 0 0 0 0-.032c.21-.587.6-1.09 1.117-1.438a3.004 3.004 0 0 1 1.743-.55 3.396 3.396 0 0 1 1.064.176c.767.267 1.39.84 1.721 1.582a2.94 2.94 0 0 1 .108 2.332s-.021.025-.021.032c0 .007.007.018-.008.033zm.36 5.722a5.636 5.636 0 0 0 .215-2.836c-.1-.473-.26-.932-.474-1.365a5.031 5.031 0 0 0-.816-1.193l-.172-.194.108-.238a.27.27 0 0 0 .064-.107 2.2 2.2 0 0 0-.032-1.85 2.189 2.189 0 0 0-1.668-1.28 2.483 2.483 0 0 0-.41-.033 2.239 2.239 0 0 0-1.3.41 2.15 2.15 0 0 0-.827 1.078l-.043.118a.316.316 0 0 0-.021.119l-.065.259-.259.043c-.48.07-.95.2-1.398.388-.44.18-.853.422-1.225.719a5.39 5.39 0 0 0-1.678 2.322l-.69 1.872a8.539 8.539 0 0 1-1.33 2.415 5.11 5.11 0 0 1-1.84 1.484.801.801 0 0 0-.334.302.686.686 0 0 0-.097.431.68.68 0 0 0 .129.399.64.64 0 0 0 .36.248l6.022 2.196L10.71 17.2l2.056.751c.637.24 1.013.373 1.128.399l.13.032h.13a.744.744 0 0 0 .359-.086.773.773 0 0 0 .27-.237.747.747 0 0 0 .118-.36.805.805 0 0 0-.076-.359 5.351 5.351 0 0 1-.449-2.318 8.463 8.463 0 0 1 .535-2.684l.705-1.887zm-3.845 8.646a.23.23 0 0 1 .118.13.169.169 0 0 1-.032.172c-.335.452-.8.79-1.333.967a2.314 2.314 0 0 1-1.614-.022 2.343 2.343 0 0 1-1.247-1.01 2.746 2.746 0 0 1-.41-1.606.162.162 0 0 1 .086-.14.18.18 0 0 1 .151-.032l4.28 1.541zm1.01-16.434a.84.84 0 0 1 .334.205c.094.094.177.2.248.313a.97.97 0 0 1 .086.399c0 .135-.022.27-.065.398a.938.938 0 0 1-.528.572.97.97 0 0 1-.784.032.906.906 0 0 1-.571-.51 1.078 1.078 0 0 1-.043-.794c.081-.195.216-.364.388-.485a.981.981 0 0 1 .582-.184h.183a.54.54 0 0 1 .173.058l-.004-.004z" id="a"/></defs><g fill="none" fill-rule="evenodd"><g transform="translate(3.555 1.638)"><mask id="b" fill="#fff"><use xlink:href="#a"/></mask><use fill="#272B33" xlink:href="#a"/><g mask="url(#b)" fill="#272B33"><path d="M-2.875-.958h23v23h-23z"/></g></g><path d="M.68.68h23v23h-23z"/></g></svg>