<svg width="24" height="24" viewBox="0 0 24 24" xmlns="http://www.w3.org/2000/svg" xmlns:xlink="http://www.w3.org/1999/xlink"><title>responsible gaming</title><defs><path d="M14.988 1.97c1.273 3.2-3.478 6.577-4.964 7.537a.956.956 0 0 1-1.04 0c-1.486-.96-6.233-4.345-4.954-7.56A3.107 3.107 0 0 1 6.533.027a3.157 3.157 0 0 1 3.325 1.89c.089.24.147.49.173.745a.375.375 0 0 1-.336.41.377.377 0 0 1-.415-.332 2.308 2.308 0 0 0-.127-.54A2.406 2.406 0 0 0 6.924.762a2.406 2.406 0 0 0-2.203 1.476c-1.096 2.734 3.7 6.015 4.695 6.64a.204.204 0 0 0 .221 0c.972-.628 5.764-3.899 4.676-6.64A2.387 2.387 0 0 0 12.437.783a2.432 2.432 0 0 0-1.877.495.378.378 0 0 1-.615-.23.37.37 0 0 1 .146-.35A3.187 3.187 0 0 1 12.538.05a3.11 3.11 0 0 1 2.45 1.92zm-6.867 8.557c.469.403.739.988.74 1.603v4.498a.374.374 0 0 1-.376.372H5.156a.374.374 0 0 1-.375-.372 1.72 1.72 0 0 0-.405-1.116L.72 11.557A3.186 3.186 0 0 1 0 9.59V5.951c0-.769.628-1.392 1.404-1.392.775 0 1.403.623 1.403 1.392v3.046c.005.302.142.586.375.778l2.143 1.86c.129.089.3.089.428 0a.377.377 0 0 1 .443.124.37.37 0 0 1-.012.457c-.388.27-.906.27-1.294 0l-.034-.026-2.162-1.86a1.768 1.768 0 0 1-.615-1.34V5.947a.65.65 0 0 0-.604-.644.672.672 0 0 0-.496.171.634.634 0 0 0-.206.47v3.645c.003.54.187 1.063.522 1.488l3.647 3.947c.298.35.493.776.563 1.228H8.11v-4.118c0-.4-.176-.78-.48-1.042L5.136 9.005a.66.66 0 0 0-.885.022.643.643 0 0 0-.117.179.377.377 0 0 1-.486.184.37.37 0 0 1-.204-.474 1.39 1.39 0 0 1 .289-.428 1.42 1.42 0 0 1 1.903-.056l2.484 2.095zm10.421-5.6c.288.26.453.627.458 1.012v3.646a3.17 3.17 0 0 1-.68 1.954l-3.684 3.988a1.713 1.713 0 0 0-.398 1.097.374.374 0 0 1-.375.372h-3.33a.374.374 0 0 1-.374-.372v-4.48a2.113 2.113 0 0 1 .75-1.603l2.492-2.098a1.416 1.416 0 0 1 1.899.06c.122.124.22.27.289.431a.37.37 0 0 1-.205.475.377.377 0 0 1-.486-.185.647.647 0 0 0-.139-.204.665.665 0 0 0-.885-.026l-2.492 2.098a1.37 1.37 0 0 0-.484 1.038v4.104h2.608c.07-.449.261-.87.555-1.217l3.656-3.947c.329-.427.506-.95.502-1.488V5.943a.634.634 0 0 0-.206-.469.657.657 0 0 0-.706-.121.647.647 0 0 0-.394.594v3.07c0 .513-.224 1.001-.615 1.338l-2.162 1.86-.033.027c-.389.27-.907.27-1.295 0a.371.371 0 0 1-.096-.52.378.378 0 0 1 .524-.094.38.38 0 0 0 .428 0l2.142-1.86a1.03 1.03 0 0 0 .376-.778V5.947c0-.554.33-1.056.843-1.277a1.413 1.413 0 0 1 1.517.257z" id="a"/></defs><g fill="none" fill-rule="evenodd"><g transform="translate(3 4)"><mask id="b" fill="#fff"><use xlink:href="#a"/></mask><use fill="#272B33" xlink:href="#a"/><g mask="url(#b)" fill="#272B33"><path d="M-3-4h24v24H-3z"/></g></g><path d="M0 0h24v24H0z"/></g></svg>