<svg width="24" height="24" viewBox="0 0 24 24" xmlns="http://www.w3.org/2000/svg" xmlns:xlink="http://www.w3.org/1999/xlink"><title>Artboard</title><defs><path d="M12.995 16a8 8 0 1 1 0-16 8 8 0 0 1 0 16zM5.86 14.915a.446.446 0 0 1 0 .63l-4.32 4.32a.446.446 0 0 1-.63-.63l4.32-4.32a.446.446 0 0 1 .63 0zm7.135.085a7 7 0 1 0 0-14 7 7 0 0 0 0 14z" id="a"/></defs><g transform="translate(1 2)" fill="none" fill-rule="evenodd"><mask id="b" fill="#fff"><use xlink:href="#a"/></mask><use fill="#282B33" xlink:href="#a"/><g mask="url(#b)" fill="#272B33"><path d="M-.22-2h24v24h-24z"/></g></g></svg>