<svg width="36" height="44" viewBox="0 0 36 44" xmlns="http://www.w3.org/2000/svg" xmlns:xlink="http://www.w3.org/1999/xlink"><title>Cards/Assets/tag-hot</title><defs><path d="M0 3.006A3.006 3.006 0 0 1 3.007 0h29.986A3.005 3.005 0 0 1 36 3.006v27.199c0 1.66-1.126 3.74-2.512 4.646l-12.976 8.47c-1.387.906-3.638.905-5.024 0l-12.976-8.47C1.125 33.945 0 31.868 0 30.205v-27.2z" id="a"/><path d="M12.366 20.689a.75.75 0 0 1-.191-.315.728.728 0 0 1 0-.375 3.574 3.574 0 0 0-.09-1.391 2.726 2.726 0 0 0-.608-1.125 2.625 2.625 0 0 0-1.125-.777 4.241 4.241 0 0 0-1.5-.258 3.173 3.173 0 0 0-1.661.375 4.17 4.17 0 0 0-.964.75c-.289.343-.5.744-.618 1.177a2.775 2.775 0 0 0-.068 1.256.986.986 0 0 1-.18.712.889.889 0 0 1-.69.315.836.836 0 0 1-.382-.09 7.125 7.125 0 0 1-1.785-1.124 6.668 6.668 0 0 1-1.38-1.65 7.609 7.609 0 0 1-.83-1.875 7.402 7.402 0 0 1-.292-2.066 7.575 7.575 0 0 1 .375-2.547 8.76 8.76 0 0 1 .953-2.01 9.079 9.079 0 0 1 1.222-1.5c.435-.427.817-.79 1.144-1.087.08-.078.17-.143.27-.191a.75.75 0 0 1 .338-.08.75.75 0 0 1 .326.068.889.889 0 0 1 .259.18c.06.075.109.159.146.248a.694.694 0 0 1 .056.27v.045c-.129.808-.159 1.63-.09 2.445.067.598.354 1.15.806 1.549.138.106.29.193.45.258.164.068.34.102.518.102.222 0 .441-.05.641-.147.186-.08.345-.21.461-.375a1.73 1.73 0 0 0 .158-1.5 12.311 12.311 0 0 0-.563-1.683 9.682 9.682 0 0 1-.776-3.023 4.875 4.875 0 0 1 .375-2.434c.29-.663.74-1.244 1.309-1.691.642-.5 1.368-.88 2.145-1.125h.247a.75.75 0 0 1 .417.124c.12.074.216.179.28.304a.866.866 0 0 1 .08.405.667.667 0 0 1-.124.375 2.205 2.205 0 0 0 .056 2.25c.587.886 1.26 1.713 2.01 2.467.465.5.944 1.028 1.436 1.583.505.577.96 1.196 1.358 1.852a10.38 10.38 0 0 1 1.009 2.224c.264.865.39 1.766.375 2.67a6.679 6.679 0 0 1-.274 1.871A8.809 8.809 0 0 1 16.589 18a7.732 7.732 0 0 1-1.392 1.74 6.495 6.495 0 0 1-1.751 1.178.881.881 0 0 1-.758.011.87.87 0 0 1-.322-.24z" id="c"/></defs><g fill="none" fill-rule="evenodd"><mask id="b" fill="#fff"><use xlink:href="#a"/></mask><g mask="url(#b)" fill="#60666E"><path d="M0 0h36v44H0z"/></g><g mask="url(#b)"><g transform="translate(9 9)"><mask id="d" fill="#fff"><use xlink:href="#c"/></mask><use fill="#272B33" xlink:href="#c"/><g mask="url(#d)" fill="#FAFAFA"><path d="M-3-1h24v24H-3z"/></g></g><path d="M6 8h24v24H6z"/></g></g></svg>