<svg width="36" height="44" viewBox="0 0 36 44" xmlns="http://www.w3.org/2000/svg" xmlns:xlink="http://www.w3.org/1999/xlink"><title>Artboard</title><defs><path d="M0 3.006A3.006 3.006 0 0 1 3.007 0h29.986A3.005 3.005 0 0 1 36 3.006v27.199c0 1.66-1.126 3.74-2.512 4.646l-12.976 8.47c-1.387.906-3.638.905-5.024 0l-12.976-8.47C1.125 33.945 0 31.868 0 30.205v-27.2z" id="a"/><path d="M5.17 15.63c.7.633 1.698.85 2.973.648a.546.546 0 0 1 .612.475.561.561 0 0 1-.45.644 6.519 6.519 0 0 1-1.042.087c-1.128 0-2.068-.335-2.8-1.003-1.335-1.218-1.517-3.136-1.54-3.692-.63-.097-1.13-.2-1.557-.224C.6 12.521 0 11.724 0 10.748V7.253c0-.973.6-1.77 1.366-1.815.478-.028 1.105-.154 1.763-.258.456-.072.864.295.864.78v6.674c0 .042.01 1.936 1.178 2.996H5.17zM13.973.11c.587.26.966.934.966 1.717v14.35c0 .781-.379 1.455-.966 1.715-.155.07-.324.108-.494.108-.313 0-.615-.13-.88-.366-2.922-2.615-6.095-3.956-7.225-4.344A.558.558 0 0 1 5 12.756V5.244a.56.56 0 0 1 .369-.532c1.208-.424 4.784-1.92 7.23-4.344A1.21 1.21 0 0 1 13.972.11h.001zm2.409 6.182A3.277 3.277 0 0 1 18 9.142a3.28 3.28 0 0 1-1.623 2.852.254.254 0 0 1-.087.02.278.278 0 0 1-.27-.284V6.554c0-.155.12-.283.27-.283.032 0 .062.01.09.02l.002.001z" id="c"/></defs><g fill="none" fill-rule="evenodd"><mask id="b" fill="#fff"><use xlink:href="#a"/></mask><g mask="url(#b)" fill="#60666E" fill-rule="nonzero"><path d="M0 0h36v44H0z"/></g><path d="M14.324 26.63c.7.633 1.698.85 2.973.648a.546.546 0 0 1 .612.475.561.561 0 0 1-.45.644 6.519 6.519 0 0 1-1.042.087c-1.128 0-2.068-.335-2.8-1.003-1.335-1.218-1.517-3.136-1.54-3.692-.63-.097-1.13-.2-1.557-.224-.766-.044-1.366-.841-1.366-1.817v-3.495c0-.973.6-1.77 1.366-1.815.478-.028 1.105-.154 1.763-.258.456-.072.864.295.864.78v6.674c0 .042.01 1.936 1.178 2.996h-.001zm8.803-15.52c.587.26.966.934.966 1.717v14.35c0 .781-.379 1.455-.966 1.715-.155.07-.324.108-.494.108-.313 0-.615-.13-.88-.366-2.922-2.615-6.095-3.956-7.225-4.344a.558.558 0 0 1-.374-.534v-7.512a.56.56 0 0 1 .369-.532c1.208-.424 4.784-1.92 7.23-4.344a1.21 1.21 0 0 1 1.373-.258h.001zm2.409 6.182a3.277 3.277 0 0 1 1.618 2.85 3.28 3.28 0 0 1-1.623 2.852.254.254 0 0 1-.087.02.278.278 0 0 1-.27-.284v-5.176c0-.155.12-.283.27-.283.032 0 .062.01.09.02l.002.001z" fill="#000" fill-rule="nonzero"/><g transform="translate(9.154 11)"><mask id="d" fill="#fff"><use xlink:href="#c"/></mask><g mask="url(#d)" fill="#FFF" fill-rule="nonzero"><path d="M-3-3h24v24H-3z"/></g></g></g></svg>