<svg width="24" height="24" viewBox="0 0 24 24" xmlns="http://www.w3.org/2000/svg" xmlns:xlink="http://www.w3.org/1999/xlink"><title>transactions</title><defs><path d="M14.75 14.183c.207 0 .376.167.376.374v.645c0 .619-.506 1.12-1.13 1.12H9.8a.375.375 0 0 1-.377-.373c0-.206.169-.373.377-.373h4.195a.375.375 0 0 0 .377-.374v-.645c0-.207.17-.374.377-.374zM10.37 4.106a.379.379 0 0 1-.384.373H5.653a.375.375 0 0 1-.377-.373c0-.206.169-.374.377-.374h4.338c.209 0 .377.168.377.374zm-1.516 2.24c.135 0 .26.07.326.186a.37.37 0 0 1 0 .373.378.378 0 0 1-.326.187h-3.2a.375.375 0 0 1-.377-.374c0-.206.169-.373.377-.373h3.2zm0 2.612c.135 0 .26.071.326.187a.37.37 0 0 1 0 .373.378.378 0 0 1-.326.186h-3.2a.375.375 0 0 1-.377-.373c0-.206.169-.373.377-.373h3.2zm0 2.613c.135 0 .26.07.326.186a.37.37 0 0 1 0 .373.378.378 0 0 1-.326.187h-3.2a.375.375 0 0 1-.377-.373c0-.206.169-.373.377-.373h3.2zM14.9 3.359c2.814.002 5.096 2.26 5.1 5.046a5.05 5.05 0 0 1-3.146 4.669 5.137 5.137 0 0 1-5.559-1.093 5.014 5.014 0 0 1-1.107-5.503A5.1 5.1 0 0 1 14.9 3.359zm0 9.354v-.023c2.13.01 3.954-1.512 4.306-3.593.352-2.08-.872-4.108-2.89-4.785-2.018-.678-4.234.192-5.234 2.056h4.855c.208 0 .377.167.377.373a.375.375 0 0 1-.377.373H10.76a4.245 4.245 0 0 0 0 2.613h5.176c.208 0 .377.167.377.373a.375.375 0 0 1-.377.373h-4.855a4.357 4.357 0 0 0 3.818 2.24zM13.324 0c1.034 0 1.875.824 1.885 1.848v.373a.375.375 0 0 1-.377.373.375.375 0 0 1-.377-.373v-.373c0-.619-.506-1.12-1.13-1.12H3.297V.709c.245.323.377.716.377 1.12-.011 5.18-.034 11.82-.034 13.455a.371.371 0 0 0 .377.37h3.52l2.816-2.766a.38.38 0 0 1 .512.02.37.37 0 0 1 .02.506l-4.523 4.48a.38.38 0 0 1-.534-.006.37.37 0 0 1 .006-.528l.95-.96H4.018c-.624 0-1.13-.5-1.13-1.12.007-1.62.033-8.256.033-13.436 0-.6-.476-1.094-1.082-1.12A1.125 1.125 0 0 0 .754 1.848c.011 4.55.03 8.924.03 11.033 0 .206.169.373.377.373h.562c.208 0 .376.167.376.373a.375.375 0 0 1-.376.373H1.16c-.625 0-1.13-.5-1.13-1.12C.022 10.773 0 6.395 0 1.845A1.873 1.873 0 0 1 1.689 0h11.635z" id="a"/></defs><g fill="none" fill-rule="evenodd"><g transform="translate(2 4)"><mask id="b" fill="#fff"><use xlink:href="#a"/></mask><use fill="#272B33" xlink:href="#a"/><g mask="url(#b)" fill="#272B33"><path d="M-2-4h24v24H-2z"/></g></g><path d="M0 0h24v24H0z"/></g></svg>